<svg xmlns="http://www.w3.org/2000/svg" width="1191" height="1215" fill="none" viewBox="0 0 1191 1215">
  <path fill="url(#a)" d="M626.736 368.245c54.941-26.028 116.549-38.946 116.549-38.946 106.02-27.345 119.279.753 201.237 11.143 18.779 2.381 40.396-8.694 72.998-6.386 43.73 66.112 40.62 161.463 34.58 254.981-5.86 94.312-7.51 89.439-53.557 156.599-45.56 67.465-113.041 59.3-193.773 74.17-80.427 14.381-106.64 83.619-193.612 93.229-87.766 9.795-209.372 55.907-283.38 32.795-74.008-23.112-173.935-50.594-214.493-133.77-40.375-82.381-21.18-242.092 66.862-303.025 6.114-6.53 151.186-109.573 230.608-102.461 136.08 12.187 154.209-21.137 215.981-38.329Z"/>
  <path fill="#000" d="M593.131 828.596H460.703c2.201-.951 3.403-1.977 3.403-3.046 0-4.91-25.285-8.891-56.475-8.891-31.189 0-56.474 3.981-56.474 8.891 0 1.069 1.202 2.095 3.403 3.046H177.115a3.831 3.831 0 0 0 0 7.662h416.016a3.831 3.831 0 0 0 0-7.662Z" opacity=".15" style="mix-blend-mode:multiply"/>
  <path fill="#2A4A13" d="M162.646 765.961c-1.812-1.662-3.686-3.419-4.518-5.732-.83-2.314-.225-5.346 1.974-6.447 2.44-1.225 5.974.208 7.785-1.834 1.287-1.45.702-3.877-.716-5.201-1.417-1.321-3.391-1.822-5.272-2.282-2.927-.716-5.9-1.464-8.492-3.003-2.593-1.537-4.799-3.998-5.312-6.969-.513-2.972 1.081-6.374 3.955-7.282 2.239-.709 4.97.053 6.804-1.413 1.847-1.476 1.635-4.462.387-6.471-1.246-2.011-3.242-3.424-4.814-5.191-1.572-1.766-2.755-4.268-1.877-6.466 1.053-2.64 4.356-3.412 6.555-5.21 2.242-1.834 3.29-4.736 4.003-7.543.716-2.807 1.229-5.742 2.762-8.198 1.536-2.457 4.448-4.347 7.259-3.65 5.877 1.455 5.546 11.539 11.302 13.412 2.322.755 4.809-.17 7.186-.731 2.378-.562 5.307-.564 6.77 1.394 1.34 1.788.762 4.394-.433 6.287-1.192 1.89-2.912 3.421-3.981 5.384-1.069 1.962-1.296 4.699.358 6.205 2.295 2.088 5.873.3 8.969.111 3.328-.203 6.68 1.849 8.015 4.907 1.335 3.059.561 6.912-1.85 9.218-1.265 1.21-2.881 1.984-4.245 3.081-1.364 1.096-2.53 2.724-2.307 4.462.343 2.676 3.574 3.867 6.269 3.988 2.694.121 5.71-.16 7.764 1.592 2.6 2.217 2.056 6.575-.024 9.285-2.08 2.713-5.23 4.335-7.97 6.379-6.211 4.635-10.478 11.797-11.598 19.469-.5 3.436-.408 7.008-1.627 10.26s-4.31 6.195-7.75 5.733c-2.37-.317-4.3-2.193-5.34-4.346-.97-2.009-.709-4.668-1.793-6.507-1.115-1.893-4.036-3.679-5.652-5.162l-12.553-11.521.007-.008Z"/>
  <path fill="#698D20" d="M208.957 758.036c2.738-2.042 5.89-3.666 7.97-6.379 2.08-2.712 2.624-7.068.024-9.285-2.054-1.75-5.067-1.471-7.764-1.592-2.694-.121-5.926-1.312-6.269-3.988-.223-1.738.943-3.366 2.307-4.463 1.364-1.096 2.98-1.87 4.245-3.08 2.411-2.306 3.185-6.159 1.85-9.218-1.335-3.058-4.685-5.111-8.015-4.907-3.096.189-6.674 1.977-8.969-.112-1.654-1.502-1.429-4.242-.358-6.204 1.072-1.963 2.789-3.495 3.984-5.385 1.192-1.89 1.77-4.496.433-6.287-1.464-1.955-4.393-1.955-6.77-1.393-2.378.561-4.864 1.485-7.186.73-5.757-1.873-5.425-11.959-11.303-13.411a5.108 5.108 0 0 0-2.005-.082 20.226 20.226 0 0 0-.266 1.687c-1.069 9.128 1.507 18.275 4.591 26.933 3.084 8.656 6.736 17.23 7.943 26.339 1.098 8.273.135 16.717 1.248 24.988.776 5.771 2.549 11.361 3.669 17.077.926 4.731.629 8.959.426 13.537 3.132-.021 5.865-2.766 6.995-5.778 1.219-3.253 1.127-6.825 1.627-10.261 1.118-7.671 5.384-14.834 11.598-19.468l-.005.002Z"/>
  <path fill="#749435" d="M240.369 768.103c1.85-1.616 3.768-3.327 4.656-5.621.888-2.294.355-5.339-1.814-6.493-2.412-1.283-5.977.063-7.74-2.023-1.25-1.481-.607-3.894.842-5.181 1.449-1.288 3.432-1.74 5.326-2.154 2.943-.644 5.933-1.321 8.562-2.795 2.629-1.474 4.895-3.879 5.481-6.839.585-2.957-.927-6.398-3.776-7.375-2.22-.763-4.97-.068-6.767-1.578-1.81-1.522-1.527-4.501-.23-6.478 1.296-1.98 3.323-3.342 4.939-5.07 1.615-1.728 2.856-4.201 2.034-6.418-.989-2.664-4.271-3.516-6.427-5.37-2.196-1.887-3.173-4.815-3.819-7.639-.645-2.824-1.088-5.769-2.561-8.264-1.476-2.493-4.342-4.453-7.169-3.826-5.911 1.309-5.827 11.4-11.627 13.133-2.341.699-4.803-.288-7.166-.905-2.364-.62-5.29-.692-6.802 1.227-1.383 1.756-.868 4.375.278 6.294 1.147 1.919 2.828 3.492 3.851 5.478 1.023 1.987 1.18 4.731-.508 6.193-2.346 2.03-5.877.157-8.969-.106-3.323-.284-6.724 1.686-8.131 4.709-1.41 3.025-.731 6.897 1.625 9.258 1.236 1.239 2.832 2.052 4.17 3.183 1.338 1.13 2.462 2.785 2.199 4.515-.409 2.669-3.667 3.78-6.364 3.833-2.697.054-5.703-.297-7.8 1.401-2.654 2.154-2.216 6.522-.204 9.283 2.013 2.761 5.123 4.463 7.813 6.57 6.097 4.785 10.187 12.049 11.119 19.747.416 3.448.237 7.018 1.376 10.297 1.139 3.281 4.158 6.296 7.607 5.919 2.377-.262 4.353-2.086 5.444-4.216 1.018-1.984.823-4.648 1.95-6.461 1.158-1.863 4.126-3.579 5.778-5.024 4.276-3.736 8.552-7.475 12.829-11.211l-.005.007Z"/>
  <path fill="#3A4A1A" d="M194.263 759.05c-2.687-2.11-5.798-3.809-7.812-6.57-2.013-2.761-2.45-7.131.203-9.283 2.094-1.701 5.101-1.347 7.8-1.401 2.697-.053 5.957-1.166 6.364-3.833.263-1.73-.861-3.388-2.199-4.515-1.337-1.131-2.934-1.941-4.17-3.183-2.353-2.364-3.033-6.236-1.625-9.258 1.41-3.025 4.808-4.995 8.132-4.709 3.091.263 6.622 2.139 8.968.106 1.691-1.462 1.531-4.206.508-6.193-1.023-1.986-2.704-3.559-3.85-5.478-1.147-1.919-1.662-4.538-.279-6.294 1.512-1.922 4.439-1.847 6.802-1.227 2.363.619 4.825 1.604 7.166.905 5.8-1.733 5.716-11.822 11.627-13.133a5.108 5.108 0 0 1 2.008-.034c.099.564.171 1.132.225 1.691.846 9.153-1.95 18.235-5.247 26.813-3.294 8.579-7.152 17.061-8.581 26.138-1.299 8.244-.544 16.709-1.858 24.949-.916 5.752-2.825 11.296-4.083 16.983-1.042 4.707-.848 8.942-.754 13.523-3.13-.1-5.798-2.909-6.852-5.946-1.14-3.281-.961-6.851-1.377-10.297-.931-7.695-5.021-14.962-11.118-19.746l.002-.008Z"/>
  <path fill="#37621A" d="M213.405 792.402c-.06-3.384-.048-7.013.815-10.917.501-2.26 1.113-4.532 1.703-6.73.897-3.334 1.826-6.78 2.378-10.243.657-4.128.798-8.385.933-12.504.136-4.097.276-8.332.924-12.445 1.168-7.422 3.996-14.544 6.731-21.431a433.85 433.85 0 0 0 1.86-4.738c3.227-8.402 6.096-17.46 5.237-26.745l.302-.027c.864 9.348-2.015 18.445-5.256 26.88a411.695 411.695 0 0 1-1.862 4.741c-2.728 6.873-5.549 13.978-6.712 21.366-.646 4.096-.784 8.322-.919 12.409-.135 4.128-.278 8.395-.938 12.54-.554 3.477-1.486 6.933-2.385 10.275-.591 2.195-1.202 4.462-1.701 6.715-.856 3.872-.868 7.483-.808 10.846l-.302.005v.003Z"/>
  <path fill="#E7FFB8" d="M174.365 770.404c-3.285-2.724-6.173-8.152-2.528-11.538 2.443-2.168 5.885-.873 8.632-2.8 1.742-1.277 1.759-3.206.772-4.484-2.994-4.097-8.403-3.794-11.919-7.799-2.867-3.231-2.351-7.671.546-10.483 3.863-3.751 11.066-2.679 12.074-7.483 1.082-4.256-3.11-9.471-1.044-14.628 1.562-3.729 3.993-7.03 5.957-10.51 1.964-3.48 3.463-7.136 3.163-11.581-.275-2.14 3.597-3.725 4.371-1.922 2.455 4.305 6.248 6.875 10.18 9.222 4.361 2.498 10.048 4.485 10.865 8.727 1.05 3.942-7.522 9.118-2.128 13.045 3.352 2.832 8.127 1.946 11.476 4.775 2.146 1.9 1.72 4.941.126 7.32-2.493 3.853-9.967 6.989-7.014 10.955 3.289 4.47 13.02 6.207 9.102 13.777-7.472 13.733-17.596 23.73-23.063 38.29-.793 2.277-2.554 5.491-4.83 4.697-7.764-3.351-10.231-12-15.666-18.369-1.241-1.201-1.947-2.469-3.318-3.347-1.933-1.963-3.851-3.92-5.754-5.873v.009Z"/>
  <path fill="#98C246" d="M217.897 741.227c-2.954-3.968 4.52-7.102 7.014-10.955 1.596-2.378 2.019-5.423-.126-7.32-3.352-2.831-8.127-1.945-11.477-4.774-5.393-3.928 3.178-9.104 2.129-13.046-.818-4.242-6.504-6.229-10.865-8.726-3.935-2.348-7.728-4.918-10.18-9.223-.404-.939-1.645-.958-2.704-.459 0 .012.002.024.004.038.811 8.158 7.048 20.214 7.486 28.325 1.023 27.626-4.661 55.596 1.809 82.687 1.357-.809 2.395-2.873 2.954-4.472 5.463-14.561 15.588-24.56 23.062-38.291 3.918-7.569-5.812-9.307-9.102-13.776l-.004-.008Z"/>
  <path fill="#D68814" d="M175.838 787.128h52.075v36.42c0 4.78-3.878 8.661-8.657 8.661h-34.764c-4.777 0-8.657-3.879-8.657-8.661v-36.42h.003Z"/>
  <path fill="#FFE082" d="M175.838 801.718c0-8.905 52.075-8.905 52.075 0v-14.59h-52.075v14.59Z"/>
  <path fill="#BCBEC0" d="M589.348 655.151H230.353v35.713h358.995v-35.713Z"/>
  <path fill="#808285" d="M254.344 666.009a1.307 1.307 0 1 1-2.614 0 1.307 1.307 0 0 1 2.614 0Zm16.135 0a1.307 1.307 0 1 1-2.614 0 1.307 1.307 0 0 1 2.614 0Zm16.135 0a1.307 1.307 0 1 1-2.614 0 1.307 1.307 0 0 1 2.614 0Zm16.135 0a1.307 1.307 0 1 1-2.614 0 1.307 1.307 0 0 1 2.614 0Zm16.135 0a1.307 1.307 0 1 1-2.614 0 1.307 1.307 0 0 1 2.614 0Zm16.138 0a1.307 1.307 0 1 1-2.614 0 1.307 1.307 0 0 1 2.614 0Zm16.136 0c0 .721-.586 1.307-1.306 1.307a1.308 1.308 0 0 1 0-2.614c.72 0 1.306.586 1.306 1.307Zm16.135 0c0 .721-.586 1.307-1.306 1.307a1.308 1.308 0 0 1 0-2.614c.72 0 1.306.586 1.306 1.307Zm16.135 0c0 .721-.586 1.307-1.306 1.307a1.308 1.308 0 0 1 0-2.614c.72 0 1.306.586 1.306 1.307Zm16.135 0a1.307 1.307 0 1 1-2.614 0 1.307 1.307 0 0 1 2.614 0Zm16.135 0a1.307 1.307 0 1 1-2.614 0 1.307 1.307 0 0 1 2.614 0Zm16.137 0a1.307 1.307 0 1 1-2.614 0 1.307 1.307 0 0 1 2.614 0Zm16.136 0a1.307 1.307 0 1 1-2.614 0 1.307 1.307 0 0 1 2.614 0Zm16.135 0a1.307 1.307 0 1 1-2.614 0 1.307 1.307 0 0 1 2.614 0Zm16.135 0a1.307 1.307 0 1 1-2.614 0 1.307 1.307 0 0 1 2.614 0Zm16.135 0a1.307 1.307 0 1 1-2.614 0 1.307 1.307 0 0 1 2.614 0Zm16.135 0a1.307 1.307 0 1 1-2.614 0 1.307 1.307 0 0 1 2.614 0Zm16.138 0a1.307 1.307 0 1 1-2.61 0 1.307 1.307 0 0 1 2.61 0Zm16.135 0a1.307 1.307 0 1 1-2.614 0 1.307 1.307 0 0 1 2.614 0Zm16.135 0a1.307 1.307 0 1 1-2.614 0 1.307 1.307 0 0 1 2.614 0Zm16.136 0c0 .721-.586 1.307-1.307 1.307a1.308 1.308 0 0 1 0-2.614c.721 0 1.307.586 1.307 1.307Zm-322.711 11.434a1.307 1.307 0 1 1-2.614 0 1.307 1.307 0 0 1 2.614 0Zm16.135 0a1.307 1.307 0 1 1-2.614 0 1.307 1.307 0 0 1 2.614 0Zm16.136 0c0 .721-.586 1.307-1.306 1.307a1.308 1.308 0 0 1 0-2.614c.72 0 1.306.586 1.306 1.307Zm16.135 0c0 .721-.586 1.307-1.306 1.307a1.308 1.308 0 0 1 0-2.614c.72 0 1.306.586 1.306 1.307Zm16.135 0c0 .721-.586 1.307-1.306 1.307a1.308 1.308 0 0 1 0-2.614c.72 0 1.306.586 1.306 1.307Zm16.138 0c0 .721-.586 1.307-1.306 1.307a1.308 1.308 0 0 1 0-2.614c.72 0 1.306.586 1.306 1.307Zm16.135 0a1.307 1.307 0 1 1-2.614 0 1.307 1.307 0 0 1 2.614 0Zm16.135 0a1.307 1.307 0 1 1-2.614 0 1.307 1.307 0 0 1 2.614 0Zm16.135 0a1.307 1.307 0 1 1-2.614 0 1.307 1.307 0 0 1 2.614 0Zm16.135 0a1.307 1.307 0 1 1-2.614 0 1.307 1.307 0 0 1 2.614 0Zm16.135 0a1.307 1.307 0 1 1-2.614 0 1.307 1.307 0 0 1 2.614 0Zm16.138 0c0 .721-.586 1.307-1.307 1.307a1.308 1.308 0 0 1 0-2.614c.721 0 1.307.586 1.307 1.307Zm16.135 0a1.307 1.307 0 1 1-2.614 0 1.307 1.307 0 0 1 2.614 0Zm16.135 0a1.307 1.307 0 1 1-2.614 0 1.307 1.307 0 0 1 2.614 0Zm16.135 0a1.307 1.307 0 1 1-2.614 0 1.307 1.307 0 0 1 2.614 0Zm16.136 0c0 .721-.586 1.307-1.307 1.307a1.308 1.308 0 0 1 0-2.614c.721 0 1.307.586 1.307 1.307Zm16.135 0c0 .721-.586 1.307-1.306 1.307a1.308 1.308 0 0 1 0-2.614c.72 0 1.306.586 1.306 1.307Zm16.137 0a1.307 1.307 0 1 1-2.614 0 1.307 1.307 0 0 1 2.614 0Zm16.135 0a1.307 1.307 0 1 1-2.614 0 1.307 1.307 0 0 1 2.614 0Zm16.135 0a1.307 1.307 0 1 1-2.614 0 1.307 1.307 0 0 1 2.614 0Zm16.136 0a1.307 1.307 0 1 1-2.614 0 1.307 1.307 0 0 1 2.614 0Z"/>
  <path fill="#231F20" d="M328.806 500h163.908c4.634 0 8.391 3.787 8.391 8.46v102.009c0 4.673-3.757 8.46-8.391 8.46H328.806c-4.634 0-8.39-3.787-8.39-8.46V508.46c0-4.673 3.756-8.46 8.39-8.46Z"/>
  <path fill="#000" d="M398.256 614.699h25.007l6.986 28.737h25.771v3.908h-90.522v-3.908h23.154l9.604-28.737Z"/>
  <path fill="#000" d="M409.879 614.699h13.385l2.96 12.185h-32.04l4.073-12.185h11.622Z" opacity=".5"/>
  <path fill="#000" d="M328.806 501.27h163.908c4.634 0 8.391 3.788 8.391 8.46v102.01c0 4.673-3.757 8.46-8.391 8.46H328.806c-4.634 0-8.39-3.787-8.39-8.46V509.73c0-4.672 3.756-8.46 8.39-8.46Z"/>
  <path fill="#231F20" d="M328.806 504.23h163.908c2.312 0 4.197 1.897 4.197 4.23v94.895c0 2.333-1.882 4.23-4.197 4.23H328.806c-2.315 0-4.196-1.897-4.196-4.23V508.46c0-2.333 1.881-4.23 4.196-4.23Z"/>
  <path fill="#000" d="M437.573 565.945a.726.726 0 0 0-.158-.084.954.954 0 0 0-.36-.073h-2.465c-.031 0-.063 0-.094-.005a.94.94 0 0 1-.759-.559.937.937 0 0 1-.073-.36v-.809a.932.932 0 0 0-.566-.854.937.937 0 0 0-.36-.073h-7.058a.924.924 0 0 0-.924.925v.438h-1.918a.746.746 0 0 0-.745.745v.552h-.728a.924.924 0 0 0-.924.924v9.29c0 .511.414.925.924.925h15.688a.97.97 0 0 0 .36-.073.925.925 0 0 0 .566-.852v-9.29c0-.319-.162-.6-.409-.767h.003Z" opacity=".15" style="mix-blend-mode:multiply"/>
  <path fill="#fff" d="M424.465 562.988h4.165v2.43h-4.91v-1.685c0-.411.334-.745.745-.745Z"/>
  <path fill="#FFBF00" d="M435.292 563.358v-.808a.924.924 0 0 0-.924-.924h-7.058a.924.924 0 0 0-.924.924v.808a.925.925 0 0 1-.924.925h-2.465a.924.924 0 0 0-.924.924v9.29c0 .511.414.925.924.925h15.688c.51 0 .924-.414.924-.925v-9.29a.924.924 0 0 0-.924-.924h-2.465a.924.924 0 0 1-.923-.925h-.005Z"/>
  <path fill="#25355C" d="M430.686 574.667a5.418 5.418 0 0 0 5.416-5.419 5.416 5.416 0 1 0-10.831 0 5.417 5.417 0 0 0 5.415 5.419Z"/>
  <path fill="#1B7FF2" d="M434.308 569.986a3.76 3.76 0 1 0-4.46 2.894 3.76 3.76 0 0 0 4.46-2.894Z"/>
  <path fill="#fff" d="M432.453 570.925a2.403 2.403 0 0 0 0-3.398 2.4 2.4 0 0 0-3.396 0 2.4 2.4 0 1 0 3.396 3.398Z"/>
  <path fill="#000" d="m373.68 524.274 3.739 1.873v-1.909c0-.462.375-.835.835-.835h12.768c.462 0 .835.375.835.835v8.472a.835.835 0 0 1-.835.835h-12.768a.835.835 0 0 1-.835-.835v-1.909l-3.739 1.873a.578.578 0 0 1-.837-.518v-7.364c0-.431.453-.711.837-.518Z" opacity=".15" style="mix-blend-mode:multiply"/>
  <path fill="#FA6F04" d="m374.943 522.733 3.739 1.873v-1.91c0-.462.375-.834.834-.834h12.769c.462 0 .834.375.834.834v8.473a.834.834 0 0 1-.834.834h-12.769a.834.834 0 0 1-.834-.834v-1.91l-3.739 1.873a.578.578 0 0 1-.837-.518v-7.363c0-.431.452-.712.837-.518Z"/>
  <path fill="#BA5303" d="M382.588 529.49a2.891 2.891 0 1 0-.497-5.76 2.891 2.891 0 0 0 .497 5.76Z"/>
  <path fill="#fff" d="M381.031 526.578a1.281 1.281 0 1 0 2.563 0 1.282 1.282 0 1 0-2.563 0Z"/>
  <path fill="#BA5303" d="M389.372 529.479a2.891 2.891 0 1 0-.497-5.76 2.891 2.891 0 0 0 .497 5.76Z"/>
  <path fill="#fff" d="M387.808 526.578a1.282 1.282 0 1 0 2.563 0 1.281 1.281 0 1 0-2.563 0Z"/>
  <path fill="#000" d="M412.172 521.748h-11.83a.808.808 0 0 0-.808.808v11.836c0 .446.362.808.808.808h11.83a.808.808 0 0 0 .808-.808v-11.836a.808.808 0 0 0-.808-.808Z" opacity=".15" style="mix-blend-mode:multiply"/>
  <path fill="#fff" d="M414.648 521.085h-12.275v10.125h12.275v-10.125Z"/>
  <path fill="#1B7FF2" d="M414.225 520.206h-11.832a.809.809 0 0 0-.808.809v11.838c0 .445.36.808.808.808h11.832a.808.808 0 0 0 .808-.808v-11.838a.808.808 0 0 0-.808-.809Zm-.595 5.222-4.579 3.78-2.8-2.277-3.263 2.49v-7.814h10.642v3.821Z"/>
  <path fill="#2A4569" d="M409.446 526.866a2.047 2.047 0 1 0-.003-4.095 2.047 2.047 0 0 0 .003 4.095Z"/>
  <path fill="#70B3FF" d="m413.63 525.428-2.63 2.171h2.63v-2.171Zm-7.38 1.503-2.21 1.689h4.288l-2.078-1.689Z"/>
  <path fill="#fff" d="M410.614 524.753a1.132 1.132 0 1 1-2.265.001 1.132 1.132 0 0 1 2.265-.001Z"/>
  <path fill="#000" d="M433.615 522.372h-7.483a2.504 2.504 0 0 0-2.504 2.505v7.487a2.505 2.505 0 0 0 2.504 2.505h7.483a2.505 2.505 0 0 0 2.504-2.505v-7.487a2.504 2.504 0 0 0-2.504-2.505Z" opacity=".15" style="mix-blend-mode:multiply"/>
  <path fill="#FFBF00" d="M435.543 520.538h-7.483a2.504 2.504 0 0 0-2.504 2.504v7.488a2.504 2.504 0 0 0 2.504 2.504h7.483a2.503 2.503 0 0 0 2.503-2.504v-7.488a2.503 2.503 0 0 0-2.503-2.504Z"/>
  <path fill="#25355C" d="M434.788 522.631h-7.089v2.33h1.115v-1.164h2.455v5.951h-1.166v1.191h3.447v-1.191h-1.166v-5.951h2.404v1.164h1.117v-2.33h-1.117Z"/>
  <path fill="#000" d="M458.483 533.354a6.766 6.766 0 0 0 0-9.565 6.76 6.76 0 0 0-9.561 0 6.766 6.766 0 0 0 0 9.565 6.757 6.757 0 0 0 9.561 0Z" opacity=".15" style="mix-blend-mode:multiply"/>
  <path fill="#FF4D58" d="M455.631 533.598a6.762 6.762 0 0 0 6.76-6.764 6.762 6.762 0 0 0-6.76-6.763 6.762 6.762 0 0 0-6.761 6.763 6.762 6.762 0 0 0 6.761 6.764Z"/>
  <path fill="#fff" d="m456.92 522.877-1.492 1.492 2.687 2.688 1.491-1.492-2.686-2.688Zm-3.599 2.735-1.662 4.001.242.559 2.322-2.324s-.005-.017-.005-.026a.357.357 0 0 1 .712 0 .35.35 0 0 1-.342.351l-2.341 2.342.598.281 3.998-1.663.774-2.042-2.255-2.255-2.041.774v.002Z"/>
  <path fill="#000" d="M436.598 542.182h-13.354a.738.738 0 0 0-.738.738v11.959c0 .408.331.738.738.738h13.354c.407 0 .737-.33.737-.738V542.92a.737.737 0 0 0-.737-.738Z" opacity=".15" style="mix-blend-mode:multiply"/>
  <path fill="#fff" d="M438.431 540.35h-13.353a.737.737 0 0 0-.738.738v11.959c0 .408.33.738.738.738h13.353c.408 0 .738-.33.738-.738v-11.959a.737.737 0 0 0-.738-.738Z"/>
  <path fill="#D1D3D4" d="M437.986 541.453h-12.464v3.543h12.464v-3.543Zm-.194 3.349h-12.076v-3.155h12.076v3.155Zm-12.27 4.238h3.532v-3.543h-3.532v3.543Zm.194-3.35h3.144v3.158h-3.144v-3.158Zm3.309 3.802h-3.563v.187h3.563v-.187Zm0 .392h-3.563v.187h3.563v-.187Zm0 .392h-3.563v.187h3.563v-.187Zm0 .392h-3.563v.187h3.563v-.187Zm0 .392h-3.563v.187h3.563v-.187Zm0 .392h-3.563v.187h3.563v-.187Zm0 .392h-3.563v.187h3.563v-.187Zm.974-2.804h3.532v-3.543h-3.532v3.543Zm.194-3.35h3.144v3.158h-3.144v-3.158Zm3.309 3.802h-3.563v.187h3.563v-.187Zm0 .392h-3.563v.187h3.563v-.187Zm0 .392h-3.563v.187h3.563v-.187Zm0 .392h-3.563v.187h3.563v-.187Zm0 .392h-3.563v.187h3.563v-.187Zm0 .392h-3.563v.187h3.563v-.187Zm0 .392h-3.563v.187h3.563v-.187Zm.977-6.347v3.543h3.531v-3.543h-3.531Zm3.338 3.349h-3.145v-3.158h3.145v3.158Zm.162.646h-3.563v.187h3.563v-.187Zm0 .392h-3.563v.187h3.563v-.187Zm0 .392h-3.563v.187h3.563v-.187Zm0 .392h-3.563v.187h3.563v-.187Zm0 .392h-3.563v.187h3.563v-.187Zm0 .392h-3.563v.187h3.563v-.187Zm0 .392h-3.563v.187h3.563v-.187Z"/>
  <path fill="#000" d="M406.722 556.036a7.135 7.135 0 0 0 7.133-7.137 7.135 7.135 0 0 0-7.133-7.136 7.135 7.135 0 0 0-7.133 7.136 7.135 7.135 0 0 0 7.133 7.137Z" opacity=".15" style="mix-blend-mode:multiply"/>
  <path fill="#42A16A" d="M414.927 547.952a7.133 7.133 0 1 0-14.157-1.757 7.135 7.135 0 0 0 6.2 7.96 7.134 7.134 0 0 0 7.957-6.203Z"/>
  <path fill="#fff" d="m403.643 547.251 2.215.782v1.089l-3.345-1.418v-.917l3.345-1.418v1.089l-2.215.796v-.003Zm3.492 2.89h-.834l2.083-6.147h.834l-2.083 6.147Zm4.91-2.902-2.256-.789v-1.081l3.383 1.418v.912l-3.383 1.423v-1.084l2.256-.801v.002Z"/>
  <path fill="#000" d="M486.167 528.57h-.005a6.619 6.619 0 0 0-.177-1.36h.005a6.537 6.537 0 0 0-.714-1.796h.005a5.833 5.833 0 0 0-.169-.271c-.036-.058-.07-.116-.106-.172 0-.002-.003-.005-.005-.007a6.73 6.73 0 0 0-1.759-1.762l-.012-.007c-.065-.044-.133-.085-.2-.126-.08-.051-.158-.104-.24-.15v.005a6.748 6.748 0 0 0-1.388-.608 6.558 6.558 0 0 0-.407-.108v.004a6.793 6.793 0 0 0-1.357-.179v-.004c-.067 0-.135-.005-.205-.005-.07 0-.131.002-.196.005v.004a6.677 6.677 0 0 0-1.33.17v-.005a6.636 6.636 0 0 0-1.785.697v-.005a6.76 6.76 0 0 0-2.271 2.096c-.017.024-.032.053-.049.077-.08.121-.155.242-.227.368h.005a6.581 6.581 0 0 0-.702 1.786h.005a6.709 6.709 0 0 0-.174 1.355h-.005c0 .063-.005.128-.005.191 0 .07.003.141.005.208h.005c.014.455.072.9.172 1.329h-.005a6.573 6.573 0 0 0 .699 1.783h-.005c.087.153.177.303.273.448a6.795 6.795 0 0 0 1.836 1.832c.145.097.295.189.448.273v-.005a6.69 6.69 0 0 0 1.782.695v-.005a6.75 6.75 0 0 0 1.33.17v.004c.066 0 .131.005.196.005.068 0 .138-.002.206-.005v-.004a6.73 6.73 0 0 0 1.357-.18v.005a6.729 6.729 0 0 0 1.79-.714v.005c.087-.051.169-.104.251-.157.063-.039.128-.075.189-.119a6.836 6.836 0 0 0 1.78-1.786l.002-.004.083-.131c.065-.104.133-.206.196-.315h-.005c.249-.435.452-.897.6-1.389.041-.133.075-.268.106-.406h-.005c.102-.431.16-.876.174-1.334h.005c0-.07.005-.14.005-.21 0-.065-.002-.128-.005-.191l.003.005Z" opacity=".15" style="mix-blend-mode:multiply"/>
  <path fill="#1B7FF2" d="M487.57 527.018a6.742 6.742 0 0 0-6.355-7.106 6.74 6.74 0 0 0-7.101 6.358 6.74 6.74 0 1 0 13.456.748Z"/>
  <path fill="#fff" d="M485.642 524.857a35.85 35.85 0 0 1 1.756.238 5.927 5.927 0 0 0-.109-.407 27.893 27.893 0 0 0-1.717-.295c-.1-.615-.167-.922-.334-1.537.592.157.938.261 1.449.445a7.959 7.959 0 0 0-.281-.452c-.44-.179-.769-.293-1.301-.458a13.87 13.87 0 0 0-.46-1.309 6.989 6.989 0 0 0-.452-.283c.184.516.29.862.447 1.459a12.551 12.551 0 0 0-1.536-.334 26.55 26.55 0 0 0-.297-1.727c-.133-.042-.268-.075-.406-.109.104.665.157 1.052.239 1.769-.626-.08-.938-.104-1.565-.114-.009-.743-.017-1.14-.029-1.834-.068 0-.138-.005-.205-.005-.068 0-.131.002-.196.005a291.76 291.76 0 0 0-.034 1.836 12.01 12.01 0 0 0-1.536.112c.082-.719.133-1.106.239-1.777a8 8 0 0 0-.404.107c-.13.653-.195 1.033-.299 1.737-.615.1-.922.167-1.536.334.159-.605.266-.955.457-1.483a6.406 6.406 0 0 0-.448.276c-.188.462-.304.794-.471 1.343-.554.169-.886.285-1.352.477-.1.145-.189.295-.276.447.534-.193.885-.3 1.495-.459-.167.614-.235.922-.334 1.536-.711.104-1.091.17-1.754.303a5.575 5.575 0 0 0-.106.404c.682-.109 1.069-.16 1.795-.242-.08.627-.102.939-.114 1.565-.75.01-1.147.017-1.855.03 0 .062-.005.128-.005.191 0 .07.002.14.005.208.708.014 1.105.022 1.855.034.012.614.034.922.111 1.536a35.983 35.983 0 0 1-1.795-.242c.032.136.068.271.107.404.663.136 1.045.201 1.756.303.099.615.167.922.334 1.537a15.872 15.872 0 0 1-1.5-.463c.087.153.177.303.276.448.469.194.803.31 1.359.479.169.554.286.886.477 1.353.145.097.295.189.447.273-.193-.534-.3-.883-.459-1.493.614.167.921.235 1.535.334.104.707.17 1.089.3 1.747a8 8 0 0 0 .404.107 36.858 36.858 0 0 1-.242-1.786c.615.08.922.102 1.536.111.012.746.02 1.143.034 1.844.065 0 .131.005.196.005.068 0 .138-.002.206-.005.012-.701.019-1.098.029-1.841.626-.01.938-.032 1.565-.114a36.463 36.463 0 0 1-.24 1.776c.136-.031.271-.067.404-.109.131-.651.196-1.031.3-1.735.614-.099.921-.167 1.536-.334-.157.6-.264.949-.45 1.469.155-.089.305-.181.452-.283.184-.448.298-.779.462-1.319.537-.164.866-.278 1.311-.46.099-.145.191-.297.281-.45-.513.184-.861.291-1.456.448.167-.615.234-.922.333-1.537a27.798 27.798 0 0 0 1.718-.295c.041-.133.075-.268.106-.406-.66.104-1.045.157-1.758.237.08-.615.101-.922.111-1.537.738-.012 1.134-.019 1.821-.034 0-.07.005-.14.005-.21a3.92 3.92 0 0 0-.005-.191c-.687-.013-1.083-.02-1.821-.03-.01-.626-.031-.938-.114-1.565l.003-.003Zm-9.041-.055c.691-.07 1.037-.099 1.729-.141a25.225 25.225 0 0 0-.06 1.738c-.709.005-1.062.007-1.771.017.01-.646.029-.971.099-1.617l.003.003Zm0 3.68c-.071-.634-.09-.951-.1-1.585.709.01 1.062.015 1.771.02.005.682.017 1.023.058 1.706a33.463 33.463 0 0 1-1.729-.141Zm.355 2.065c-.15-.634-.208-.951-.297-1.585.682.089 1.023.123 1.705.176.053.683.087 1.024.176 1.706-.633-.089-.95-.147-1.584-.297Zm1.41-6.401a26.62 26.62 0 0 0-1.705.177c.09-.634.148-.951.298-1.585.633-.15.95-.209 1.584-.298-.09.682-.124 1.024-.177 1.706Zm.486.486a32.222 32.222 0 0 1 1.73-.046c-.005.721-.005 1.084-.007 1.806-.709 0-1.062 0-1.771.004.005-.704.015-1.057.048-1.764Zm-.046 2.287c.709.005 1.062.007 1.771.007 0 .709 0 1.063.007 1.772a38.372 38.372 0 0 1-1.729-.046 31.215 31.215 0 0 1-.046-1.73l-.003-.003Zm.216 3.983a35.99 35.99 0 0 1-.141-1.73c.683.041 1.024.053 1.706.061.004.709.009 1.062.019 1.771-.634-.01-.951-.029-1.584-.099v-.003Zm1.565-6.853c-.682.005-1.023.017-1.706.061.042-.692.071-1.039.141-1.731.633-.07.95-.089 1.584-.099-.01.709-.015 1.063-.019 1.772v-.003Zm2.114-1.67c.07.692.099 1.039.14 1.731a27.239 27.239 0 0 0-1.737-.061c-.005-.709-.007-1.062-.017-1.771.646.009.97.029 1.616.101h-.002Zm0 8.523c-.646.073-.97.092-1.616.102.01-.709.012-1.062.017-1.771a25.813 25.813 0 0 0 1.736-.061c-.041.692-.07 1.038-.14 1.73h.003Zm.166-2.253c-.703.034-1.057.044-1.763.046.005-.709.005-1.062.005-1.771.721 0 1.081 0 1.804-.007a35.673 35.673 0 0 1-.046 1.73v.002Zm-1.756-2.26c0-.721 0-1.082-.004-1.805.703.005 1.057.014 1.763.048.034.705.043 1.058.048 1.764-.721-.004-1.083-.004-1.804-.004l-.003-.003Zm3.653-3.654c.15.634.208.951.297 1.585a27.355 27.355 0 0 0-1.705-.176 26.682 26.682 0 0 0-.177-1.707c.634.09.951.148 1.585.298Zm0 7.809c-.634.15-.951.208-1.585.298.09-.683.124-1.024.177-1.706a26.62 26.62 0 0 0 1.705-.177c-.089.634-.147.951-.297 1.585Zm.355-2.064c-.691.07-1.037.099-1.729.14.041-.682.053-1.023.058-1.706a208.45 208.45 0 0 0 1.77-.019 13.82 13.82 0 0 1-.099 1.585Zm-1.671-2.081a25.872 25.872 0 0 0-.061-1.738 35.99 35.99 0 0 1 1.73.141c.072.646.092.97.099 1.616a261.74 261.74 0 0 0-1.77-.017l.002-.002Z"/>
  <path fill="#000" d="m391.394 552.428.066-.013-.071-.399-.004-.406h-.066l-.466-2.633-.499.089v-.007l-1.018.179.948-.411v-.008l.462-.2-1.388-3.204-.465.2v-.007l-.534.23.467-.343-.005-.005.406-.3-2.073-2.81-.406.3-.005-.005-1.478 1.092-.225.164-1.274.942-.428.317-1.756 1.297-.791.583-1.585 1.171-1.03.762-1.458 1.077-.337.25-1.61 1.19.004.005-.938.692a.865.865 0 0 0-.181 1.212l.338.458.007.568c.008.48.4.862.878.855h.071c.048.002.096 0 .147-.003l.948-.012v.007l7.351-.094 1.18-.014h.203l1.846-.027 2.184-.029 2.116-.027v-.007l.506-.007-.034-2.674-.003.005Z" opacity=".15" style="mix-blend-mode:multiply"/>
  <path fill="#fff" d="m392.446 553.372-.046-3.492-16.551.213a.865.865 0 0 0-.854.878l.022 1.759a.866.866 0 0 0 .878.855l16.551-.213Z"/>
  <path fill="#fff" d="m391.946 553.389-.045-3.506-14.879.192.045 3.506 14.879-.192Z"/>
  <path fill="#007539" d="m379.205 550.037-2.184.028.046 3.506 2.183-.028-.045-3.506Z"/>
  <path fill="#218B52" d="m381.319 550.01-2.184.028.045 3.506 2.184-.028-.045-3.506Z"/>
  <path fill="#42A16A" d="m383.437 549.982-2.184.028.045 3.507 2.184-.029-.045-3.506Z"/>
  <path fill="#63B883" d="m385.553 549.955-2.184.028.045 3.506 2.184-.028-.045-3.506Z"/>
  <path fill="#83CE9C" d="m387.669 549.928-2.184.028.045 3.506 2.184-.028-.045-3.506Z"/>
  <path fill="#A4E4B4" d="m389.784 549.9-2.184.028.046 3.507 2.184-.029-.046-3.506Z"/>
  <path fill="#C5FACD" d="m391.902 549.873-2.183.028.045 3.506 2.184-.028-.046-3.506Z"/>
  <path fill="#BCBEC0" d="M375.975 552.302a.468.468 0 0 0 .46-.472.468.468 0 0 0-.472-.46.468.468 0 0 0-.46.472.468.468 0 0 0 .472.46Z"/>
  <path fill="#fff" d="m392.478 550.685-.61-3.438-16.299 2.889a.864.864 0 0 0-.702 1.004l.307 1.733a.865.865 0 0 0 1.004.702l16.3-2.89Z"/>
  <path fill="#fff" d="m391.957 550.767-.611-3.453-14.652 2.596.611 3.452 14.652-2.595Z"/>
  <path fill="#F7941E" d="m378.856 549.565-2.15.381.611 3.453 2.15-.381-.611-3.453Z"/>
  <path fill="#F8A536" d="m380.939 549.196-2.15.381.611 3.452 2.15-.381-.611-3.452Z"/>
  <path fill="#FAB64D" d="m383.022 548.828-2.15.381.611 3.453 2.15-.381-.611-3.453Z"/>
  <path fill="#FBC765" d="m385.105 548.458-2.15.381.611 3.453 2.15-.381-.611-3.453Z"/>
  <path fill="#FCD87C" d="m387.19 548.088-2.15.381.611 3.453 2.15-.381-.611-3.453Z"/>
  <path fill="#FEE993" d="m389.273 547.721-2.15.381.611 3.453 2.15-.381-.611-3.453Z"/>
  <path fill="#FFFAAB" d="m391.356 547.351-2.15.381.611 3.453 2.15-.381-.611-3.453Z"/>
  <path fill="#BCBEC0" d="M376.05 552.295a.466.466 0 1 0-.164-.917.466.466 0 0 0 .164.917Z"/>
  <path fill="#fff" d="m391.762 546.888-1.388-3.204-15.187 6.59a.867.867 0 0 0-.45 1.14l.699 1.614a.866.866 0 0 0 1.139.45l15.187-6.59Z"/>
  <path fill="#fff" d="m391.283 547.094-1.394-3.217-13.652 5.922 1.394 3.217 13.652-5.922Z"/>
  <path fill="#D1224A" d="m378.254 548.946-2.004.869 1.394 3.218 2.004-.87-1.394-3.217Z"/>
  <path fill="#D93C5C" d="m380.197 548.105-2.004.869 1.394 3.217 2.004-.869-1.394-3.217Z"/>
  <path fill="#E0556F" d="m382.135 547.264-2.004.87 1.394 3.217 2.004-.87-1.394-3.217Z"/>
  <path fill="#E86F81" d="m384.078 546.42-2.004.87 1.395 3.217 2.003-.869-1.394-3.218Z"/>
  <path fill="#F08993" d="m386.021 545.579-2.004.869 1.394 3.217 2.004-.869-1.394-3.217Z"/>
  <path fill="#F7A2A6" d="m387.96 544.739-2.004.869 1.394 3.217 2.004-.869-1.394-3.217Z"/>
  <path fill="#FFBCB8" d="m389.903 543.897-2.004.869 1.394 3.217 2.004-.869-1.394-3.217Z"/>
  <path fill="#BCBEC0" d="M376.154 552.265a.466.466 0 0 0-.37-.854.466.466 0 0 0 .37.854Z"/>
  <path fill="#fff" d="m390.243 543.459-2.073-2.809-13.315 9.839a.867.867 0 0 0-.181 1.213l1.045 1.415a.866.866 0 0 0 1.212.182l13.314-9.84h-.002Z"/>
  <path fill="#fff" d="m389.843 543.767-2.082-2.82-11.969 8.845 2.082 2.82 11.969-8.845Z"/>
  <path fill="#285B63" d="m377.545 548.491-1.757 1.299 2.083 2.82 1.756-1.298-2.082-2.821Z"/>
  <path fill="#306A7D" d="m379.249 547.232-1.757 1.298 2.082 2.821 1.757-1.299-2.082-2.82Z"/>
  <path fill="#387A97" d="m380.948 545.974-1.757 1.298 2.082 2.82 1.757-1.298-2.082-2.82Z"/>
  <path fill="#4189B1" d="m382.652 544.716-1.757 1.299 2.082 2.82 1.757-1.298-2.082-2.821Z"/>
  <path fill="#4998CB" d="m384.354 543.459-1.757 1.298 2.082 2.82 1.757-1.298-2.082-2.82Z"/>
  <path fill="#51A8E5" d="m386.058 542.199-1.757 1.298 2.082 2.821 1.757-1.299-2.082-2.82Z"/>
  <path fill="#59B7FF" d="M387.757 540.943 386 542.241l2.082 2.821 1.757-1.298-2.082-2.821Z"/>
  <path fill="#BCBEC0" d="M376.243 552.212a.466.466 0 1 0-.554-.748.466.466 0 0 0 .554.748Z"/>
  <path fill="#000" d="M386.137 584.811h-.924v-.453a.589.589 0 0 0-1.176 0v.453h-4.89v-.453a.589.589 0 0 0-1.176 0v.453h-1.393c-.617 0-1.115.501-1.115 1.116v9.367c0 .726.588 1.316 1.316 1.316h9.164c.726 0 1.316-.59 1.316-1.316v-9.367c0-.618-.498-1.116-1.115-1.116h-.007Z" opacity=".15" style="mix-blend-mode:multiply"/>
  <path fill="#FF4D58" d="M387.563 583.308h-9.162c-.726 0-1.316.59-1.316 1.317v9.166c0 .727.59 1.317 1.316 1.317h9.162c.727 0 1.316-.59 1.316-1.317v-9.166c0-.727-.589-1.317-1.316-1.317Z"/>
  <path fill="#9C2F36" d="M387.764 583.308H378.2c-.616 0-1.115.501-1.115 1.116v2.224h11.794v-2.224c0-.617-.501-1.116-1.115-1.116Z"/>
  <path fill="#fff" d="M380.181 582.268a.587.587 0 0 0-.587.588v1.118a.588.588 0 0 0 1.175 0v-1.118a.588.588 0 0 0-.588-.588Zm6.656.588a.587.587 0 1 0-1.175 0v1.12a.588.588 0 1 0 1.175 0v-1.12Zm-7.596 5.645h7.394a.388.388 0 0 0 0-.774h-7.394a.388.388 0 0 0 0 .774Zm7.394 3.572h-7.394a.388.388 0 0 0 0 .775h7.394a.388.388 0 0 0 0-.775Zm0-2.173h-7.394a.388.388 0 0 0 0 .774h7.394a.388.388 0 0 0 0-.774Z"/>
  <path fill="#000" d="M409.018 582.5h-5.974a1.58 1.58 0 0 0-1.58 1.58v11.725c0 .872.707 1.58 1.58 1.58h5.974a1.58 1.58 0 0 0 1.579-1.58V584.08a1.58 1.58 0 0 0-1.579-1.58Z" opacity=".15" style="mix-blend-mode:multiply"/>
  <path fill="#fff" d="M410.27 581.246h-5.974a1.58 1.58 0 0 0-1.579 1.581v11.724c0 .873.707 1.58 1.579 1.58h5.974a1.58 1.58 0 0 0 1.58-1.58v-11.724c0-.873-.708-1.581-1.58-1.581Z"/>
  <path fill="#25355C" d="M411.849 583.185h-9.133v.251h9.133v-.251Zm-3.485-.673h-2.162a.28.28 0 1 1 0-.561h2.162a.28.28 0 1 1 0 .561Z"/>
  <path fill="#1B7FF2" d="M408.054 594.977h-1.545a.58.58 0 1 1 0-1.162h1.545a.58.58 0 1 1 0 1.162Z"/>
  <path fill="#000" d="M460.158 565.093h-.198v-1.65h-14.338v1.312h-.273a.454.454 0 0 0-.455.455v11.443c0 .252.203.455.455.455h14.887a.455.455 0 0 0 .455-.455v-11.032a.53.53 0 0 0-.53-.53l-.003.002Z" opacity=".15" style="mix-blend-mode:multiply"/>
  <path fill="#9E7747" d="M462.036 563.339h-14.737a.53.53 0 0 0-.53.53v9.639a.53.53 0 0 0 .53.529h14.737a.53.53 0 0 0 .53-.529v-9.639a.53.53 0 0 0-.53-.53Z"/>
  <path fill="#fff" d="M461.835 561.691h-14.338v10.699h14.338v-10.699Z"/>
  <path fill="#CC995C" d="M453.29 564.203v-.745a.454.454 0 0 0-.455-.455h-5.611a.454.454 0 0 0-.455.455v11.443c0 .252.203.455.455.455h14.887a.455.455 0 0 0 .455-.455v-9.788a.455.455 0 0 0-.455-.455h-8.366a.454.454 0 0 1-.455-.455Z"/>
  <path fill="#ED1C24" d="M460.626 562.664v.489h-1.2v-.489h1.2Zm.241-.242h-1.685v.975h1.685v-.975Z"/>
  <path fill="#000" d="M436.46 586.476s-.002-.019-.005-.029a.466.466 0 0 0-.012-.065l-.007-.032c-.005-.022-.012-.041-.019-.063l-.01-.026a.703.703 0 0 0-.087-.16c-.005-.007-.012-.015-.017-.024-.012-.017-.027-.034-.039-.049l-.021-.024-.046-.044-.022-.019a.842.842 0 0 0-.165-.109c-.007-.005-.017-.007-.024-.012a.707.707 0 0 0-.101-.039c-.034-.009-.071-.019-.107-.024a.849.849 0 0 0-.14-.014h-3.111v-.983a.75.75 0 0 0-.747-.748h-5.336a.75.75 0 0 0-.747.748v.983h-3.408a.832.832 0 0 0-.832.832v9.218c0 .459.373.832.832.832h13.349a.55.55 0 0 0 .14-.015c.036-.007.073-.014.107-.024.033-.009.067-.024.101-.038.007-.005.017-.008.024-.013a.757.757 0 0 0 .165-.108c.007-.008.014-.013.022-.02l.046-.043c.007-.008.014-.015.021-.025a.431.431 0 0 0 .039-.048l.017-.022a.762.762 0 0 0 .087-.159c.002-.01.007-.02.01-.027a.52.52 0 0 0 .019-.063l.007-.031c.005-.022.01-.044.012-.066 0-.009.003-.019.005-.029a.624.624 0 0 0 .008-.097v-9.217a.443.443 0 0 0-.008-.097v-.007Zm-10.02-.736v-.731h5.335v.731h-5.335Z" opacity=".15" style="mix-blend-mode:multiply"/>
  <path fill="#F1F2F2" d="M433.655 588.421h-5.336a.749.749 0 0 1-.747-.747v-4.542a.75.75 0 0 1 .747-.748h5.336a.75.75 0 0 1 .747.748v4.542a.749.749 0 0 1-.747.747Zm-5.336-5.289v4.542h5.336v-4.542h-5.336Z"/>
  <path fill="#1B7FF2" d="M424.164 584.112h13.348c.46 0 .832.372.832.832v9.215c0 .46-.372.833-.832.833h-13.348a.832.832 0 0 1-.832-.833v-9.217c0-.46.372-.833.832-.833v.003Z"/>
  <path fill="#54A4FF" d="M438.345 588.593h-15.013v.547h15.013v-.547Z"/>
  <path fill="#0060CF" d="M438.344 588.046h-15.012v.547h15.012v-.547Z"/>
  <path fill="#0060CF" d="M429.874 586.057h1.93c.206 0 .373.167.373.373v3.531a.376.376 0 0 1-.375.375h-1.93a.373.373 0 0 1-.373-.373v-3.531c0-.205.167-.372.373-.372l.002-.003Z"/>
  <path fill="#fff" d="M431.4 587.003h-1.122a.219.219 0 0 0-.218.218v2.2c0 .12.098.218.218.218h1.122c.12 0 .218-.098.218-.218v-2.2a.219.219 0 0 0-.218-.218Z"/>
  <path fill="#FFF200" d="M430.06 588.32v1.098c0 .121.097.218.218.218h1.122a.217.217 0 0 0 .218-.218v-1.098h-1.558Z"/>
  <path fill="#0060CF" d="M428.319 582.384h-.01v1.517h.01v-.52h5.336v.52-1.517h-5.336Z"/>
  <path fill="#fff" d="M425.581 588.617a.422.422 0 1 1-.844 0 .422.422 0 0 1 .844 0Zm10.727 0a.422.422 0 1 1-.844 0 .422.422 0 0 1 .844 0Z"/>
  <path fill="#000" d="M472.47 583.591h11.832c.445 0 .808.361.808.809v11.838a.808.808 0 0 1-.808.808H472.47a.808.808 0 0 1-.808-.808V584.4c0-.446.36-.809.808-.809Z" opacity=".15" style="mix-blend-mode:multiply"/>
  <path fill="#FFBF00" d="M486.055 581.963h-11.832a.808.808 0 0 0-.808.808v11.838c0 .445.361.808.808.808h11.832c.445 0 .808-.36.808-.808v-11.838a.808.808 0 0 0-.808-.808Z"/>
  <path fill="#25355C" d="M483.936 585.544h-7.812v.501h7.812v-.501Zm0 2.824h-7.812v.501h7.812v-.501Zm0 2.822h-7.812v.501h7.812v-.501Z"/>
  <path fill="#1B7FF2" d="M478.917 585.779a.838.838 0 1 1-1.678 0 .838.838 0 1 1 1.678 0Zm3.232 2.838a.84.84 0 1 1-1.68 0 .84.84 0 0 1 1.68 0Zm-1.173 2.825a.84.84 0 1 1-1.679 0 .84.84 0 0 1 1.679 0Z"/>
  <path fill="#000" d="M483.789 554.892a7.472 7.472 0 0 0 0-10.564 7.462 7.462 0 0 0-10.559 0 7.472 7.472 0 0 0 0 10.564 7.462 7.462 0 0 0 10.559 0Z" opacity=".15" style="mix-blend-mode:multiply"/>
  <path fill="#1B7FF2" d="M485.419 553.266a7.473 7.473 0 0 0 0-10.565 7.464 7.464 0 0 0-10.559 0 7.473 7.473 0 0 0 0 10.565 7.464 7.464 0 0 0 10.559 0Z"/>
  <path fill="#25355C" d="M476.661 544.253v7.461h7.457v-5.385l-2.075-2.076h-5.382Z"/>
  <path fill="#1B7FF2" d="m478.345 548.544.948.334v.464l-1.432-.607v-.392l1.432-.608v.465l-.948.341v.003Zm1.869 1.236h-.358l.891-2.63h.357l-.89 2.63Zm2.225-1.241-.965-.339v-.462l1.449.607v.39l-1.449.61v-.465l.965-.344v.003Z"/>
  <path fill="#425FA6" d="M482.045 544.253v2.028h2.076l-2.076-2.028Z"/>
  <path fill="#000" d="M457.261 542.591h-8.444a2.796 2.796 0 0 0-2.796 2.797v8.448a2.796 2.796 0 0 0 2.796 2.797h8.444a2.8 2.8 0 0 0 1.33-.336 2.767 2.767 0 0 0 .735-.578 2.779 2.779 0 0 0 .726-1.881v-8.448a2.797 2.797 0 0 0-2.796-2.797l.005-.002Z" opacity=".15" style="mix-blend-mode:multiply"/>
  <path fill="#42A16A" d="M458.886 540.964h-8.441a2.797 2.797 0 0 0-2.796 2.798v8.445a2.797 2.797 0 0 0 2.796 2.798h8.441a2.797 2.797 0 0 0 2.796-2.798v-8.445a2.797 2.797 0 0 0-2.796-2.798Z"/>
  <path fill="#2D6B47" d="M460.076 546.281a8.17 8.17 0 0 0-8.148 8.724h6.961a2.797 2.797 0 0 0 2.796-2.798v-5.766a8.19 8.19 0 0 0-1.609-.162v.002Z"/>
  <path fill="#42A16A" d="M455.602 547.13a1.42 1.42 0 1 1-2.008 2.007 1.42 1.42 0 0 1 2.008-2.007Z"/>
  <path fill="#fff" d="M454.598 550.054c-.491 0-.982-.187-1.357-.562a1.925 1.925 0 0 1 0-2.715 1.922 1.922 0 0 1 2.714 0c.747.75.747 1.967 0 2.715a1.913 1.913 0 0 1-1.357.562Zm0-2.839a.925.925 0 0 0-.651.269.922.922 0 0 0 0 1.299.92.92 0 0 0 1.299 0 .92.92 0 0 0-.65-1.568h.002Z"/>
  <path fill="#fff" d="m457.918 544.554-2.239 2.24.265.266 2.239-2.24-.265-.266Z"/>
  <path fill="#fff" d="m458.168 543.606-.927.928.927.927.927-.927-.927-.928Zm-5.017 5.647-2.238 2.24.265.265 2.238-2.24-.265-.265Z"/>
  <path fill="#fff" d="m450.91 552.703.927-.927-.927-.928-.927.928.927.927Z"/>
  <path fill="#000" d="M407.443 577.583a7.47 7.47 0 0 0 5.91-8.755 7.467 7.467 0 1 0-14.66 2.841 7.467 7.467 0 0 0 8.75 5.914Z" opacity=".15" style="mix-blend-mode:multiply"/>
  <path fill="#1B7FF2" d="M408.619 575.969a7.47 7.47 0 0 0 6.161-8.58 7.467 7.467 0 1 0-14.737 2.417 7.467 7.467 0 0 0 8.576 6.163Z"/>
  <path fill="#25355C" d="M410.517 565.495v6.227h-6.224v-6.227h6.224Zm.626-.627h-7.474v7.478h7.474v-7.478Z" opacity=".5"/>
  <path fill="#25355C" d="M411.143 568.377h-7.266v.627h7.266v-.627Z"/>
  <path fill="#25355C" d="M407.721 564.997h-.627v7.349h.627v-7.349Z"/>
  <path fill="#000" d="M476.139 563.426h3.962a4.746 4.746 0 0 1 4.743 4.746v3.963a4.746 4.746 0 0 1-4.743 4.746h-3.962a4.746 4.746 0 0 1-4.743-4.746v-3.963a4.746 4.746 0 0 1 4.743-4.746Z" opacity=".15" style="mix-blend-mode:multiply"/>
  <path fill="#FF4D58" d="M481.852 561.797h-3.96a4.745 4.745 0 0 0-4.743 4.746v3.961a4.745 4.745 0 0 0 4.743 4.746h3.96a4.745 4.745 0 0 0 4.743-4.746v-3.961a4.745 4.745 0 0 0-4.743-4.746Z"/>
  <path fill="#fff" d="m481.67 568.583 1.604-1.604.544-.545a.692.692 0 0 0 0-.982l-.902-.903a.703.703 0 0 0-.985 0l-.544.544-1.603 1.605-2.397-2.398-1.764 1.764 2.397 2.398-1.1 1.101-.866.866-.552 2.413 2.475-.564.109-.109 1.821-1.822 2.448 2.449 1.763-1.764-2.448-2.449Zm.571-3.729a.268.268 0 0 1 .37 0l.902.902a.267.267 0 0 1 .078.187.26.26 0 0 1-.078.186l-.392.392-1.272-1.273.392-.392v-.002Zm-4.45 2.763-.344-.341.319-.319-.307-.308-.319.32-.344-.341.32-.32-.307-.307-.32.319-.254-.254 1.149-1.149 2.09 2.091-1.149 1.149-.23-.23.32-.319-.308-.308-.319.32.003-.003Zm-1.783 4.722.239-1.169.965.927-1.204.242Zm1.913-.62-1.272-1.273.268-.268 1.27 1.27-.268.269.002.002Zm1.831-1.832-1.255 1.256-1.272-1.273 1.255-1.256 1.456-1.456 1.604-1.605 1.272 1.273-1.604 1.604-1.456 1.457Zm2.242 1.936.319-.319-.307-.308-.319.32-.343-.344.319-.319-.307-.308-.32.32-.343-.344.319-.319-.307-.307-.319.319-.174-.174 1.149-1.15 2.14 2.142-1.149 1.149-.36-.36.002.002Zm1.045-.965a.268.268 0 0 0-.193-.08.27.27 0 0 0-.194.08.273.273 0 1 0 .387 0Z"/>
  <path fill="#000" d="m389.138 569.989-1.146-.663.989-.571c.651-.375.721-.944.157-1.271l-5.865-3.388c-.564-.326-1.548-.285-2.199.092l-5.403 3.122c-.651.375-.721.944-.157 1.271l1.146.663-.989.571c-.651.375-.721.943-.157 1.27l1.146.663-.989.571c-.651.375-.721.944-.157 1.271l5.865 3.388c.564.326 1.548.285 2.199-.092l5.403-3.122c.651-.375.721-.944.157-1.27l-1.146-.664.989-.571c.651-.375.721-.943.157-1.27Z" opacity=".15" style="mix-blend-mode:multiply"/>
  <path fill="#FF4D58" d="m382.627 575.223-5.865-3.388c-.564-.326-.494-.895.157-1.27l5.403-3.122c.651-.375 1.635-.416 2.199-.092l5.865 3.388c.564.327.494.895-.157 1.271l-5.403 3.121c-.651.375-1.636.416-2.199.092Z"/>
  <path fill="#1B7FF2" d="m382.627 572.719-5.865-3.388c-.564-.327-.494-.896.157-1.271l5.403-3.121c.651-.375 1.635-.417 2.199-.092l5.865 3.388c.564.326.494.895-.157 1.27l-5.403 3.122c-.651.375-1.636.416-2.199.092Z"/>
  <path fill="#FFBF00" d="m382.627 570.214-5.865-3.388c-.564-.327-.494-.895.157-1.27l5.403-3.122c.651-.375 1.635-.416 2.199-.092l5.865 3.388c.564.327.494.895-.157 1.27l-5.403 3.122c-.651.375-1.636.416-2.199.092Z"/>
  <path fill="#000" d="M458.753 586.686c-.121-2.749-2.399-4.953-5.149-4.987a5.22 5.22 0 0 0-4.847 7.308v.005c.169.38.379.736.626 1.062l3.299 5.619a.995.995 0 0 0 1.717 0l3.3-5.619c.246-.326.457-.682.624-1.062v-.005h.002a5.233 5.233 0 0 0 .431-2.321h-.003Z" opacity=".15" style="mix-blend-mode:multiply"/>
  <path fill="#FF4D58" d="M459.701 587.754a5.238 5.238 0 0 0 .431-2.321c-.121-2.749-2.4-4.954-5.15-4.988a5.22 5.22 0 0 0-4.847 7.309v.004c.17.38.38.736.627 1.063l3.299 5.619a.995.995 0 0 0 1.717 0l3.299-5.619c.247-.327.457-.683.624-1.063v-.004Z"/>
  <path fill="#fff" d="M456.93 585.421a2.016 2.016 0 1 1-4.031 0 2.016 2.016 0 0 1 4.031 0Z"/>
  <path fill="#6D6E71" d="M492.714 504.23H328.806c-2.315 0-4.196 1.897-4.196 4.23v4.772h172.298v-4.772c0-2.333-1.882-4.23-4.196-4.23h.002Z"/>
  <path fill="#F3595F" d="M332.758 508.731c0 .535-.464.966-1.04.966-.576 0-1.04-.434-1.04-.966s.464-.965 1.04-.965c.576 0 1.04.433 1.04.965Z"/>
  <path fill="#FDE555" d="M336.469 508.731c0 .535-.465.966-1.04.966-.576 0-1.04-.434-1.04-.966s.464-.965 1.04-.965c.575 0 1.04.433 1.04.965Z"/>
  <path fill="#29A764" d="M340.181 508.731c0 .535-.464.966-1.04.966-.576 0-1.04-.434-1.04-.966s.464-.965 1.04-.965c.576 0 1.04.433 1.04.965Z"/>
  <path fill="#fff" d="M492.714 504.23h-18.3l-60.782 103.355h79.082c2.312 0 4.196-1.897 4.196-4.23V508.46c0-2.333-1.881-4.23-4.196-4.23Z" opacity=".15"/>
  <path fill="#231F20" d="M456.02 647.344h-90.522v2.485h90.522v-2.485Z"/>
  <path fill="#fff" d="M410.807 610.3c1.674 0 3.031 1.367 3.031 3.054 0 1.687-1.357 3.054-3.031 3.054-1.673 0-3.028-1.367-3.028-3.054 0-1.687 1.357-3.054 3.028-3.054Z"/>
  <path fill="#58595B" d="M362.552 523.427v75.141h-29.879v-75.141h29.879Zm.379-.38h-30.64v75.904h30.64v-75.904Z"/>
  <path fill="#FF4D58" d="M353.173 535.295a6.329 6.329 0 1 0-12.336-2.845 6.329 6.329 0 1 0 12.336 2.845Z"/>
  <path fill="#1B7FF2" d="M350.807 533.881a3.797 3.797 0 0 1-3.795 3.797 3.797 3.797 0 0 1 0-7.594 3.799 3.799 0 0 1 3.795 3.797Z"/>
  <path fill="#FFBF00" d="M347.012 535.863a1.981 1.981 0 1 0 0-3.963 1.981 1.981 0 0 0 0 3.963Z"/>
  <path fill="#BCBEC0" d="M351.757 545.937h-13.494v1.152h13.494v-1.152Zm5.222 2.52h-18.716v1.151h18.716v-1.151Z"/>
  <path fill="#FF4D58" d="M351.757 551.273h-13.494v1.152h13.494v-1.152Z"/>
  <path fill="#BCBEC0" d="M356.979 553.792h-18.716v1.152h18.716v-1.152Zm-5.222 6.169h-13.494v1.152h13.494v-1.152Zm5.222 2.517h-18.716v1.151h18.716v-1.151Zm-5.222 2.819h-13.494v1.152h13.494v-1.152Zm5.222 2.516h-18.716v1.152h18.716v-1.152Z"/>
  <path fill="#FFBF00" d="M351.757 573.984h-13.494v1.152h13.494v-1.152Z"/>
  <path fill="#BCBEC0" d="M356.979 576.501h-18.716v1.152h18.716v-1.152Zm-5.222 2.819h-13.494v1.152h13.494v-1.152Zm0 9.796h-13.494v1.152h13.494v-1.152Zm-7.725 2.853h-5.769v1.413h5.769v-1.413Zm12.947-10.132h-18.716v1.152h18.716v-1.152Z"/>
  <path fill="#fff" d="M288.331 583.509c0 5.433 4.4 9.837 9.832 9.837s9.835-4.404 9.835-9.837-4.403-9.837-9.835-9.837c-5.432 0-9.832 4.404-9.832 9.837Z"/>
  <path fill="#D68814" d="m258.939 642.037-8.061-41.46 30.964-33.26-1.623-2.279-32.594 34.527 8.153 42.029 3.161.443Z"/>
  <path fill="#000" d="m278.272 567.102-3.621 3.833h3.821l1.246-1.336-1.446-2.497Zm-29.039 40.759 2.474-3.02-.154-.794-3.106-.245.786 4.059Z"/>
  <path fill="#fff" d="M267.866 647.252c0 .223.179.404.404.404h5.346a.405.405 0 0 0 .404-.404v-4.036a.403.403 0 0 0-.404-.402h-5.346a.405.405 0 0 0-.404.402v4.036Z"/>
  <path fill="#D68814" d="M257.36 643.434c13.169 0 23.843 3.075 23.843 8.583h-47.689c0-5.51 10.676-8.583 23.846-8.583Zm20.167-73.382a5.052 5.052 0 1 0 7.011-7.275 5.052 5.052 0 0 0-7.011 7.275Z"/>
  <path fill="#000" d="M279.338 568.172c.97.934 2.516.907 3.449-.066a2.435 2.435 0 0 0-.065-3.448 2.436 2.436 0 0 0-3.449.063 2.444 2.444 0 0 0 .063 3.451h.002Z"/>
  <path fill="#D68814" d="M244.243 600.054a5.052 5.052 0 0 0 5.05 5.053 5.052 5.052 0 0 0 5.05-5.053 5.05 5.05 0 1 0-10.1 0Z"/>
  <path fill="#000" d="M246.853 600.054a2.437 2.437 0 0 0 2.44 2.439 2.441 2.441 0 0 0 0-4.881 2.443 2.443 0 0 0-2.44 2.442Z"/>
  <path fill="#D68814" d="M252.31 641.815a5.05 5.05 0 1 0 10.1 0 5.051 5.051 0 0 0-5.05-5.053 5.051 5.051 0 0 0-5.05 5.053Z"/>
  <path fill="#000" d="M254.919 641.815a2.44 2.44 0 1 0 4.88.002 2.44 2.44 0 0 0-4.88-.002Z"/>
  <path fill="#AA6913" d="m286.056 565.792-5.367 5.57 2.274 2.193 5.367-5.569-2.274-2.194Z"/>
  <path fill="#D68814" d="M312.523 576.801c-9.827-9.476-18.951-15.621-27.825-6.742-8.158 8.163-2.07 18.096 7.757 27.573l20.07-20.831h-.002Z"/>
  <path fill="#fff" d="M281.043 564.655c.929 0 1.679.751 1.679 1.68a1.68 1.68 0 1 1-3.357 0c0-.929.752-1.68 1.678-1.68Zm-31.75 33.686a1.68 1.68 0 1 1-.002 3.36 1.68 1.68 0 0 1 .002-3.36Zm8.067 41.794a1.68 1.68 0 0 1 0 3.361 1.68 1.68 0 0 1 0-3.361Z"/>
  <path fill="#090213" d="M538.297 592.906a.414.414 0 0 1-.377-.245l-.91-2.018a4.067 4.067 0 0 0-2.798-2.275l-2.513-.573a.415.415 0 0 1 .184-.808l2.513.573a4.9 4.9 0 0 1 3.369 2.744l.909 2.018a.412.412 0 0 1-.377.584Z"/>
  <path fill="#794FE4" d="M532.417 587.388a.62.62 0 0 1-.624.615.621.621 0 0 1-.624-.615.62.62 0 0 1 .624-.614.62.62 0 0 1 .624.614Z"/>
  <path fill="#fff" d="M535.711 585.348h-.914a2.811 2.811 0 0 0-2.81 2.812v.813a2.811 2.811 0 0 0 2.81 2.812h.914a2.811 2.811 0 0 0 2.811-2.812v-.813a2.811 2.811 0 0 0-2.811-2.812Z" opacity=".5"/>
  <path fill="#090213" d="M535.315 585.508a3.079 3.079 0 0 1 0 6.156h-.121a3.082 3.082 0 0 1-3.076-3.078 3.082 3.082 0 0 1 3.076-3.078h.121Zm0-.825h-.121a3.901 3.901 0 0 0-3.901 3.903 3.901 3.901 0 0 0 3.901 3.903h.121a3.901 3.901 0 0 0 3.901-3.903 3.901 3.901 0 0 0-3.901-3.903Z"/>
  <path fill="#fff" d="M546.363 585.348h-.996a2.77 2.77 0 0 0-2.77 2.771v.895a2.77 2.77 0 0 0 2.77 2.771h.996a2.77 2.77 0 0 0 2.77-2.771v-.895a2.77 2.77 0 0 0-2.77-2.771Z" opacity=".5"/>
  <path fill="#090213" d="M545.957 585.508a3.079 3.079 0 0 1 0 6.156h-.121a3.082 3.082 0 0 1-3.076-3.078 3.08 3.08 0 0 1 3.076-3.078h.121Zm0-.825h-.121a3.901 3.901 0 0 0-3.901 3.903 3.901 3.901 0 0 0 3.901 3.903h.121a3.902 3.902 0 0 0 0-7.806Z"/>
  <path fill="#090213" d="M542.411 587.589h-3.632v.828h3.632v-.828Zm19.493 5.317a.413.413 0 0 1-.377-.245c-1.06-2.354-3.333-3.988-5.931-4.266l-5.556-.593a.413.413 0 0 1 .087-.823l5.556.593c2.89.31 5.42 2.13 6.598 4.75a.412.412 0 0 1-.377.584Z"/>
  <path fill="#794FE4" d="M550.369 587.352c0 .336-.275.61-.619.61a.614.614 0 0 1-.619-.61c0-.336.276-.61.619-.61.344 0 .619.274.619.61Z"/>
  <path fill="#FFC440" d="M525.812 598.033h41.183v-5.541h-41.183v5.541Z"/>
  <path fill="#FF6C4C" d="M533.461 592.489h-7.646v5.544h16.493l-8.847-5.544Z"/>
  <path fill="#fff" d="M543.456 596.364h-12.562a1.138 1.138 0 0 1-1.147-1.13c0-.625.513-1.13 1.147-1.13h12.562c.634 0 1.147.505 1.147 1.13 0 .624-.513 1.13-1.147 1.13Z"/>
  <path fill="#FF6C4C" d="M558.586 598.033h.655v-5.541h-.655v5.541Zm1.419-5.541v5.541h.656v-5.541h-.656Z"/>
  <path fill="#FFC440" d="M528.644 640.827h41.59c.832 0 1.507.675 1.507 1.508v6.108c0 .832-.675 1.507-1.507 1.507h-41.59v-9.123Z"/>
  <path fill="#785738" d="M564.896 640.827h-4.801l.329.179c.496.271.803.787.803 1.343v6.07c0 .551-.3 1.06-.786 1.335l-.346.194h4.801l.346-.194c.486-.273.786-.784.786-1.335v-6.07a1.53 1.53 0 0 0-.803-1.343l-.329-.179Zm-7.113 0h-4.802l.329.179c.496.271.803.787.803 1.343v6.07c0 .551-.3 1.06-.786 1.335l-.346.194h4.802l.345-.194c.487-.273.787-.784.787-1.335v-6.07c0-.559-.308-1.072-.803-1.343l-.329-.179Z"/>
  <path fill="#fff" d="M525.011 649.488h11.949v-8.198h-11.949c2.008 0 2.008 8.198 0 8.198Z"/>
  <path fill="#E6E6E6" d="M526.513 645.125h10.444v-.235h-10.451l.007.235Zm-.162-1.696h10.606v-.235h-10.652c.017.077.032.155.046.235Zm.114.849h10.492v-.235h-10.516c.01.078.017.155.024.235Zm-.324-1.696h10.814v-.235h-10.899c.029.075.058.152.085.235Zm.143 5.091h10.671v-.234h-10.623a5.694 5.694 0 0 1-.048.234Zm-.262.85h10.935v-.235h-10.845c-.029.082-.058.16-.09.235Zm.479-2.546h10.456v-.235h-10.446c0 .078-.005.157-.01.235Zm-.072.849h10.526v-.234h-10.5c-.007.079-.017.157-.026.234Z"/>
  <path fill="#000" d="M536.96 641.29h-1.209v8.198h1.209v-8.198Z" opacity=".1" style="mix-blend-mode:multiply"/>
  <path fill="#D19100" d="M525.215 649.162H535.9a.806.806 0 0 0 .811-.799v-5.948a.805.805 0 0 0-.811-.799h-10.685v-.789H535.9a1.6 1.6 0 0 1 1.611 1.588v5.948c0 .876-.72 1.587-1.611 1.587h-10.685v-.788Z"/>
  <path fill="#A6361E" d="M574.273 608.054s3.694.918 3.909 3.848c.215 2.931-1.778 4.905-2.844 5.309-1.065.404-1.524.404-1.524.404s-2.027-7.954.457-9.563l.002.002Z"/>
  <path fill="#fff" d="M520.254 607.711h54.498l.317.261-.796.082c-.658 2.958-.573 6.174 0 9.564h-54.019c2.936 0 2.936-9.905 0-9.905v-.002Z"/>
  <path fill="#E6E6E6" d="M522.436 613.373c.005-.094.009-.188.012-.283h51.371c0 .095.005.189.007.283h-51.39Zm-.087-2.335h51.511l-.017.283h-51.461a4.559 4.559 0 0 0-.036-.283h.003Zm.104 1.309c0-.094-.005-.188-.01-.283h51.376v.283h-51.366Zm-.082 1.767h51.494l.017.283h-51.55c.015-.094.027-.189.039-.283Zm51.549-3.816h-51.705a6.977 6.977 0 0 0-.067-.284h51.803c-.009.095-.021.189-.031.284Zm.128-1.026h-52.137a3.73 3.73 0 0 0-.124-.284h52.307c-.017.095-.031.189-.046.284Zm-52.181 6.892h52.194l.036.283h-52.36c.046-.09.089-.187.13-.283Zm.324-1.024h51.751l.029.283h-51.855c.027-.092.051-.186.073-.283h.002Z"/>
  <path fill="#000" d="M576.598 612.635c0-2.584-2.126-4.68-4.751-4.68h1.362c2.624 0 4.75 2.096 4.75 4.68 0 2.585-2.126 4.68-4.75 4.68h-1.362c2.625 0 4.751-2.095 4.751-4.68Z" opacity=".1" style="mix-blend-mode:multiply"/>
  <path fill="#FF6C4C" d="M519.664 617.221h53.591c2.552 0 4.627-2.045 4.627-4.557 0-2.512-2.075-4.556-4.627-4.556h-53.591v-.954h53.591c3.089 0 5.594 2.466 5.594 5.51 0 3.045-2.503 5.511-5.594 5.511h-53.591v-.954Z"/>
  <path fill="#000" d="m522.443 613.262 49.837-6.108h-52.616v.954h1.519c.234.22.435.52.604.88.044.092.085.187.124.284a6.765 6.765 0 0 1 .305 1.023c.053.24.096.487.133.743l.036.283c.026.245.046.492.058.741.005.094.007.189.01.283.007.247.004.496-.003.74 0 .058-.005.117-.007.175v.002Z" opacity=".15" style="mix-blend-mode:multiply"/>
  <path fill="#0098FA" d="M545.989 598.033h-31.702v9.121h31.702v-9.121Z"/>
  <path fill="#00A1FD" d="M519.429 598.033h-1.942v9.121h1.942v-9.121Z"/>
  <path fill="#56DCFE" d="M521.371 598.033h-1.942v9.121h1.942v-9.121Zm16.936 2.365h-.07a2.194 2.194 0 0 0-2.194 2.195v.002c0 1.212.982 2.195 2.194 2.195h.07a2.194 2.194 0 0 0 2.194-2.195v-.002a2.194 2.194 0 0 0-2.194-2.195Z"/>
  <path fill="#fff" d="M571.794 598.425h-25.253v8.199h25.253v-8.199Z"/>
  <path fill="#E6E6E6" d="M571.794 599.483h-25.253v.235h25.253v-.235Zm0 .849h-25.253v.235h25.253v-.235Zm0 .847h-25.253v.235h25.253v-.235Zm0 .85h-25.253v.234h25.253v-.234Zm0 .847h-25.253v.234h25.253v-.234Zm0 .849h-25.253v.235h25.253v-.235Zm0 .85h-25.253v.234h25.253v-.234Zm0 .847h-25.253v.234h25.253v-.234Z"/>
  <path fill="#000" d="M547.75 598.425h-1.345v8.199h1.345v-8.199Z" opacity=".1" style="mix-blend-mode:multiply"/>
  <path fill="#007CCC" d="M572.28 606.365h-25.49v-7.545h25.49v-.787h-26.291v9.121h26.291v-.789Z"/>
  <path fill="#4D39AB" d="M576.544 629.529h-51.593a2.05 2.05 0 0 1-2.049-2.05v-7.252a2.05 2.05 0 0 1 2.049-2.05h51.593v11.354-.002Z"/>
  <path fill="#0098FA" d="M539.887 618.174h.853l-.355.484a2.838 2.838 0 0 0-.552 1.677v7.081c0 .663.235 1.307.663 1.818l.244.292h-.853l-.366-.452a2.419 2.419 0 0 1-.542-1.522v-7.364c0-.518.167-1.024.479-1.442l.429-.574v.002Z"/>
  <path fill="#794FE4" d="M528.308 628.268h6.688v-8.69h-6.688v8.69Z"/>
  <path fill="#FFC440" d="M530.586 626.305h2.134v-4.764h-2.134v4.764Z"/>
  <path fill="#000" d="M524.965 618.174c-.152 0-.3.017-.443.049l25.67 4.247 5.788-4.293h-31.015v-.003Z" opacity=".15" style="mix-blend-mode:multiply"/>
  <path fill="#fff" d="M577.506 618.748h-30.42v10.205h30.42v-10.205Z"/>
  <path fill="#E6E6E6" d="M577.506 620.064h-30.42v.293h30.42v-.293Zm0 1.056h-30.42v.292h30.42v-.292Zm0 1.057h-30.42v.293h30.42v-.293Zm0 1.055h-30.42v.293h30.42v-.293Zm0 1.058h-30.42v.292h30.42v-.292Zm0 1.055h-30.42v.293h30.42v-.293Zm0 1.057h-30.42v.293h30.42v-.293Zm0 1.055h-30.42v.293h30.42v-.293Z"/>
  <path fill="#000" d="M548.591 618.748h-1.505v10.205h1.505v-10.205Z" opacity=".1" style="mix-blend-mode:multiply"/>
  <path fill="#7355FF" d="M578.114 628.546h-29.709a1.002 1.002 0 0 1-1.009-.994v-7.405c0-.547.452-.995 1.009-.995h29.709v-.98h-29.709c-1.108 0-2.005.883-2.005 1.975v7.405c0 1.091.897 1.974 2.005 1.974h29.709v-.98Z"/>
  <path fill="#FF6C4C" d="M566.638 640.803h-42.383v-11.274h42.383a5.636 5.636 0 0 1 5.633 5.636 5.636 5.636 0 0 1-5.633 5.636v.002Z"/>
  <path fill="#fff" d="M557.88 640.803h-.765c3.329-3.615 3.15-7.383 0-11.274h.765c2.873 3.997 3.294 7.789 0 11.274Z"/>
  <path fill="#fff" d="M555.819 640.803h-.764c3.328-3.615 3.149-7.383 0-11.274h.764c2.873 3.997 3.294 7.789 0 11.274Z"/>
  <path fill="#D13817" d="M567.431 638.954h-5.986c2.416-2.562 2.416-5.2 0-7.763h5.986c2.416 2.563 2.416 5.201 0 7.763Z"/>
  <path fill="#fff" d="M567.075 636.501h-1.91c.336-1.116.336-1.738 0-2.854h1.91c.337 1.116.337 1.738 0 2.854Z"/>
  <path fill="#000" d="M572.261 634.84c-.172-2.961-2.663-5.311-5.713-5.311h-41.582l12.207.571s4.344 1.595 4.025 4.743h31.061l.002-.003Z" opacity=".15" style="mix-blend-mode:multiply"/>
  <path fill="#fff" d="M514.466 640.232h23.582l3.152-3.032v-4.213l-3.51-2.887h-23.224v10.132Z"/>
  <path fill="#E6E6E6" d="M514.466 631.695h25.097v-.291h-25.097v.291Zm0 1.05h26.415v-.291h-26.415v.291Zm0 1.048H541.2v-.291h-26.734v.291Zm0 1.048H541.2v-.291h-26.734v.291Zm0 1.047H541.2v-.29h-26.734v.29Zm0 1.051H541.2v-.291h-26.734v.291Zm0 1.05h26.415v-.291h-26.415v.291Zm0 1.048h25.558v-.291h-25.558v.291Z"/>
  <path fill="#000" d="M539.577 635.136c0-2.643-2.174-4.787-4.859-4.787h1.393c2.683 0 4.859 2.144 4.859 4.787 0 2.642-2.174 4.786-4.859 4.786h-1.393c2.682 0 4.859-2.144 4.859-4.786Z" opacity=".1" style="mix-blend-mode:multiply"/>
  <path fill="#BF5139" d="M513.861 639.828h22.296c2.61 0 4.733-2.091 4.733-4.663 0-2.573-2.123-4.663-4.733-4.663h-22.296v-.976h22.296c3.161 0 5.723 2.524 5.723 5.636s-2.562 5.636-5.723 5.636h-22.296v-.975.005Z"/>
  <path fill="#000" d="M565.411 622.177v3.48l1.083-.77 1.084.77v-3.48h-2.167Z" opacity=".15" style="mix-blend-mode:multiply"/>
  <path fill="#FF6C4C" d="M565.114 622.177v2.989l1.081-.772 1.083.772v-2.989h-2.164Z"/>
  <path fill="#000" d="M567.281 622.177h-2.167v.411h2.167v-.411Zm-31.369-12.165v4.276l1.098-.782 1.098.782v-4.276h-2.196Z" opacity=".15" style="mix-blend-mode:multiply"/>
  <path fill="#794FE4" d="M535.61 610.012v3.775l1.098-.779 1.096.779v-3.775h-2.194Z"/>
  <path fill="#000" d="M537.806 610.012h-2.196v.419h2.196v-.419Zm29.953-.29a1.187 1.187 0 0 1-.302-.787v-4.029c0-.462-.191-.878-.498-1.181h-1.05c.598.07 1.064.574 1.064 1.181v4.029c0 .407.15.799.424 1.104l.858.96.015-.324.351.007-.859-.96h-.003Z" opacity=".15" style="mix-blend-mode:multiply"/>
  <path fill="#4A3195" d="M567.549 609.722a1.187 1.187 0 0 1-.302-.787v-4.029a1.65 1.65 0 0 0-.499-1.181h-1.049a1.2 1.2 0 0 1 1.064 1.181v4.029c0 .407.15.799.423 1.104l.859.96.014-.324.351.007-.859-.96h-.002Z"/>
  <path fill="#fff" d="M537.178 588.484a.37.37 0 0 1-.373.368.37.37 0 0 1-.372-.368.37.37 0 0 1 .372-.367.37.37 0 0 1 .373.367Zm7.954.23a.37.37 0 0 1-.372.368.37.37 0 0 1-.373-.368.37.37 0 0 1 .373-.367c.206 0 .372.164.372.367Z"/>
  <path fill="#E6E7E8" d="M233.514 655.151h-6.322v176.325h6.322V655.151Z"/>
  <path fill="#BCBEC0" d="M233.514 656.104v-.953h-6.322v5.875l6.322-4.922Z" opacity=".25"/>
  <path fill="#E6E7E8" d="M592.51 655.151h-6.323v176.325h6.323V655.151Z"/>
  <path fill="#BCBEC0" d="M592.51 656.104v-.953h-6.323v5.875l6.323-4.922Z" opacity=".25"/>
  <path fill="#fff" d="M605.718 649.95H215.804v5.201h389.914v-5.201Z"/>
  <path fill="#808285" d="m493.558 619.3-.217-.102c.176-.873-.632-1.108-.951-1.164-.317-.07-1.151-.169-1.328.707l-.239.01-5.558 27.608c-.17.84-.085 1.714.244 2.505l.089.215a.535.535 0 0 0 .835.206l.135-.111a4.297 4.297 0 0 0 1.473-2.466l5.517-27.403v-.005Z"/>
  <path fill="#414042" d="M492.39 618.032c-.316-.071-1.151-.17-1.327.706l-.24.01-.109.544 2.736.552.109-.544-.218-.102c.177-.874-.631-1.108-.951-1.164v-.002Z"/>
  <path fill="#E6E6E6" d="M486.687 646.449a.575.575 0 0 1-.45-.678l.438-2.173a.574.574 0 1 1 1.127.228l-.438 2.173a.574.574 0 0 1-.677.45Z"/>
  <path fill="#8CC63F" d="M487.142 644.189a.43.43 0 1 1 .17-.844.43.43 0 0 1-.17.844Z"/>
  <path fill="#333" d="M476.691 646.829h22.138a2.277 2.277 0 0 1 2.276 2.277v.844h-26.693v-.844a2.277 2.277 0 0 1 2.276-2.277h.003Z"/>
  <path fill="#F2AD96" d="m484.585 627.617 4.685-1.087-.365 1.813 7.179.058a1.65 1.65 0 0 1 1.637 1.653v.249c0 .912-.74 1.653-1.652 1.653v4.92c0 2.223-.043 4.491-.44 6.497-.721 3.635-3.955 6.229-7.658 6.229h-4.818l-3.65-15.701c.204-1.807 3.604-5.227 5.082-6.284Z"/>
  <path fill="#20448A" d="m479.136 633.901 5.42 1.629a7.4 7.4 0 0 1-2.126 14.486h-15.751l12.457-16.115Z"/>
  <path fill="#20448A" d="m431.373 579.11 23.21 6.349a14.515 14.515 0 0 1 9.76 8.911l14.793 39.531c2.919 7.8-2.845 16.115-11.168 16.115h-59.306v-72.833l22.711 1.927Z"/>
  <path fill="#132445" d="M467.969 650.016h14.461c.336 0 .668-.022.994-.068-21.889.457-25.268-11.291-25.469-17.794l-1.245 17.165-.046.629.026.068h11.279Z"/>
  <path fill="#20448A" d="m364.613 637.844 3.833 51.367h83.641l6.17-57.289-93.644 5.922Z"/>
  <path fill="#20448A" d="m390.147 579.11-23.21 6.349a14.515 14.515 0 0 0-9.76 8.911l-14.797 39.544c-2.917 7.792 2.842 16.102 11.16 16.102h59.318v-72.833l-22.711 1.927Z"/>
  <path fill="#132445" d="m365.161 649.95-1.347-33.315s-.45 23.275-7.812 33.315l-.049.068h9.175l.033-.068Z"/>
  <path fill="#F2AD96" d="M418.191 555.852h-14.819l-7.411 21.331h29.641l-7.411-21.331Z"/>
  <path fill="#2E1708" d="M410.524 563.622c7.268 0 14.041-3.729 17.891-9.897 1.945-3.117 3.527-6.805 3.849-10.825.94-11.773 0-29.668 0-29.668s-14.592 4.709-23.063 4.237c-7.07-.392-24.954 6.428-19.197 30.039 2.307 9.459 10.787 16.112 20.52 16.112v.002Z"/>
  <path fill="#3462BA" d="M390.147 579.11h41.272s-6.465-6.825-20.636-6.825-20.636 6.825-20.636 6.825Z"/>
  <path fill="#1C0E05" d="M428.416 553.725c1.717-2.752 3.149-5.948 3.683-9.423-.612-16.335-10.642-16.335-20.684-16.335-11.378 0-24.548 1.491-21.241 20.177a21.12 21.12 0 0 0 20.351 15.478c7.268 0 14.04-3.729 17.891-9.897Z"/>
  <path fill="#000" d="m366.519 800.303-3.174 14.65-.887 3.346c-1.2 4.523 2.208 8.954 6.883 8.954h10.913c4.061 0 7.3-3.39 7.116-7.448l-.805-17.777-18.223-1.728h-1.823v.003Z"/>
  <path fill="#414042" d="M380.254 824.739h-10.913c-3.584 0-6.419-2.604-7.012-5.856-.774 4.312 2.535 8.373 7.012 8.373h10.913c4.061 0 7.3-3.391 7.116-7.449l-.058-1.285c-.445 3.49-3.415 6.217-7.058 6.217Z"/>
  <path fill="#1F120A" d="m365.662 705.03.856 95.273c0 6.976 21.757 6.976 21.757 0l7.802-93.712-30.415-1.558v-.003Z"/>
  <path fill="#000" d="m455.824 800.303 3.174 14.65.887 3.346c1.2 4.523-2.208 8.954-6.883 8.954h-10.914a7.123 7.123 0 0 1-7.115-7.448l.805-17.777L454 800.3h1.824v.003Z"/>
  <path fill="#414042" d="M442.091 824.739h10.913c3.585 0 6.419-2.604 7.012-5.856.774 4.312-2.535 8.373-7.012 8.373h-10.913a7.125 7.125 0 0 1-7.116-7.449l.058-1.285c.445 3.49 3.415 6.217 7.058 6.217Z"/>
  <path fill="#1F120A" d="m456.683 705.03-.856 95.273c0 6.976-21.757 6.976-21.757 0l-7.802-93.712 30.415-1.558v-.003Z"/>
  <path fill="#232324" d="M450.242 727.32h-80.011a8.017 8.017 0 0 0-8.015 8.02v.002a8.017 8.017 0 0 0 8.015 8.02h80.011a8.017 8.017 0 0 0 8.015-8.02v-.002a8.017 8.017 0 0 0-8.015-8.02Z"/>
  <path fill="#000" d="M452.624 729.338c-.65-.963-2.102-1.086-3.34-1.103a2264.375 2264.375 0 0 0-46.55-.177c-7.723.049-15.446.138-23.167.266-3.1.051-15.008-.968-9.904 4.828 2 2.272 6.017 2.05 8.903 2.091 4.051.058 8.093-.329 12.135-.513 19.516-.893 39.57 3.535 58.365-1.346 1.062-.275 2.155-.602 2.949-1.301.793-.7 1.185-1.883.607-2.742l.002-.003Z" opacity=".15" style="mix-blend-mode:multiply"/>
  <path fill="#1B1B1C" d="M414.162 741.905h-6.474v61.686h6.474v-61.686Z"/>
  <path fill="#000" d="M414.796 767.6h-7.742v16.235h7.742V767.6Z"/>
  <path fill="#1B1B1C" d="M421.982 806.357a3.28 3.28 0 0 0-3.277-3.279h-15.879a3.28 3.28 0 0 0-3.277 3.279 3.796 3.796 0 0 1-3.795 3.797h-6.613a4.777 4.777 0 0 0-4.775 4.777h51.928a4.777 4.777 0 0 0-4.775-4.777h-5.74a3.796 3.796 0 0 1-3.794-3.797h-.003Z"/>
  <path fill="#1B1B1C" d="M395.897 823.307a6.828 6.828 0 1 0-13.3-3.101 6.829 6.829 0 1 0 13.3 3.101Z"/>
  <path fill="#000" d="M389.25 824.778a3.015 3.015 0 1 0-.002-6.03 3.015 3.015 0 0 0 .002 6.03Z"/>
  <path fill="#1B1B1C" d="M416.842 822.588a6.829 6.829 0 1 0-13.555-1.658 6.828 6.828 0 1 0 13.555 1.658Z"/>
  <path fill="#000" d="M410.067 824.778a3.015 3.015 0 0 0 3.014-3.016 3.014 3.014 0 1 0-6.028 0 3.015 3.015 0 0 0 3.014 3.016Z"/>
  <path fill="#1B1B1C" d="M437.635 822.879a6.83 6.83 0 0 0-5.656-7.83 6.83 6.83 0 0 0-7.826 5.66 6.827 6.827 0 1 0 13.482 2.17Z"/>
  <path fill="#000" d="M430.883 824.778a3.014 3.014 0 0 0 3.013-3.016 3.014 3.014 0 1 0-6.027 0 3.015 3.015 0 0 0 3.014 3.016Z"/>
  <path fill="#29180E" d="m368.446 689.211-2.948 10.244s-7.958 32.083 18.651 32.083h58.455s19.158-.082 14.06-27.406c-2.421-12.968-4.577-14.923-4.577-14.923h-83.641v.002Z"/>
  <path fill="#232324" d="M430.752 618.174h-39.984c-6.029 0-11.126 5.165-11.907 12.071l-9.196 69.268c-.938 8.303 4.656 15.664 11.908 15.664h58.375c7.249 0 12.846-7.364 11.907-15.664l-9.196-69.268c-.781-6.904-5.877-12.071-11.907-12.071Z"/>
  <path fill="#1B1B1C" d="M411.245 677.443c8.589 0 15.552-6.966 15.552-15.56 0-8.594-6.963-15.56-15.552-15.56-8.589 0-15.552 6.966-15.552 15.56 0 8.594 6.963 15.56 15.552 15.56Z"/>
  <path fill="#000" d="m424.287 670.355-13.042-8.472-1.371 13.068.827 2.48c.181.007.363.015.544.015 5.466 0 10.27-2.824 13.042-7.088v-.003Z" opacity=".2"/>
  <path fill="#000" d="M411.245 740.368a4.149 4.149 0 0 1-4.148-4.15v-70.187a4.149 4.149 0 1 1 8.296 0v70.187a4.149 4.149 0 0 1-4.148 4.15Z"/>
  <path fill="#000" d="M458.028 733.462c-.847 3.521-4.008 6.142-7.786 6.142h-18.946a22.495 22.495 0 0 1-15.903-6.59H407.1a22.483 22.483 0 0 1-15.903 6.59h-20.966c-3.778 0-6.939-2.621-7.785-6.142a7.992 7.992 0 0 0-.23 1.88 8.017 8.017 0 0 0 8.015 8.02c30.575 1.645 59.036 2.4 80.009 0a8.017 8.017 0 0 0 8.015-8.02c0-.648-.084-1.275-.23-1.88h.003Z"/>
  <path fill="#BCBEC0" d="m299.164 636.313-1.784.197.122 1.109 1.784-.197-.122-1.109Z"/>
  <path fill="#F1F2F2" d="m296.677 612.341-2.063.229 2.726 24.661 2.062-.228-2.725-24.662Z"/>
  <path fill="#D1D3D4" d="m295.587 612.459-.658.073 2.725 24.661.659-.073-2.726-24.661Z"/>
  <path fill="#231F20" d="m296.628 611.858-2.315.257.88 7.961 2.581-.285-.624-5.641.324-.036.532 4.808.279-.031s.524-7.275-1.655-7.035l-.002.002Z"/>
  <path fill="#414042" d="m296.715 612.03.179 1.624s.781-.361.904.738l.477 4.303s-.129-2.926-.266-4.293c-.138-1.365-.711-2.34-1.294-2.372Zm-.38.041-.524.058.849 7.68.524-.058-.849-7.68Z"/>
  <path fill="#C2B59B" d="m303.177 614.764-2.67.126 1.014 21.429 2.669-.126-1.013-21.429Z"/>
  <path fill="#948A76" d="m302.348 614.799-1 .047 1.013 21.429 1.001-.048-1.014-21.428Z"/>
  <path fill="#231F20" d="M300.157 611.938c1.1-.053 3.004-.142 3.004-.142l.336 7.104-3.389-.919-.232-4.925-.254.012.242 5.131-.348.017-.235-4.964s-.227-1.26.876-1.314Z"/>
  <path fill="#414042" d="m303.497 618.9-.846-.229-.325-6.834.835-.039.336 7.105v-.003Zm-.438 21.356-1.553-3.925 2.779-.133-1.226 4.058Z"/>
  <path fill="#231F20" d="m303.059 640.256-1.12-3.947.958-.043.162 3.99Z"/>
  <path fill="#4781F5" d="m305.506 613.851-3.013 22.327 2.169.293 3.014-22.327-2.17-.293Z"/>
  <path fill="#231F20" d="m306.59 613.996-3.013 22.327.647.087 3.013-22.326-.647-.088Zm-1.083-.145-3.013 22.327.465.063 3.013-22.327-.465-.063Z"/>
  <path fill="#E6E7E8" d="m308.095 611.694-.394 2.918-2.325-.314.395-2.919a1.173 1.173 0 0 1 2.324.312v.003Z"/>
  <path fill="#C4C5C6" d="m305.434 613.831-.061.458 2.325.314.061-.458-2.325-.314Zm.073-.429-.026.196 2.325.314.026-.196-2.325-.314Z"/>
  <path fill="#C49A6C" d="m304.66 636.467-.007.017-1.321 2.526-.841-2.836s.101-.264.338-.174c.237.089.211.278.457.152.245-.126.462-.119.632.077.169.199.213-.004.367-.087.155-.082.429.008.375.322v.003Z"/>
  <path fill="#231F20" d="m303.332 639.01-.324-1.094c.404-.085.67-.017.844.099l-.52.995Z"/>
  <path fill="#F1F2F2" d="M293.029 624.396h16.706v22.922a2.633 2.633 0 0 1-2.632 2.632h-11.445a2.633 2.633 0 0 1-2.632-2.632v-22.922h.003Z"/>
  <path fill="#D1D3D4" d="M309.735 631.208h-6.112c-.816 0-1.478.661-1.478 1.479v6.304c0 .815.66 1.478 1.478 1.478h6.112v-9.261Z"/>
  <defs>
    <linearGradient id="a" x1="995.357" x2="48.485" y1="441.011" y2="708.961" gradientUnits="userSpaceOnUse">
      <stop stop-color="#2D46A0"/>
      <stop offset="1" stop-color="#6F8EFF"/>
    </linearGradient>
  </defs>
</svg>
