<svg xmlns="http://www.w3.org/2000/svg" width="458" height="337" fill="none" viewBox="0 0 458 337">
  <g class="Group">
    <g class="Layer">
      <g class="Group">
        <path fill="#000" d="M445.132 328.964H312.703c2.201-.951 3.403-1.977 3.403-3.047 0-4.91-25.285-8.891-56.474-8.891-31.189 0-56.475 3.981-56.475 8.891 0 1.07 1.203 2.096 3.404 3.047H29.115a3.83 3.83 0 0 0 0 7.661h416.017a3.83 3.83 0 0 0 0-7.661Z" class="Vector" opacity=".15" style="mix-blend-mode:multiply"/>
        <g class="Group">
          <g class="Group">
            <path fill="#2A4A13" d="M14.646 266.329c-1.812-1.663-3.686-3.42-4.518-5.733-.83-2.314-.225-5.346 1.974-6.447 2.44-1.224 5.974.208 7.785-1.834 1.287-1.45.702-3.877-.716-5.2-1.417-1.322-3.39-1.823-5.272-2.282-2.927-.717-5.9-1.464-8.492-3.004-2.593-1.536-4.8-3.997-5.312-6.969-.513-2.972 1.081-6.374 3.955-7.281 2.24-.71 4.97.053 6.804-1.414 1.847-1.476 1.635-4.462.387-6.471-1.246-2.011-3.242-3.424-4.814-5.19-1.572-1.767-2.755-4.269-1.877-6.466 1.053-2.64 4.356-3.412 6.555-5.21 2.242-1.835 3.29-4.736 4.003-7.543.716-2.807 1.229-5.743 2.762-8.199 1.536-2.456 4.448-4.346 7.259-3.649 5.877 1.454 5.546 11.538 11.302 13.411 2.322.755 4.809-.169 7.186-.731 2.378-.561 5.307-.564 6.77 1.394 1.34 1.788.762 4.395-.433 6.287-1.192 1.89-2.912 3.422-3.98 5.384-1.07 1.963-1.297 4.7.357 6.205 2.295 2.088 5.873.3 8.969.111 3.328-.203 6.68 1.849 8.015 4.908 1.335 3.059.561 6.911-1.85 9.217-1.265 1.21-2.88 1.985-4.245 3.081-1.364 1.096-2.53 2.725-2.307 4.462.343 2.677 3.574 3.867 6.269 3.988 2.694.121 5.71-.159 7.764 1.593 2.6 2.216 2.056 6.575-.024 9.285-2.08 2.713-5.23 4.334-7.97 6.379-6.211 4.634-10.478 11.797-11.598 19.468-.5 3.436-.408 7.008-1.627 10.26-1.22 3.253-4.31 6.195-7.75 5.733-2.37-.317-4.3-2.192-5.34-4.346-.97-2.008-.71-4.668-1.793-6.507-1.115-1.892-4.036-3.678-5.652-5.162l-12.553-11.521.007-.007Z" class="Vector"/>
            <path fill="#698D20" d="M60.957 258.404c2.738-2.043 5.89-3.667 7.97-6.379 2.08-2.713 2.624-7.069.024-9.286-2.054-1.749-5.067-1.471-7.764-1.592-2.695-.121-5.926-1.312-6.27-3.988-.222-1.737.944-3.366 2.308-4.462 1.364-1.096 2.98-1.871 4.245-3.081 2.411-2.306 3.185-6.159 1.85-9.217-1.335-3.059-4.685-5.111-8.016-4.908-3.096.189-6.673 1.977-8.968-.111-1.654-1.503-1.43-4.242-.358-6.205 1.071-1.962 2.789-3.494 3.983-5.384 1.193-1.89 1.771-4.496.433-6.287-1.463-1.955-4.392-1.955-6.77-1.394-2.377.561-4.864 1.486-7.186.731-5.756-1.873-5.425-11.959-11.302-13.411a5.108 5.108 0 0 0-2.005-.083c-.114.562-.2 1.128-.266 1.687-1.07 9.128 1.507 18.275 4.59 26.934 3.084 8.656 6.737 17.23 7.944 26.338 1.098 8.274.135 16.717 1.248 24.988.776 5.772 2.549 11.362 3.669 17.078.926 4.731.629 8.958.425 13.537 3.133-.022 5.866-2.766 6.995-5.779 1.22-3.253 1.127-6.824 1.628-10.261 1.117-7.671 5.384-14.834 11.598-19.468l-.005.003Z" class="Vector"/>
          </g>
          <g class="Group">
            <path fill="#749435" d="M92.369 268.47c1.85-1.616 3.768-3.327 4.656-5.621.887-2.294.355-5.338-1.814-6.493-2.412-1.282-5.977.063-7.74-2.023-1.25-1.481-.607-3.893.841-5.181 1.45-1.287 3.433-1.74 5.326-2.154 2.944-.643 5.934-1.321 8.563-2.795 2.629-1.473 4.895-3.879 5.48-6.838.586-2.957-.926-6.399-3.775-7.376-2.221-.762-4.97-.068-6.768-1.578-1.809-1.522-1.526-4.501-.23-6.478 1.297-1.98 3.324-3.342 4.94-5.07 1.615-1.728 2.856-4.201 2.034-6.417-.99-2.665-4.272-3.517-6.427-5.37-2.196-1.888-3.173-4.816-3.819-7.64-.646-2.824-1.088-5.769-2.561-8.264-1.476-2.492-4.342-4.453-7.17-3.826-5.91 1.309-5.826 11.4-11.626 13.133-2.341.699-4.804-.288-7.167-.905-2.363-.619-5.29-.692-6.801 1.227-1.384 1.757-.868 4.375.278 6.294 1.147 1.919 2.828 3.492 3.85 5.479 1.024 1.987 1.181 4.731-.507 6.192-2.346 2.031-5.878.158-8.969-.106-3.323-.283-6.724 1.687-8.132 4.709-1.41 3.025-.73 6.897 1.626 9.259 1.236 1.239 2.832 2.052 4.17 3.182 1.337 1.13 2.462 2.785 2.198 4.515-.408 2.67-3.666 3.78-6.363 3.834-2.697.053-5.704-.298-7.8 1.401-2.654 2.154-2.216 6.521-.204 9.283 2.013 2.761 5.123 4.462 7.813 6.57 6.097 4.784 10.187 12.048 11.118 19.746.416 3.449.237 7.018 1.377 10.297 1.139 3.281 4.157 6.297 7.607 5.919 2.377-.261 4.353-2.086 5.444-4.215 1.018-1.985.822-4.649 1.95-6.462 1.158-1.863 4.126-3.579 5.778-5.023l12.829-11.212-.005.007Z" class="Vector"/>
            <path fill="#3A4A1A" d="M46.263 259.418c-2.687-2.11-5.797-3.809-7.812-6.57-2.013-2.762-2.45-7.132.203-9.283 2.095-1.701 5.101-1.348 7.8-1.401 2.697-.054 5.958-1.167 6.364-3.834.264-1.73-.861-3.387-2.199-4.515-1.337-1.13-2.934-1.941-4.17-3.182-2.353-2.365-3.032-6.236-1.625-9.259 1.41-3.025 4.809-4.995 8.132-4.709 3.091.264 6.622 2.139 8.968.106 1.691-1.461 1.531-4.205.508-6.192s-2.704-3.56-3.85-5.479c-1.147-1.919-1.662-4.537-.278-6.294 1.511-1.922 4.438-1.846 6.801-1.227 2.363.62 4.825 1.604 7.167.905 5.8-1.733 5.715-11.821 11.626-13.133a5.106 5.106 0 0 1 2.008-.034c.099.564.172 1.133.225 1.692.846 9.152-1.95 18.234-5.246 26.813-3.295 8.578-7.153 17.06-8.582 26.137-1.299 8.245-.544 16.71-1.858 24.949-.916 5.753-2.825 11.297-4.082 16.983-1.043 4.707-.85 8.942-.755 13.523-3.13-.099-5.798-2.909-6.852-5.946-1.14-3.281-.96-6.851-1.376-10.297-.931-7.695-5.022-14.962-11.12-19.746l.003-.007Z" class="Vector"/>
            <path fill="#37621A" d="M65.405 292.769c-.06-3.383-.048-7.013.815-10.916.5-2.261 1.113-4.533 1.703-6.73.897-3.335 1.826-6.781 2.378-10.244.657-4.128.798-8.385.933-12.503.136-4.097.276-8.332.924-12.446 1.168-7.422 3.996-14.544 6.731-21.431a440.022 440.022 0 0 0 1.86-4.738c3.227-8.402 6.096-17.46 5.237-26.745l.302-.027c.864 9.348-2.015 18.445-5.256 26.881a426.475 426.475 0 0 1-1.862 4.74c-2.728 6.873-5.549 13.978-6.712 21.366-.646 4.097-.784 8.322-.919 12.409-.136 4.129-.278 8.395-.939 12.54-.553 3.478-1.485 6.933-2.384 10.275-.59 2.195-1.202 4.463-1.7 6.716-.857 3.871-.869 7.482-.809 10.846l-.302.004v.003Z" class="Vector"/>
          </g>
          <g class="Group">
            <path fill="#E7FFB8" d="M26.364 270.772c-3.284-2.725-6.172-8.153-2.527-11.538 2.443-2.169 5.884-.874 8.632-2.8 1.742-1.278 1.759-3.207.772-4.484-2.995-4.097-8.403-3.795-11.92-7.8-2.866-3.23-2.35-7.671.547-10.483 3.863-3.751 11.066-2.679 12.074-7.482 1.081-4.257-3.11-9.472-1.045-14.629 1.563-3.729 3.994-7.03 5.958-10.509 1.964-3.48 3.463-7.137 3.163-11.582-.276-2.139 3.597-3.724 4.37-1.922 2.456 4.305 6.248 6.875 10.181 9.223 4.361 2.497 10.047 4.484 10.865 8.726 1.05 3.942-7.522 9.118-2.129 13.046 3.353 2.831 8.127 1.945 11.477 4.774 2.146 1.9 1.72 4.942.126 7.321-2.494 3.852-9.968 6.988-7.014 10.955 3.29 4.469 13.02 6.207 9.101 13.776-7.471 13.733-17.596 23.73-23.062 38.291-.793 2.277-2.554 5.49-4.83 4.697-7.764-3.352-10.231-12.001-15.666-18.37-1.24-1.2-1.947-2.468-3.319-3.347a1555.39 1555.39 0 0 1-5.754-5.873v.01Z" class="Vector"/>
            <path fill="#98C246" d="M69.897 241.595c-2.954-3.969 4.52-7.103 7.014-10.955 1.596-2.379 2.02-5.423-.126-7.32-3.352-2.832-8.127-1.946-11.477-4.775-5.393-3.927 3.178-9.104 2.129-13.046-.818-4.242-6.504-6.229-10.865-8.726-3.935-2.347-7.728-4.917-10.18-9.222-.404-.939-1.645-.959-2.705-.46 0 .012.003.024.005.039.81 8.157 7.048 20.213 7.486 28.325 1.023 27.626-4.66 55.595 1.81 82.686 1.356-.808 2.394-2.872 2.953-4.472 5.463-14.561 15.588-24.56 23.062-38.29 3.918-7.57-5.812-9.307-9.102-13.777l-.004-.007Z" class="Vector"/>
          </g>
          <path fill="#D68814" d="M27.838 287.496h52.074v36.42c0 4.779-3.877 8.661-8.656 8.661H36.492c-4.777 0-8.657-3.88-8.657-8.661v-36.42h.003Z" class="Vector"/>
          <path fill="#FFE082" d="M27.838 302.086c0-8.906 52.074-8.906 52.074 0v-14.59H27.838v14.59Z" class="Vector"/>
        </g>
        <g class="Group">
          <g class="Group">
            <path fill="#BCBEC0" d="M441.348 155.518H82.353v35.713h358.995v-35.713Z" class="Vector"/>
            <g class="Group">
              <g class="Group">
                <path fill="#808285" d="M106.344 166.376a1.307 1.307 0 1 1-2.614 0 1.307 1.307 0 0 1 2.614 0Zm16.135 0a1.307 1.307 0 1 1-2.613 0 1.307 1.307 0 0 1 2.613 0Zm16.135 0a1.307 1.307 0 1 1-2.613 0 1.307 1.307 0 0 1 2.613 0Zm16.135 0a1.307 1.307 0 1 1-2.613 0 1.307 1.307 0 0 1 2.613 0Zm16.135 0a1.307 1.307 0 1 1-2.613 0 1.307 1.307 0 0 1 2.613 0Zm16.138 0a1.307 1.307 0 1 1-2.613 0 1.307 1.307 0 0 1 2.613 0Zm16.135 0a1.307 1.307 0 1 1-2.613 0 1.307 1.307 0 0 1 2.613 0Zm16.135 0a1.307 1.307 0 1 1-2.613 0 1.307 1.307 0 0 1 2.613 0Zm16.136 0a1.307 1.307 0 1 1-2.614 0 1.307 1.307 0 0 1 2.614 0Zm16.134 0a1.307 1.307 0 1 1-2.613 0 1.307 1.307 0 0 1 2.613 0Zm16.136 0a1.307 1.307 0 1 1-2.614 0 1.307 1.307 0 0 1 2.614 0Zm16.137 0a1.307 1.307 0 1 1-2.613 0 1.307 1.307 0 0 1 2.613 0Zm16.136 0a1.307 1.307 0 1 1-2.614 0 1.307 1.307 0 0 1 2.614 0Zm16.135 0a1.307 1.307 0 1 1-2.613 0 1.307 1.307 0 0 1 2.613 0Zm16.135 0a1.307 1.307 0 1 1-2.613 0 1.307 1.307 0 0 1 2.613 0Zm16.135 0a1.307 1.307 0 1 1-2.613 0 1.307 1.307 0 0 1 2.613 0Zm16.135 0a1.307 1.307 0 1 1-2.613 0 1.307 1.307 0 0 1 2.613 0Zm16.138 0a1.307 1.307 0 1 1-2.614 0 1.307 1.307 0 0 1 2.614 0Zm16.135 0a1.307 1.307 0 1 1-2.615 0 1.307 1.307 0 0 1 2.615 0Zm16.135 0a1.307 1.307 0 1 1-2.613 0 1.307 1.307 0 0 1 2.613 0Zm16.136 0a1.307 1.307 0 1 1-2.615 0 1.307 1.307 0 0 1 2.615 0Z" class="Vector"/>
              </g>
              <g class="Group">
                <path fill="#808285" d="M106.344 177.811a1.307 1.307 0 1 1-2.614-.002 1.307 1.307 0 0 1 2.614.002Zm16.135 0a1.306 1.306 0 1 1-2.613 0 1.306 1.306 0 0 1 2.613 0Zm16.135 0a1.306 1.306 0 1 1-2.613 0 1.306 1.306 0 0 1 2.613 0Zm16.135 0a1.306 1.306 0 1 1-2.613 0 1.306 1.306 0 0 1 2.613 0Zm16.135 0a1.306 1.306 0 1 1-2.613 0 1.306 1.306 0 0 1 2.613 0Zm16.138 0a1.306 1.306 0 1 1-2.613 0 1.306 1.306 0 0 1 2.613 0Zm16.135 0a1.306 1.306 0 1 1-2.613 0 1.306 1.306 0 0 1 2.613 0Zm16.135 0a1.306 1.306 0 1 1-2.613 0 1.306 1.306 0 0 1 2.613 0Zm16.136 0a1.307 1.307 0 1 1-2.614-.002 1.307 1.307 0 0 1 2.614.002Zm16.134 0a1.306 1.306 0 1 1-2.613 0 1.306 1.306 0 0 1 2.613 0Zm16.136 0a1.307 1.307 0 1 1-2.614-.002 1.307 1.307 0 0 1 2.614.002Zm16.137 0a1.306 1.306 0 1 1-2.613 0 1.306 1.306 0 0 1 2.613 0Zm16.136 0a1.307 1.307 0 1 1-2.614-.002 1.307 1.307 0 0 1 2.614.002Zm16.135 0a1.306 1.306 0 1 1-2.613 0 1.306 1.306 0 0 1 2.613 0Zm16.135 0a1.306 1.306 0 1 1-2.613 0 1.306 1.306 0 0 1 2.613 0Zm16.135 0a1.306 1.306 0 1 1-2.613 0 1.306 1.306 0 0 1 2.613 0Zm16.135 0a1.306 1.306 0 1 1-2.613 0 1.306 1.306 0 0 1 2.613 0Zm16.138 0a1.307 1.307 0 1 1-2.614-.002 1.307 1.307 0 0 1 2.614.002Zm16.135 0a1.307 1.307 0 1 1-2.614-.002 1.307 1.307 0 0 1 2.614.002Zm16.135 0a1.306 1.306 0 1 1-2.613 0 1.306 1.306 0 0 1 2.613 0Zm16.136 0a1.307 1.307 0 1 1-2.614-.002 1.307 1.307 0 0 1 2.614.002Z" class="Vector"/>
              </g>
            </g>
          </g>
          <g class="Group">
            <path fill="#231F20" d="M180.806.367h163.908c4.634 0 8.391 3.788 8.391 8.46v102.01c0 4.673-3.757 8.46-8.391 8.46H180.806c-4.634 0-8.39-3.787-8.39-8.46V8.827c0-4.672 3.756-8.46 8.39-8.46Z" class="Vector"/>
            <path fill="#000" d="M250.256 115.067h25.007l6.986 28.736h25.771v3.909h-90.522v-3.909h23.154l9.604-28.736Z" class="Vector"/>
            <path fill="#000" d="M261.879 115.067h13.385l2.96 12.184h-32.04l4.073-12.184h11.622Z" class="Vector" opacity=".5"/>
            <path fill="#000" d="M180.806 1.638h163.908c4.634 0 8.391 3.787 8.391 8.46v102.009c0 4.673-3.757 8.46-8.391 8.46H180.806c-4.634 0-8.39-3.787-8.39-8.46V10.097c0-4.672 3.756-8.46 8.39-8.46Z" class="Vector"/>
            <path fill="#231F20" d="M180.806 4.597h163.908c2.312 0 4.196 1.898 4.196 4.23v94.895c0 2.333-1.881 4.23-4.196 4.23H180.806c-2.315 0-4.197-1.897-4.197-4.23V8.827c0-2.332 1.882-4.23 4.197-4.23Z" class="Vector"/>
            <g class="Group">
              <path fill="#000" d="M289.573 66.313a.774.774 0 0 0-.158-.085.947.947 0 0 0-.36-.073h-2.465c-.031 0-.063 0-.094-.005a.94.94 0 0 1-.759-.559.94.94 0 0 1-.073-.36v-.808a.93.93 0 0 0-.566-.855.939.939 0 0 0-.36-.072h-7.058a.924.924 0 0 0-.924.924v.438h-1.918a.746.746 0 0 0-.745.746v.551h-.728a.924.924 0 0 0-.924.925v9.29c0 .51.414.924.924.924h15.688a.963.963 0 0 0 .517-.157.924.924 0 0 0 .409-.767v-9.29c0-.32-.162-.6-.409-.767h.003Z" class="Vector" opacity=".15" style="mix-blend-mode:multiply"/>
              <g class="Group">
                <path fill="#fff" d="M276.466 63.355h4.165v2.43h-4.91v-1.684c0-.412.334-.745.745-.745Z" class="Vector"/>
                <g class="Group">
                  <path fill="#FFBF00" d="M287.292 63.726v-.809a.924.924 0 0 0-.924-.924h-7.058a.924.924 0 0 0-.924.924v.809c0 .51-.413.924-.924.924h-2.464a.924.924 0 0 0-.924.924v9.29c0 .511.413.925.924.925h15.687a.924.924 0 0 0 .924-.924v-9.29a.924.924 0 0 0-.924-.925h-2.464a.924.924 0 0 1-.924-.924h-.005Z" class="Vector"/>
                  <g class="Group">
                    <g class="Group">
                      <path fill="#25355C" d="M282.686 75.034a5.417 5.417 0 0 0 5.416-5.418 5.417 5.417 0 0 0-5.416-5.418 5.417 5.417 0 0 0-5.415 5.418 5.417 5.417 0 0 0 5.415 5.418Z" class="Vector"/>
                      <path fill="#1B7FF2" d="M286.308 70.353a3.76 3.76 0 1 0-4.46 2.894 3.759 3.759 0 0 0 4.46-2.894Z" class="Vector"/>
                      <path fill="#fff" d="M284.453 71.292a2.404 2.404 0 0 0 0-3.398 2.4 2.4 0 0 0-3.396 0 2.404 2.404 0 0 0 0 3.398 2.4 2.4 0 0 0 3.396 0Z" class="Vector"/>
                    </g>
                  </g>
                </g>
              </g>
              <g class="Group">
                <path fill="#000" d="m225.68 24.642 3.739 1.873v-1.91c0-.462.375-.835.835-.835h12.768c.462 0 .835.375.835.835v8.472a.835.835 0 0 1-.835.835h-12.768a.835.835 0 0 1-.835-.835v-1.909l-3.739 1.873a.578.578 0 0 1-.837-.518V25.16c0-.43.453-.711.837-.517Z" class="Vector" opacity=".15" style="mix-blend-mode:multiply"/>
                <g class="Group">
                  <path fill="#FA6F04" d="m226.943 23.1 3.739 1.873v-1.91c0-.461.375-.834.835-.834h12.768c.462 0 .834.375.834.835v8.472a.835.835 0 0 1-.834.835h-12.768a.835.835 0 0 1-.835-.835v-1.91l-3.739 1.874a.578.578 0 0 1-.837-.518v-7.364c0-.43.452-.711.837-.518Z" class="Vector"/>
                  <path fill="#BA5303" d="M234.588 29.857a2.891 2.891 0 1 0-.497-5.76 2.891 2.891 0 0 0 .497 5.76Z" class="Vector"/>
                  <path fill="#fff" d="M233.031 26.945a1.281 1.281 0 1 0 2.564 0 1.282 1.282 0 1 0-2.564 0Z" class="Vector"/>
                  <path fill="#BA5303" d="M241.373 29.846a2.892 2.892 0 1 0-.5-5.76 2.892 2.892 0 0 0 .5 5.76Z" class="Vector"/>
                  <path fill="#fff" d="M239.808 26.945a1.281 1.281 0 1 0 2.564 0 1.281 1.281 0 1 0-2.564 0Z" class="Vector"/>
                </g>
              </g>
              <g class="Group">
                <path fill="#000" d="M264.171 22.115h-11.829a.808.808 0 0 0-.808.808V34.76c0 .447.361.809.808.809h11.829a.808.808 0 0 0 .808-.809V22.923a.808.808 0 0 0-.808-.808Z" class="Vector" opacity=".15" style="mix-blend-mode:multiply"/>
                <g class="Group">
                  <path fill="#fff" d="M266.648 21.452h-12.275v10.125h12.275V21.452Z" class="Vector"/>
                  <path fill="#1B7FF2" d="M266.225 20.574h-11.832a.808.808 0 0 0-.808.808V33.22c0 .445.36.808.808.808h11.832c.445 0 .808-.36.808-.808V21.382a.808.808 0 0 0-.808-.808Zm-.595 5.222-4.579 3.78-2.8-2.277-3.263 2.49v-7.814h10.642v3.82Z" class="Vector"/>
                  <path fill="#2A4569" d="M261.446 27.233a2.048 2.048 0 1 0-.003-4.095 2.048 2.048 0 0 0 .003 4.095Z" class="Vector"/>
                  <g class="Group">
                    <path fill="#70B3FF" d="m265.63 25.796-2.63 2.17h2.63v-2.17Zm-7.38 1.503-2.21 1.689h4.288l-2.078-1.69Z" class="Vector"/>
                  </g>
                  <path fill="#fff" d="M262.614 25.12a1.132 1.132 0 1 1-2.265 0 1.132 1.132 0 0 1 2.265 0Z" class="Vector"/>
                </g>
              </g>
              <g class="Group">
                <path fill="#000" d="M285.616 22.74h-7.484a2.504 2.504 0 0 0-2.503 2.504v7.487a2.504 2.504 0 0 0 2.503 2.505h7.484a2.504 2.504 0 0 0 2.503-2.505v-7.487a2.504 2.504 0 0 0-2.503-2.505Z" class="Vector" opacity=".15" style="mix-blend-mode:multiply"/>
                <g class="Group">
                  <path fill="#FFBF00" d="M287.543 20.905h-7.483a2.503 2.503 0 0 0-2.503 2.505v7.487a2.503 2.503 0 0 0 2.503 2.505h7.483a2.504 2.504 0 0 0 2.504-2.505V23.41a2.504 2.504 0 0 0-2.504-2.505Z" class="Vector"/>
                  <path fill="#25355C" d="M286.788 22.998h-7.089v2.33h1.115v-1.163h2.455v5.95h-1.166v1.191h3.447v-1.19h-1.166v-5.951h2.404v1.164h1.118v-2.33h-1.118Z" class="Vector"/>
                </g>
              </g>
              <g class="Group">
                <path fill="#000" d="M310.483 33.722a6.766 6.766 0 0 0 0-9.565 6.758 6.758 0 0 0-9.561 0 6.766 6.766 0 0 0 0 9.565 6.759 6.759 0 0 0 9.561 0Z" class="Vector" opacity=".15" style="mix-blend-mode:multiply"/>
                <g class="Group">
                  <path fill="#FF4D58" d="M307.63 33.965a6.762 6.762 0 0 0 6.761-6.763 6.762 6.762 0 0 0-6.761-6.764 6.762 6.762 0 0 0-6.76 6.764 6.762 6.762 0 0 0 6.76 6.763Z" class="Vector"/>
                  <g class="Group">
                    <path fill="#fff" d="m308.919 23.244-1.491 1.492 2.687 2.688 1.491-1.492-2.687-2.688Zm-3.599 2.736-1.661 4 .242.559 2.322-2.323s-.005-.017-.005-.027a.356.356 0 1 1 .711 0 .35.35 0 0 1-.341.351l-2.342 2.343.598.28 3.998-1.662.774-2.043-2.254-2.255-2.042.774v.003Z" class="Vector"/>
                  </g>
                </g>
              </g>
              <g class="Group">
                <path fill="#000" d="M288.598 42.549h-13.354a.738.738 0 0 0-.738.738v11.96c0 .407.331.737.738.737h13.354c.407 0 .737-.33.737-.738V43.287a.738.738 0 0 0-.737-.738Z" class="Vector" opacity=".15" style="mix-blend-mode:multiply"/>
                <g class="Group">
                  <path fill="#fff" d="M290.431 40.717h-13.353a.738.738 0 0 0-.738.738v11.96c0 .407.33.738.738.738h13.353c.408 0 .738-.33.738-.739V41.455a.738.738 0 0 0-.738-.738Z" class="Vector"/>
                  <g class="Group">
                    <path fill="#D1D3D4" d="M289.986 41.82h-12.464v3.543h12.464v-3.542Zm-.193 3.35h-12.077v-3.156h12.077v3.156Zm-12.27 4.237h3.531v-3.543h-3.531v3.543Zm.193-3.35h3.145v3.159h-3.145v-3.158Zm3.309 3.803h-3.563v.186h3.563v-.186Zm0 .392h-3.563v.186h3.563v-.186Zm0 .392h-3.563v.186h3.563v-.186Zm0 .392h-3.563v.186h3.563v-.186Zm0 .392h-3.563v.186h3.563v-.186Zm0 .392h-3.563v.186h3.563v-.186Zm0 .392h-3.563v.186h3.563v-.186Zm.975-2.805h3.531v-3.543H282v3.543Zm.193-3.35h3.144v3.159h-3.144v-3.158Zm3.309 3.803h-3.563v.186h3.563v-.186Zm0 .392h-3.563v.186h3.563v-.186Zm0 .392h-3.563v.186h3.563v-.186Zm0 .392h-3.563v.186h3.563v-.186Zm0 .392h-3.563v.186h3.563v-.186Zm0 .392h-3.563v.186h3.563v-.186Zm0 .392h-3.563v.186h3.563v-.186Zm.977-6.348v3.543h3.531v-3.543h-3.531Zm3.338 3.35h-3.145v-3.159h3.145v3.158Zm.162.646h-3.563v.186h3.563v-.186Zm0 .392h-3.563v.186h3.563v-.186Zm0 .392h-3.563v.186h3.563v-.186Zm0 .392h-3.563v.186h3.563v-.186Zm0 .392h-3.563v.186h3.563v-.186Zm0 .392h-3.563v.186h3.563v-.186Zm0 .392h-3.563v.186h3.563v-.186Z" class="Vector"/>
                  </g>
                </g>
              </g>
              <g class="Group">
                <path fill="#000" d="M258.722 56.403a7.135 7.135 0 0 0 7.133-7.136 7.135 7.135 0 0 0-7.133-7.137 7.135 7.135 0 0 0-7.133 7.137 7.135 7.135 0 0 0 7.133 7.136Z" class="Vector" opacity=".15" style="mix-blend-mode:multiply"/>
                <g class="Group">
                  <path fill="#42A16A" d="M266.927 48.319a7.133 7.133 0 1 0-14.157-1.757 7.135 7.135 0 0 0 6.2 7.96 7.134 7.134 0 0 0 7.957-6.203Z" class="Vector"/>
                  <g class="Group">
                    <path fill="#fff" d="m255.643 47.619 2.216.781v1.09l-3.345-1.419v-.917l3.345-1.418v1.089l-2.216.796v-.002Zm3.493 2.889h-.835l2.083-6.147h.834l-2.082 6.147Zm4.909-2.901-2.256-.79v-1.08l3.383 1.417v.912l-3.383 1.423v-1.084l2.256-.8v.002Z" class="Vector"/>
                  </g>
                </g>
              </g>
              <g class="Group">
                <path fill="#000" d="M338.167 28.937h-.005a6.619 6.619 0 0 0-.177-1.36h.005a6.53 6.53 0 0 0-.714-1.795h.005c-.053-.093-.111-.182-.169-.272-.036-.058-.07-.116-.106-.172 0-.002-.003-.004-.005-.007a6.725 6.725 0 0 0-1.759-1.761l-.012-.008c-.065-.043-.133-.084-.2-.126-.08-.05-.158-.104-.24-.15v.005a6.709 6.709 0 0 0-1.388-.607 7.011 7.011 0 0 0-.407-.109v.005a6.75 6.75 0 0 0-1.357-.18v-.004c-.067 0-.135-.005-.205-.005-.07 0-.131.003-.196.005v.005a6.67 6.67 0 0 0-1.33.17v-.006a6.602 6.602 0 0 0-1.785.697v-.005a6.764 6.764 0 0 0-2.271 2.096c-.017.024-.032.053-.049.077-.08.122-.155.242-.227.368h.005a6.598 6.598 0 0 0-.702 1.786h.005a6.71 6.71 0 0 0-.174 1.355h-.005c0 .063-.005.129-.005.192 0 .07.003.14.005.208h.005c.014.455.072.9.172 1.328h-.005a6.572 6.572 0 0 0 .699 1.783h-.005c.087.153.177.303.273.448a6.792 6.792 0 0 0 1.836 1.832c.145.097.295.189.448.274v-.005a6.676 6.676 0 0 0 1.782.694v-.005c.428.1.873.158 1.33.17v.005c.066 0 .131.005.196.005.068 0 .138-.003.206-.005v-.005a6.76 6.76 0 0 0 1.357-.18v.006a6.778 6.778 0 0 0 1.79-.714v.005c.087-.051.169-.104.251-.158.063-.038.128-.075.189-.118.002 0 .007-.005.01-.008a6.838 6.838 0 0 0 1.77-1.778s0-.003.002-.005c.029-.044.054-.087.083-.13.065-.105.133-.206.196-.315h-.005a6.67 6.67 0 0 0 .6-1.39c.041-.132.075-.268.106-.406h-.005c.102-.43.16-.876.174-1.333h.005c0-.07.005-.14.005-.21a3.98 3.98 0 0 0-.005-.192l.003.005Z" class="Vector" opacity=".15" style="mix-blend-mode:multiply"/>
                <g class="Group">
                  <path fill="#1B7FF2" d="M339.57 27.385a6.74 6.74 0 1 0-13.456-.748 6.74 6.74 0 1 0 13.456.748Z" class="Vector"/>
                  <path fill="#fff" d="M337.642 25.225a35.88 35.88 0 0 1 1.756.237 5.944 5.944 0 0 0-.109-.407 28.194 28.194 0 0 0-1.717-.295 12.6 12.6 0 0 0-.334-1.537c.592.158.938.262 1.449.446a8.266 8.266 0 0 0-.281-.453c-.44-.179-.769-.293-1.301-.457a13.765 13.765 0 0 0-.46-1.31 6.503 6.503 0 0 0-.452-.282c.184.515.29.861.447 1.459a12.404 12.404 0 0 0-1.536-.334c-.101-.7-.166-1.082-.297-1.728a7.141 7.141 0 0 0-.406-.109c.104.666.157 1.053.239 1.77-.626-.08-.938-.105-1.565-.115-.009-.743-.017-1.14-.029-1.834-.068 0-.138-.005-.205-.005-.068 0-.131.003-.196.005-.015.697-.022 1.094-.034 1.837-.615.012-.922.034-1.536.111.082-.719.133-1.106.239-1.776a7.789 7.789 0 0 0-.404.106c-.13.654-.195 1.034-.299 1.738-.615.099-.922.167-1.536.334.159-.605.266-.956.457-1.484a6.405 6.405 0 0 0-.448.276 13.87 13.87 0 0 0-.471 1.343c-.554.17-.886.286-1.352.477a6.05 6.05 0 0 0-.276.448c.534-.194.885-.3 1.495-.46-.167.615-.235.922-.334 1.537a28.75 28.75 0 0 0-1.754.302 5.649 5.649 0 0 0-.106.404c.682-.109 1.069-.16 1.795-.242-.08.627-.102.94-.114 1.566-.75.01-1.147.017-1.855.029 0 .063-.005.128-.005.191 0 .07.002.14.005.208.708.015 1.105.022 1.855.034.012.615.034.922.111 1.537a36.946 36.946 0 0 1-1.795-.242c.032.135.068.27.107.404.663.135 1.045.2 1.756.302.099.615.167.922.334 1.537a15.731 15.731 0 0 1-1.5-.462c.087.152.177.302.276.448.469.193.803.31 1.359.479.169.554.286.885.477 1.352.145.097.295.19.447.274a14.91 14.91 0 0 1-.459-1.493c.614.167.921.235 1.535.334.104.706.17 1.089.3 1.747.133.039.269.075.404.106a36.938 36.938 0 0 1-.242-1.786c.615.08.922.102 1.536.112.012.745.02 1.142.034 1.844.065 0 .131.005.196.005.068 0 .138-.003.206-.005.012-.702.019-1.099.029-1.842.626-.01.938-.031 1.565-.114a36.572 36.572 0 0 1-.24 1.777 5.7 5.7 0 0 0 .404-.11c.131-.65.196-1.03.3-1.734.614-.1.921-.167 1.536-.334-.157.6-.264.948-.45 1.469.155-.09.305-.182.452-.283.184-.448.298-.78.462-1.32.537-.164.866-.278 1.311-.46.099-.144.191-.297.281-.45-.513.185-.861.291-1.456.448.167-.614.234-.922.333-1.536a28.097 28.097 0 0 0 1.718-.296c.041-.133.075-.268.106-.406-.66.104-1.045.157-1.758.237.08-.614.101-.922.111-1.537.738-.012 1.134-.019 1.821-.033 0-.07.005-.14.005-.21a3.98 3.98 0 0 0-.005-.192c-.687-.012-1.083-.02-1.821-.03-.01-.626-.031-.938-.114-1.565l.003-.002Zm-9.041-.056c.691-.07 1.037-.1 1.729-.14a25.212 25.212 0 0 0-.06 1.737c-.709.005-1.062.008-1.771.017.01-.646.029-.97.099-1.616l.003.002Zm0 3.68a13.79 13.79 0 0 1-.1-1.584c.709.01 1.062.014 1.771.02.005.681.017 1.023.058 1.705a34.491 34.491 0 0 1-1.729-.14Zm.355 2.065c-.15-.634-.208-.951-.297-1.585.682.09 1.023.123 1.705.177.053.682.087 1.023.176 1.706-.633-.09-.95-.148-1.584-.298Zm1.41-6.4c-.682.053-1.023.086-1.705.176.09-.634.148-.951.298-1.585.633-.15.95-.208 1.584-.298-.09.683-.124 1.024-.177 1.706Zm.486.486a31.71 31.71 0 0 1 1.73-.046c-.005.72-.005 1.084-.007 1.805-.709 0-1.062 0-1.771.005.005-.704.015-1.058.048-1.764Zm-.046 2.287c.709.004 1.062.007 1.771.007 0 .709 0 1.062.007 1.771a37.648 37.648 0 0 1-1.729-.046 31.225 31.225 0 0 1-.046-1.73l-.003-.003Zm.216 3.983a35.999 35.999 0 0 1-.141-1.73c.683.04 1.024.053 1.706.06.004.709.009 1.062.019 1.771-.634-.01-.951-.029-1.584-.099v-.002Zm1.565-6.854c-.682.005-1.023.017-1.706.061a35.99 35.99 0 0 1 .141-1.73c.633-.07.95-.09 1.584-.1-.01.71-.015 1.063-.019 1.772v-.003Zm2.114-1.67c.07.693.099 1.039.14 1.731a27.763 27.763 0 0 0-1.737-.06c-.005-.71-.007-1.063-.017-1.772.646.01.97.03 1.616.102h-.002Zm0 8.524c-.646.072-.97.092-1.616.101.01-.709.012-1.062.017-1.771a26.08 26.08 0 0 0 1.736-.06c-.041.692-.07 1.038-.14 1.73h.003Zm.166-2.253c-.703.034-1.057.043-1.763.046.005-.71.005-1.063.005-1.772.721 0 1.081 0 1.804-.007a35.685 35.685 0 0 1-.046 1.73v.003Zm-1.756-2.26c0-.722 0-1.082-.004-1.806a35.75 35.75 0 0 1 1.763.049c.034.704.043 1.057.048 1.764-.721-.005-1.083-.005-1.804-.005l-.003-.002Zm3.653-3.655c.15.634.208.951.297 1.585a27.132 27.132 0 0 0-1.705-.176 26.655 26.655 0 0 0-.177-1.706c.634.09.951.148 1.585.297Zm0 7.81c-.634.15-.951.208-1.585.297.09-.682.124-1.023.177-1.706a27.132 27.132 0 0 0 1.705-.177 14.53 14.53 0 0 1-.297 1.586Zm.355-2.065c-.691.07-1.037.1-1.729.14a26.97 26.97 0 0 0 .058-1.705c.709-.005 1.062-.01 1.77-.02a13.82 13.82 0 0 1-.099 1.585Zm-1.671-2.08a25.86 25.86 0 0 0-.061-1.738c.692.04 1.038.07 1.73.14.072.646.092.97.099 1.617-.709-.01-1.062-.013-1.77-.017l.002-.003Z" class="Vector"/>
                </g>
              </g>
              <g class="Group">
                <path fill="#000" d="m243.395 52.795.065-.012-.07-.4-.005-.406h-.065l-.467-2.633-.498.09v-.008l-1.019.18.949-.412v-.007l.462-.201-1.389-3.204-.464.2v-.006l-.535.23.467-.344-.005-.005.407-.3-2.073-2.81-.407.3-.004-.004-1.478 1.091-.225.165-1.275.941-.428.317-1.756 1.297-.791.583-1.584 1.172-1.03.762-1.459 1.077-.336.249-1.611 1.19.005.005-.939.692a.867.867 0 0 0-.181 1.213l.339.457.007.569a.865.865 0 0 0 .878.854h.07c.048.002.097 0 .148-.002l.948-.012v.007l7.35-.095 1.18-.014h.204l1.845-.027 2.184-.029 2.117-.026v-.008l.505-.007-.034-2.674-.002.005Z" class="Vector" opacity=".15" style="mix-blend-mode:multiply"/>
                <g class="Group">
                  <g class="Group">
                    <path fill="#fff" d="m244.447 53.739-.046-3.492-16.551.213a.865.865 0 0 0-.854.878l.021 1.76c.008.479.4.861.878.854l16.552-.213Z" class="Vector"/>
                    <path fill="#fff" d="m243.946 53.756-.045-3.506-14.879.193.046 3.506 14.878-.193Z" class="Vector"/>
                    <g class="Group">
                      <path fill="#007539" d="m231.205 50.404-2.184.028.045 3.506 2.184-.028-.045-3.506Z" class="Vector"/>
                      <path fill="#218B52" d="m233.319 50.377-2.184.028.045 3.506 2.184-.028-.045-3.506Z" class="Vector"/>
                      <path fill="#42A16A" d="m235.437 50.35-2.184.028.045 3.506 2.184-.028-.045-3.507Z" class="Vector"/>
                      <path fill="#63B883" d="m237.553 50.322-2.184.028.045 3.507 2.184-.029-.045-3.506Z" class="Vector"/>
                      <path fill="#83CE9C" d="m239.668 50.295-2.184.028.046 3.506 2.184-.028-.046-3.506Z" class="Vector"/>
                      <path fill="#A4E4B4" d="m241.784 50.267-2.183.029.045 3.506 2.184-.028-.046-3.507Z" class="Vector"/>
                      <path fill="#C5FACD" d="m243.903 50.24-2.184.028.045 3.507 2.184-.029-.045-3.506Z" class="Vector"/>
                    </g>
                    <path fill="#BCBEC0" d="M227.976 52.67a.466.466 0 1 0-.014-.933.466.466 0 0 0 .014.932Z" class="Vector"/>
                  </g>
                  <g class="Group">
                    <path fill="#fff" d="m244.478 51.053-.609-3.44-16.3 2.89a.864.864 0 0 0-.701 1.005l.307 1.732a.863.863 0 0 0 1.004.702l16.299-2.89Z" class="Vector"/>
                    <path fill="#fff" d="m243.958 51.134-.611-3.453-14.652 2.596.611 3.453 14.652-2.596Z" class="Vector"/>
                    <g class="Group">
                      <path fill="#F7941E" d="m230.857 49.933-2.15.38.611 3.453 2.15-.38-.611-3.453Z" class="Vector"/>
                      <path fill="#F8A536" d="m232.94 49.563-2.15.381.611 3.453 2.15-.381-.611-3.453Z" class="Vector"/>
                      <path fill="#FAB64D" d="m235.023 49.195-2.15.381.611 3.453 2.15-.38-.611-3.454Z" class="Vector"/>
                      <path fill="#FBC765" d="m237.106 48.826-2.151.38.611 3.453 2.151-.38-.611-3.453Z" class="Vector"/>
                      <path fill="#FCD87C" d="m239.191 48.456-2.15.38.611 3.453 2.15-.38-.611-3.453Z" class="Vector"/>
                      <path fill="#FEE993" d="m241.274 48.088-2.15.381.611 3.453 2.15-.38-.611-3.454Z" class="Vector"/>
                      <path fill="#FFFAAB" d="m243.357 47.718-2.15.381.611 3.453 2.15-.381-.611-3.453Z" class="Vector"/>
                    </g>
                    <path fill="#BCBEC0" d="M228.05 52.662a.466.466 0 1 0-.163-.917.466.466 0 0 0 .163.917Z" class="Vector"/>
                  </g>
                  <g class="Group">
                    <path fill="#fff" d="m243.762 47.256-1.388-3.204-15.187 6.59a.867.867 0 0 0-.45 1.139l.699 1.614a.866.866 0 0 0 1.139.45l15.187-6.59Z" class="Vector"/>
                    <path fill="#fff" d="m243.283 47.462-1.394-3.217-13.652 5.922 1.394 3.217 13.652-5.922Z" class="Vector"/>
                    <g class="Group">
                      <path fill="#D1224A" d="m230.254 49.314-2.004.869 1.394 3.217 2.004-.87-1.394-3.216Z" class="Vector"/>
                      <path fill="#D93C5C" d="m232.197 48.472-2.004.87 1.394 3.217 2.004-.87-1.394-3.217Z" class="Vector"/>
                      <path fill="#E0556F" d="m234.135 47.632-2.004.869 1.394 3.217 2.004-.87-1.394-3.216Z" class="Vector"/>
                      <path fill="#E86F81" d="m236.079 46.788-2.004.869 1.394 3.217 2.004-.87-1.394-3.216Z" class="Vector"/>
                      <path fill="#F08993" d="m238.021 45.946-2.003.87 1.394 3.217 2.004-.87-1.395-3.217Z" class="Vector"/>
                      <path fill="#F7A2A6" d="m239.959 45.106-2.003.87 1.394 3.216 2.004-.869-1.395-3.217Z" class="Vector"/>
                      <path fill="#FFBCB8" d="m241.902 44.264-2.004.87 1.395 3.217 2.003-.87-1.394-3.217Z" class="Vector"/>
                    </g>
                    <path fill="#BCBEC0" d="M228.154 52.633a.466.466 0 1 0-.612-.242.466.466 0 0 0 .612.242Z" class="Vector"/>
                  </g>
                  <g class="Group">
                    <path fill="#fff" d="m242.243 43.827-2.073-2.81-13.314 9.84a.866.866 0 0 0-.182 1.212l1.045 1.416a.865.865 0 0 0 1.212.181l13.315-9.84h-.003Z" class="Vector"/>
                    <path fill="#fff" d="m241.844 44.135-2.082-2.82-11.969 8.844 2.082 2.82 11.969-8.844Z" class="Vector"/>
                    <g class="Group">
                      <path fill="#285B63" d="m229.546 48.859-1.757 1.298 2.082 2.82 1.757-1.298-2.082-2.82Z" class="Vector"/>
                      <path fill="#306A7D" d="m231.25 47.6-1.757 1.297 2.082 2.82 1.757-1.297-2.082-2.82Z" class="Vector"/>
                      <path fill="#387A97" d="m232.949 46.341-1.757 1.298 2.082 2.82 1.757-1.298-2.082-2.82Z" class="Vector"/>
                      <path fill="#4189B1" d="m234.652 45.084-1.756 1.298 2.082 2.82 1.757-1.298-2.083-2.82Z" class="Vector"/>
                      <path fill="#4998CB" d="m236.354 43.826-1.756 1.298 2.082 2.82 1.757-1.297-2.083-2.821Z" class="Vector"/>
                      <path fill="#51A8E5" d="m238.058 42.566-1.757 1.299 2.082 2.82 1.757-1.298-2.082-2.82Z" class="Vector"/>
                      <path fill="#59B7FF" d="M239.757 41.31 238 42.61l2.083 2.82 1.757-1.298-2.083-2.82Z" class="Vector"/>
                    </g>
                    <path fill="#BCBEC0" d="M228.244 52.58a.466.466 0 0 0-.554-.748.466.466 0 0 0 .554.748Z" class="Vector"/>
                  </g>
                </g>
              </g>
              <path fill="#000" d="M238.137 85.178h-.924v-.452a.589.589 0 0 0-1.176 0v.452h-4.89v-.452a.589.589 0 0 0-1.176 0v.452h-1.393c-.617 0-1.115.501-1.115 1.116v9.367c0 .726.588 1.317 1.316 1.317h9.164c.726 0 1.316-.59 1.316-1.317v-9.367c0-.617-.498-1.116-1.115-1.116h-.007Z" class="Vector" opacity=".15" style="mix-blend-mode:multiply"/>
              <g class="Group">
                <path fill="#FF4D58" d="M239.564 83.675h-9.162c-.727 0-1.316.59-1.316 1.317v9.167c0 .727.589 1.316 1.316 1.316h9.162c.726 0 1.316-.59 1.316-1.316v-9.167c0-.727-.59-1.317-1.316-1.317Z" class="Vector"/>
                <path fill="#9C2F36" d="M239.764 83.675h-9.563c-.617 0-1.115.502-1.115 1.116v2.224h11.794v-2.224c0-.617-.501-1.115-1.116-1.115Z" class="Vector"/>
                <g class="Group">
                  <path fill="#fff" d="M232.182 82.635a.589.589 0 0 0-.588.588v1.118a.589.589 0 0 0 1.176 0v-1.118a.589.589 0 0 0-.588-.588Zm6.656.588a.588.588 0 1 0-1.175 0v1.12a.588.588 0 1 0 1.175 0v-1.12Z" class="Vector"/>
                </g>
                <g class="Group">
                  <path fill="#fff" d="M231.241 88.869h7.394a.388.388 0 0 0 0-.775h-7.394a.388.388 0 0 0 0 .775Zm7.394 3.572h-7.394a.388.388 0 0 0 0 .774h7.394a.388.388 0 0 0 0-.775Zm0-2.174h-7.394a.388.388 0 0 0 0 .774h7.394a.388.388 0 0 0 0-.774Z" class="Vector"/>
                </g>
              </g>
              <path fill="#000" d="M261.017 82.867h-5.974a1.58 1.58 0 0 0-1.579 1.58v11.725c0 .873.707 1.58 1.579 1.58h5.974a1.58 1.58 0 0 0 1.58-1.58V84.448a1.58 1.58 0 0 0-1.58-1.58Z" class="Vector" opacity=".15" style="mix-blend-mode:multiply"/>
              <g class="Group">
                <path fill="#fff" d="M262.27 81.614h-5.974a1.58 1.58 0 0 0-1.579 1.58v11.724c0 .873.707 1.58 1.579 1.58h5.974a1.58 1.58 0 0 0 1.58-1.58V83.194a1.58 1.58 0 0 0-1.58-1.58Z" class="Vector"/>
                <path fill="#25355C" d="M263.85 83.552h-9.133v.252h9.133v-.252Zm-3.486-.672h-2.162a.281.281 0 0 1 0-.562h2.162a.281.281 0 0 1 0 .561Z" class="Vector"/>
                <path fill="#1B7FF2" d="M260.055 95.344h-1.546a.58.58 0 0 1 0-1.161h1.546a.58.58 0 0 1 0 1.161Z" class="Vector"/>
              </g>
              <path fill="#000" d="M312.158 65.46h-.198v-1.65h-14.338v1.312h-.273a.454.454 0 0 0-.455.455v11.444c0 .251.203.455.455.455h14.887a.455.455 0 0 0 .455-.455V65.988a.53.53 0 0 0-.53-.53l-.003.003Z" class="Vector" opacity=".15" style="mix-blend-mode:multiply"/>
              <g class="Group">
                <path fill="#9E7747" d="M314.035 63.706h-14.737a.53.53 0 0 0-.529.53v9.639c0 .293.237.53.529.53h14.737a.53.53 0 0 0 .53-.53v-9.639a.53.53 0 0 0-.53-.53Z" class="Vector"/>
                <path fill="#fff" d="M313.835 62.058h-14.338v10.699h14.338V62.058Z" class="Vector"/>
                <path fill="#CC995C" d="M305.289 64.57v-.745a.454.454 0 0 0-.454-.455h-5.612a.454.454 0 0 0-.454.455v11.444c0 .251.203.455.454.455h14.887a.454.454 0 0 0 .455-.455V65.48a.454.454 0 0 0-.455-.455h-8.366a.455.455 0 0 1-.455-.455Z" class="Vector"/>
                <path fill="#ED1C24" d="M312.625 63.031v.489h-1.2v-.489h1.2Zm.242-.242h-1.686v.975h1.686v-.975Z" class="Vector"/>
              </g>
              <path fill="#000" d="M288.46 86.843s-.002-.02-.005-.029c-.002-.022-.007-.043-.012-.065l-.007-.032c-.005-.021-.012-.04-.019-.063l-.01-.026a.732.732 0 0 0-.087-.16c-.005-.007-.012-.014-.017-.024-.012-.017-.027-.034-.039-.048l-.021-.025c-.015-.014-.029-.029-.046-.043-.008-.008-.015-.012-.022-.02a.824.824 0 0 0-.165-.109c-.007-.004-.017-.007-.024-.012a.784.784 0 0 0-.234-.068.865.865 0 0 0-.114-.009h-3.111v-.983a.75.75 0 0 0-.747-.747h-5.336a.75.75 0 0 0-.747.748v.982h-3.408a.833.833 0 0 0-.832.832v9.218c0 .46.373.832.832.832h13.349a.601.601 0 0 0 .14-.014c.036-.007.073-.015.107-.024a.926.926 0 0 0 .101-.04c.007-.004.017-.006.024-.011a.747.747 0 0 0 .165-.109l.022-.02.046-.043a.537.537 0 0 0 .06-.073l.017-.021a.727.727 0 0 0 .087-.16c.002-.01.007-.02.01-.027a.546.546 0 0 0 .019-.063l.007-.031a.496.496 0 0 0 .012-.065c0-.01.003-.02.005-.03a.633.633 0 0 0 .008-.096v-9.218a.44.44 0 0 0-.008-.097v-.007Zm-10.02-.735v-.731h5.335v.731h-5.335Z" class="Vector" opacity=".15" style="mix-blend-mode:multiply"/>
              <g class="Group">
                <g class="Group">
                  <path fill="#F1F2F2" d="M285.654 88.789h-5.335a.75.75 0 0 1-.748-.748V83.5a.75.75 0 0 1 .748-.748h5.335a.75.75 0 0 1 .748.748v4.542a.75.75 0 0 1-.748.748Zm-5.335-5.29v4.542h5.335V83.5h-5.335Z" class="Vector"/>
                  <path fill="#1B7FF2" d="M276.163 84.479h13.349c.459 0 .832.373.832.832v9.215c0 .46-.373.833-.832.833h-13.349a.833.833 0 0 1-.832-.833V85.31c0-.46.373-.832.832-.832v.002Z" class="Vector"/>
                  <g class="Group">
                    <path fill="#54A4FF" d="M290.344 88.96h-15.013v.547h15.013v-.546Z" class="Vector"/>
                    <path fill="#0060CF" d="M290.344 88.414h-15.013v.547h15.013v-.547Z" class="Vector"/>
                  </g>
                  <path fill="#0060CF" d="M281.874 86.425h1.93c.206 0 .373.166.373.372v3.53a.375.375 0 0 1-.375.376h-1.93a.373.373 0 0 1-.373-.373V86.8c0-.206.167-.373.373-.373l.002-.002Z" class="Vector"/>
                  <path fill="#fff" d="M283.4 87.37h-1.122a.218.218 0 0 0-.218.218v2.2c0 .12.098.218.218.218h1.122c.12 0 .218-.097.218-.218v-2.2a.218.218 0 0 0-.218-.217Z" class="Vector"/>
                  <path fill="#FFF200" d="M282.06 88.687v1.099c0 .12.097.218.218.218h1.122a.217.217 0 0 0 .218-.218v-1.099h-1.558Z" class="Vector"/>
                  <path fill="#0060CF" d="M280.319 82.751h-.01v1.517h.01v-.52h5.335v.52-1.517h-5.335Z" class="Vector"/>
                </g>
                <g class="Group">
                  <path fill="#fff" d="M277.581 88.985a.421.421 0 1 1-.843-.001.421.421 0 0 1 .843 0Zm10.727 0a.421.421 0 1 1-.843-.001.421.421 0 0 1 .843 0Z" class="Vector"/>
                </g>
              </g>
              <path fill="#000" d="M324.469 83.959h11.833c.445 0 .808.36.808.808v11.838a.808.808 0 0 1-.808.808h-11.833a.807.807 0 0 1-.807-.808V84.767c0-.445.36-.808.807-.808Z" class="Vector" opacity=".15" style="mix-blend-mode:multiply"/>
              <g class="Group">
                <path fill="#FFBF00" d="M338.056 82.33h-11.833a.807.807 0 0 0-.807.808v11.839c0 .445.36.808.807.808h11.833c.445 0 .808-.36.808-.808V83.138a.808.808 0 0 0-.808-.808Z" class="Vector"/>
                <path fill="#25355C" d="M335.937 85.912h-7.812v.5h7.812v-.5Zm0 2.824h-7.812v.5h7.812v-.5Zm0 2.821h-7.812v.501h7.812v-.5Z" class="Vector"/>
                <path fill="#1B7FF2" d="M330.918 86.146a.84.84 0 1 1-1.68 0 .84.84 0 0 1 1.68 0Zm3.231 2.839a.84.84 0 1 1-1.68 0 .84.84 0 0 1 1.68 0Zm-1.173 2.824a.84.84 0 1 1-1.68 0 .84.84 0 0 1 1.68 0Z" class="Vector"/>
              </g>
              <path fill="#000" d="M335.79 55.26a7.475 7.475 0 0 0 0-10.565 7.465 7.465 0 0 0-10.56 0 7.473 7.473 0 0 0 0 10.565 7.465 7.465 0 0 0 10.56 0Z" class="Vector" opacity=".15" style="mix-blend-mode:multiply"/>
              <g class="Group">
                <path fill="#1B7FF2" d="M337.419 53.633a7.473 7.473 0 0 0 0-10.564 7.464 7.464 0 0 0-10.559 0 7.473 7.473 0 0 0 0 10.564 7.463 7.463 0 0 0 10.559 0Z" class="Vector"/>
                <path fill="#25355C" d="M328.661 44.62v7.461h7.457v-5.384l-2.075-2.077h-5.382Z" class="Vector"/>
                <g class="Group">
                  <path fill="#1B7FF2" d="m330.345 48.911.948.334v.465l-1.432-.608v-.392l1.432-.607v.464l-.948.342v.002Zm1.869 1.237h-.358l.891-2.63h.357l-.89 2.63Zm2.226-1.242-.965-.339v-.462l1.448.608v.39l-1.448.609v-.465l.965-.343v.002Z" class="Vector"/>
                </g>
                <path fill="#425FA6" d="M334.045 44.62v2.028h2.076l-2.076-2.028Z" class="Vector"/>
              </g>
              <path fill="#000" d="M309.261 42.958h-8.444a2.797 2.797 0 0 0-2.796 2.797v8.448a2.796 2.796 0 0 0 2.796 2.798h8.444a2.803 2.803 0 0 0 1.33-.337 2.78 2.78 0 0 0 .735-.578 2.778 2.778 0 0 0 .726-1.88v-8.448a2.797 2.797 0 0 0-2.796-2.798l.005-.002Z" class="Vector" opacity=".15" style="mix-blend-mode:multiply"/>
              <g class="Group">
                <path fill="#42A16A" d="M310.886 41.332h-8.441a2.797 2.797 0 0 0-2.796 2.797v8.446a2.797 2.797 0 0 0 2.796 2.797h8.441a2.797 2.797 0 0 0 2.796-2.797v-8.446a2.797 2.797 0 0 0-2.796-2.797Z" class="Vector"/>
                <path fill="#2D6B47" d="M312.076 46.648a8.17 8.17 0 0 0-8.148 8.724h6.961a2.797 2.797 0 0 0 2.796-2.797v-5.767a8.183 8.183 0 0 0-1.609-.162v.002Z" class="Vector"/>
                <g class="Group">
                  <path fill="#42A16A" d="M307.602 47.498a1.42 1.42 0 1 1-2.008 2.007 1.42 1.42 0 0 1 2.008-2.007Z" class="Vector"/>
                  <path fill="#fff" d="M306.598 50.421c-.491 0-.982-.186-1.357-.561a1.925 1.925 0 0 1 0-2.716 1.922 1.922 0 0 1 2.714 0c.747.75.747 1.968 0 2.716a1.911 1.911 0 0 1-1.357.561Zm0-2.839a.925.925 0 0 0-.651.269.92.92 0 1 0 .649-.269h.002Z" class="Vector"/>
                </g>
                <g class="Group">
                  <path fill="#fff" d="m309.918 44.922-2.238 2.24.265.265 2.239-2.24-.266-.265Z" class="Vector"/>
                  <path fill="#fff" d="m310.168 43.974-.927.927.927.927.927-.927-.927-.927Z" class="Vector"/>
                </g>
                <g class="Group">
                  <path fill="#fff" d="m305.151 49.62-2.238 2.24.265.266 2.238-2.24-.265-.266Z" class="Vector"/>
                  <path fill="#fff" d="m302.91 53.07.927-.927-.927-.927-.927.927.927.928Z" class="Vector"/>
                </g>
              </g>
              <path fill="#000" d="M259.442 77.95a7.47 7.47 0 0 0 5.911-8.754 7.466 7.466 0 1 0-14.66 2.84 7.466 7.466 0 0 0 8.749 5.914Z" class="Vector" opacity=".15" style="mix-blend-mode:multiply"/>
              <g class="Group">
                <path fill="#1B7FF2" d="M260.62 76.336a7.47 7.47 0 0 0 6.16-8.58 7.467 7.467 0 1 0-14.736 2.417 7.467 7.467 0 0 0 8.576 6.163Z" class="Vector"/>
                <path fill="#25355C" d="M262.517 65.862v6.227h-6.223v-6.227h6.223Zm.627-.626h-7.474v7.477h7.474v-7.477Z" class="Vector" opacity=".5"/>
                <path fill="#25355C" d="M263.143 68.745h-7.266v.626h7.266v-.626Z" class="Vector"/>
                <path fill="#25355C" d="M259.721 65.364h-.626v7.35h.626v-7.35Z" class="Vector"/>
              </g>
              <path fill="#000" d="M328.139 63.794h3.961a4.746 4.746 0 0 1 4.743 4.745v3.964a4.745 4.745 0 0 1-4.743 4.745h-3.961a4.746 4.746 0 0 1-4.743-4.745v-3.964a4.745 4.745 0 0 1 4.743-4.745Z" class="Vector" opacity=".15" style="mix-blend-mode:multiply"/>
              <g class="Group">
                <path fill="#FF4D58" d="M333.852 62.165h-3.96a4.745 4.745 0 0 0-4.743 4.745v3.962a4.745 4.745 0 0 0 4.743 4.745h3.96a4.745 4.745 0 0 0 4.743-4.745V66.91a4.745 4.745 0 0 0-4.743-4.745Z" class="Vector"/>
                <path fill="#fff" d="m333.67 68.95 1.604-1.604.544-.545a.692.692 0 0 0 0-.982l-.902-.903a.694.694 0 0 0-.491-.203.704.704 0 0 0-.494.203l-.544.545-1.603 1.604-2.397-2.398-1.764 1.764 2.397 2.398-1.1 1.101-.866.867-.552 2.412 2.475-.564.109-.108 1.821-1.823 2.448 2.45 1.763-1.765-2.448-2.449Zm.571-3.729a.268.268 0 0 1 .37 0l.902.903a.26.26 0 0 1 0 .373l-.392.391-1.272-1.272.392-.392v-.003Zm-4.45 2.764-.344-.341.319-.32-.307-.307-.319.32-.344-.342.32-.32-.307-.307-.32.32-.254-.254 1.149-1.15 2.09 2.09-1.149 1.15-.23-.23.32-.319-.308-.307-.319.32.003-.003Zm-1.783 4.721.239-1.169.965.927-1.204.242Zm1.913-.62-1.272-1.272.268-.269 1.27 1.27-.268.27.002.002Zm1.831-1.831-1.255 1.256-1.272-1.273 1.255-1.256 1.456-1.457 1.604-1.604 1.272 1.272-1.604 1.605-1.456 1.457Zm2.242 1.936.319-.32-.307-.307-.319.32-.343-.344.319-.32-.307-.307-.32.32-.343-.344.319-.32-.307-.307-.319.32-.174-.175 1.149-1.15 2.14 2.142-1.149 1.15-.36-.36.002.002Zm1.045-.966a.272.272 0 0 0-.387 0 .275.275 0 0 0 0 .387c.053.053.123.08.194.08a.274.274 0 0 0 .193-.467Z" class="Vector"/>
              </g>
              <path fill="#000" d="m241.139 70.356-1.147-.663.989-.57c.651-.376.721-.945.158-1.271l-5.866-3.388c-.563-.327-1.548-.286-2.198.092l-5.404 3.121c-.65.376-.721.944-.157 1.271l1.146.663-.989.571c-.65.375-.721.944-.157 1.27l1.146.664-.989.57c-.65.376-.721.944-.157 1.271l5.865 3.388c.564.327 1.548.286 2.199-.092l5.403-3.122c.651-.375.721-.943.158-1.27l-1.147-.663.989-.571c.651-.375.721-.944.158-1.27Z" class="Vector" opacity=".15" style="mix-blend-mode:multiply"/>
              <g class="Group">
                <path fill="#FF4D58" d="m234.627 75.59-5.865-3.387c-.564-.327-.494-.896.157-1.27l5.403-3.123c.651-.374 1.635-.416 2.199-.091l5.865 3.388c.564.326.494.895-.157 1.27l-5.403 3.122c-.651.375-1.636.416-2.199.092Z" class="Vector"/>
                <path fill="#1B7FF2" d="m234.627 73.086-5.865-3.388c-.564-.327-.494-.895.157-1.27l5.403-3.122c.651-.375 1.635-.416 2.199-.092l5.865 3.388c.564.327.494.895-.157 1.27l-5.403 3.122c-.651.375-1.636.416-2.199.092Z" class="Vector"/>
                <path fill="#FFBF00" d="m234.627 70.581-5.865-3.388c-.564-.326-.494-.895.157-1.27l5.403-3.122c.651-.375 1.635-.416 2.199-.092l5.865 3.388c.564.327.494.896-.157 1.27l-5.403 3.122c-.651.376-1.636.417-2.199.092Z" class="Vector"/>
              </g>
              <path fill="#000" d="M310.753 87.054c-.121-2.75-2.399-4.954-5.149-4.988a5.22 5.22 0 0 0-4.847 7.308v.005c.169.38.379.736.626 1.063l3.299 5.619a.995.995 0 0 0 1.717 0l3.3-5.62a5.34 5.34 0 0 0 .624-1.062v-.005h.002a5.234 5.234 0 0 0 .431-2.32h-.003Z" class="Vector" opacity=".15" style="mix-blend-mode:multiply"/>
              <g class="Group">
                <path fill="#FF4D58" d="M311.701 88.121a5.234 5.234 0 0 0 .431-2.32c-.121-2.75-2.4-4.954-5.15-4.988a5.22 5.22 0 0 0-4.847 7.308v.005c.169.38.38.736.627 1.062l3.299 5.62a.995.995 0 0 0 1.717 0l3.299-5.62a5.29 5.29 0 0 0 .624-1.062v-.005Z" class="Vector"/>
                <path fill="#fff" d="M308.929 85.788a2.015 2.015 0 1 1-4.03.001 2.015 2.015 0 0 1 4.03 0Z" class="Vector"/>
              </g>
            </g>
            <g class="Group">
              <path fill="#6D6E71" d="M344.714 4.597H180.806c-2.315 0-4.197 1.898-4.197 4.23V13.6h172.299V8.827c0-2.332-1.882-4.23-4.196-4.23h.002Z" class="Vector"/>
              <path fill="#F3595F" d="M184.758 9.098c0 .535-.465.966-1.04.966-.576 0-1.04-.433-1.04-.966 0-.532.464-.965 1.04-.965.575 0 1.04.433 1.04.965Z" class="Vector"/>
              <path fill="#FDE555" d="M188.468 9.098c0 .535-.464.966-1.04.966-.575 0-1.04-.433-1.04-.966 0-.532.465-.965 1.04-.965.576 0 1.04.433 1.04.965Z" class="Vector"/>
              <path fill="#29A764" d="M192.181 9.098c0 .535-.464.966-1.04.966-.576 0-1.04-.433-1.04-.966 0-.532.464-.965 1.04-.965.576 0 1.04.433 1.04.965Z" class="Vector"/>
            </g>
            <path fill="#fff" d="M344.714 4.597h-18.3l-60.782 103.355h79.082c2.312 0 4.196-1.897 4.196-4.23V8.827c0-2.332-1.882-4.23-4.196-4.23Z" class="Vector" opacity=".15"/>
            <path fill="#231F20" d="M308.02 147.711h-90.522v2.486h90.522v-2.486Z" class="Vector"/>
            <path fill="#fff" d="M262.808 110.667c1.673 0 3.03 1.368 3.03 3.054 0 1.687-1.357 3.054-3.03 3.054-1.674 0-3.029-1.367-3.029-3.054 0-1.686 1.357-3.054 3.029-3.054Z" class="Vector"/>
            <g class="Group">
              <path fill="#58595B" d="M214.551 23.795v75.14h-29.878v-75.14h29.878Zm.38-.38h-30.64v75.903h30.64V23.415Z" class="Vector"/>
              <path fill="#FF4D58" d="M205.173 35.662a6.33 6.33 0 1 0-12.336-2.845 6.33 6.33 0 1 0 12.336 2.845Z" class="Vector"/>
              <path fill="#1B7FF2" d="M202.806 34.249a3.796 3.796 0 1 1-3.795-3.797 3.797 3.797 0 0 1 3.795 3.797Z" class="Vector"/>
              <path fill="#FFBF00" d="M199.012 36.23a1.981 1.981 0 1 0-.001-3.962 1.981 1.981 0 0 0 .001 3.963Z" class="Vector"/>
              <path fill="#BCBEC0" d="M203.757 46.305h-13.494v1.152h13.494v-1.152Zm5.222 2.519h-18.716v1.152h18.716v-1.152Z" class="Vector"/>
              <path fill="#FF4D58" d="M203.757 51.64h-13.494v1.152h13.494v-1.151Z" class="Vector"/>
              <path fill="#BCBEC0" d="M208.979 54.16h-18.716v1.152h18.716V54.16Zm-5.222 6.168h-13.494v1.152h13.494v-1.152Zm5.222 2.517h-18.716v1.152h18.716v-1.152Zm-5.222 2.819h-13.494v1.152h13.494v-1.152Zm5.222 2.516h-18.716v1.153h18.716V68.18Z" class="Vector"/>
              <path fill="#FFBF00" d="M203.757 74.352h-13.494v1.151h13.494v-1.151Z" class="Vector"/>
              <path fill="#BCBEC0" d="M208.979 76.868h-18.716v1.152h18.716v-1.152Zm-5.222 2.82h-13.494v1.151h13.494v-1.151Zm0 9.795h-13.494v1.152h13.494v-1.152Zm-7.726 2.854h-5.768v1.413h5.768v-1.413Zm12.948-10.133h-18.716v1.152h18.716v-1.152Z" class="Vector"/>
            </g>
          </g>
          <g class="Group">
            <path fill="#fff" d="M140.332 83.876c0 5.433 4.399 9.837 9.832 9.837 5.432 0 9.834-4.404 9.834-9.837 0-5.432-4.402-9.837-9.834-9.837-5.433 0-9.832 4.405-9.832 9.837Z" class="Vector"/>
            <path fill="#D68814" d="m110.939 142.405-8.061-41.461 30.964-33.26-1.623-2.279-32.594 34.528 8.153 42.029 3.161.443Z" class="Vector"/>
            <path fill="#000" d="m130.272 67.47-3.621 3.832h3.821l1.246-1.335-1.446-2.498Zm-29.039 40.758 2.475-3.02-.155-.794-3.106-.244.786 4.058Z" class="Vector"/>
            <path fill="#fff" d="M119.867 147.62c0 .222.179.404.404.404h5.345a.405.405 0 0 0 .404-.404v-4.037a.403.403 0 0 0-.404-.402h-5.345a.404.404 0 0 0-.404.402v4.037Z" class="Vector"/>
            <path fill="#D68814" d="M109.36 143.801c13.17 0 23.844 3.076 23.844 8.583h-47.69c0-5.51 10.676-8.583 23.846-8.583Z" class="Vector"/>
            <g class="Group">
              <path fill="#D68814" d="M129.527 70.42a5.052 5.052 0 1 0-.131-7.144 5.054 5.054 0 0 0 .131 7.143Z" class="Vector"/>
              <path fill="#000" d="M131.339 68.539a2.437 2.437 0 0 0 3.449-.065 2.435 2.435 0 0 0-.066-3.449 2.437 2.437 0 0 0-3.449.063 2.446 2.446 0 0 0 .063 3.451h.003Z" class="Vector"/>
            </g>
            <g class="Group">
              <path fill="#D68814" d="M96.243 100.421a5.052 5.052 0 1 0 5.05-5.052 5.05 5.05 0 0 0-5.05 5.052Z" class="Vector"/>
              <path fill="#000" d="M98.853 100.421a2.439 2.439 0 1 0 4.879 0 2.442 2.442 0 0 0-2.439-2.441 2.443 2.443 0 0 0-2.44 2.441Z" class="Vector"/>
            </g>
            <g class="Group">
              <path fill="#D68814" d="M104.31 142.182a5.05 5.05 0 1 0 10.1 0 5.052 5.052 0 0 0-5.05-5.053 5.052 5.052 0 0 0-5.05 5.053Z" class="Vector"/>
              <path fill="#000" d="M106.919 142.182a2.44 2.44 0 1 0 4.881.003 2.44 2.44 0 0 0-4.881-.003Z" class="Vector"/>
            </g>
            <path fill="#AA6913" d="m138.056 66.16-5.367 5.57 2.275 2.193 5.366-5.57-2.274-2.193Z" class="Vector"/>
            <path fill="#D68814" d="M164.523 77.168c-9.827-9.476-18.951-15.62-27.825-6.742-8.158 8.163-2.07 18.097 7.757 27.573l20.07-20.83h-.002Z" class="Vector"/>
            <g class="Group">
              <path fill="#fff" d="M133.044 65.023c.929 0 1.678.75 1.678 1.68a1.678 1.678 0 1 1-3.357 0c0-.93.752-1.68 1.679-1.68Zm-31.751 33.685a1.68 1.68 0 1 1-.002 3.36 1.68 1.68 0 0 1 .002-3.36Zm8.067 41.795a1.682 1.682 0 0 1 0 3.361 1.68 1.68 0 0 1 0-3.361Z" class="Vector"/>
            </g>
          </g>
          <g class="Group">
            <g class="Group">
              <path fill="#090213" d="M390.297 93.273a.415.415 0 0 1-.378-.244l-.909-2.019a4.065 4.065 0 0 0-2.799-2.274l-2.513-.574a.416.416 0 0 1 .184-.808l2.513.573a4.897 4.897 0 0 1 3.369 2.745l.91 2.018a.413.413 0 0 1-.377.583Z" class="Vector"/>
              <path fill="#794FE4" d="M384.417 87.755a.62.62 0 0 1-.624.615.62.62 0 0 1-.624-.615.62.62 0 0 1 .624-.614.62.62 0 0 1 .624.614Z" class="Vector"/>
              <path fill="#fff" d="M387.711 85.716h-.914a2.812 2.812 0 0 0-2.811 2.812v.813a2.812 2.812 0 0 0 2.811 2.812h.914a2.812 2.812 0 0 0 2.811-2.812v-.813a2.812 2.812 0 0 0-2.811-2.812Z" class="Vector" opacity=".5"/>
              <path fill="#090213" d="M387.315 85.875a3.078 3.078 0 0 1 0 6.156h-.121a3.082 3.082 0 0 1-3.077-3.078 3.082 3.082 0 0 1 3.077-3.078h.121Zm0-.825h-.121a3.902 3.902 0 0 0-3.902 3.903 3.902 3.902 0 0 0 3.902 3.904h.121a3.902 3.902 0 0 0 3.901-3.904 3.902 3.902 0 0 0-3.901-3.903Z" class="Vector"/>
              <path fill="#fff" d="M398.363 85.716h-.996a2.77 2.77 0 0 0-2.77 2.77v.896a2.77 2.77 0 0 0 2.77 2.77h.996a2.77 2.77 0 0 0 2.77-2.77v-.896a2.77 2.77 0 0 0-2.77-2.77Z" class="Vector" opacity=".5"/>
              <path fill="#090213" d="M397.957 85.875a3.078 3.078 0 0 1 0 6.156h-.121a3.082 3.082 0 0 1-3.077-3.078 3.08 3.08 0 0 1 3.077-3.078h.121Zm0-.825h-.121a3.902 3.902 0 0 0-3.901 3.903 3.902 3.902 0 0 0 3.901 3.904h.121a3.902 3.902 0 0 0 3.901-3.904 3.902 3.902 0 0 0-3.901-3.903Z" class="Vector"/>
              <path fill="#090213" d="M394.411 87.956h-3.633v.828h3.633v-.828Zm19.493 5.317a.415.415 0 0 1-.378-.245c-1.059-2.354-3.333-3.988-5.93-4.266l-5.556-.593a.414.414 0 0 1 .087-.822l5.556.592c2.89.31 5.42 2.13 6.598 4.75a.413.413 0 0 1-.377.584Z" class="Vector"/>
              <path fill="#794FE4" d="M402.369 87.72c0 .336-.276.61-.619.61a.614.614 0 0 1-.62-.61c0-.337.276-.61.62-.61.343 0 .619.273.619.61Z" class="Vector"/>
            </g>
            <g class="Group">
              <path fill="#FFC440" d="M377.812 98.4h41.183v-5.54h-41.183v5.54Z" class="Vector"/>
              <path fill="#FF6C4C" d="M385.46 92.857h-7.645V98.4h16.493l-8.848-5.544Z" class="Vector"/>
              <path fill="#fff" d="M395.456 96.731h-12.562a1.138 1.138 0 0 1-1.147-1.13c0-.624.513-1.13 1.147-1.13h12.562c.634 0 1.147.506 1.147 1.13 0 .624-.513 1.13-1.147 1.13Z" class="Vector"/>
              <path fill="#FF6C4C" d="M410.585 98.4h.656v-5.54h-.656v5.54Zm1.42-5.54v5.54h.656v-5.54h-.656Z" class="Vector"/>
            </g>
            <g class="Group">
              <g class="Group">
                <path fill="#FFC440" d="M380.644 141.195h41.59c.832 0 1.506.675 1.506 1.507v6.108c0 .833-.674 1.508-1.506 1.508h-41.59v-9.123Z" class="Vector"/>
                <path fill="#785738" d="M416.896 141.195h-4.801l.329.179c.496.271.803.786.803 1.343v6.069c0 .552-.3 1.06-.786 1.336l-.346.193h4.801l.346-.193c.486-.274.786-.784.786-1.336v-6.069a1.53 1.53 0 0 0-.803-1.343l-.329-.179Zm-7.113 0h-4.802l.329.179c.496.271.803.786.803 1.343v6.069c0 .552-.3 1.06-.786 1.336l-.346.193h4.802l.345-.193c.487-.274.787-.784.787-1.336v-6.069c0-.559-.308-1.072-.803-1.343l-.329-.179Z" class="Vector"/>
              </g>
              <g class="Group">
                <g class="Group">
                  <path fill="#fff" d="M377.011 149.856h11.949v-8.199h-11.949c2.008 0 2.008 8.199 0 8.199Z" class="Vector"/>
                  <path fill="#E6E6E6" d="M378.513 145.492h10.444v-.234h-10.451l.007.234Zm-.162-1.696h10.606v-.235h-10.652c.017.078.031.155.046.235Zm.114.849h10.492v-.234H378.44c.01.077.017.155.025.234Zm-.325-1.696h10.814v-.235h-10.898c.029.075.058.153.084.235Zm.143 5.092h10.671v-.235h-10.622c-.015.08-.032.157-.049.235Zm-.261.849h10.935v-.235h-10.846c-.029.083-.058.16-.089.235Zm.479-2.546h10.456v-.234h-10.446c0 .077-.005.157-.01.234Zm-.073.85h10.526v-.235h-10.499c-.007.08-.017.157-.027.235Z" class="Vector"/>
                </g>
                <path fill="#000" d="M388.96 141.657h-1.21v8.199h1.21v-8.199Z" class="Vector" opacity=".1" style="mix-blend-mode:multiply"/>
                <path fill="#D19100" d="M377.214 149.529H387.9c.448 0 .81-.358.81-.799v-5.948a.804.804 0 0 0-.81-.798h-10.686v-.789H387.9a1.6 1.6 0 0 1 1.611 1.587v5.948a1.6 1.6 0 0 1-1.611 1.588h-10.686v-.789Z" class="Vector"/>
              </g>
            </g>
            <g class="Group">
              <path fill="#A6361E" d="M426.273 108.422s3.693.917 3.909 3.847c.215 2.931-1.778 4.906-2.845 5.31-1.064.404-1.524.404-1.524.404s-2.026-7.955.458-9.564l.002.003Z" class="Vector"/>
              <g class="Group">
                <path fill="#fff" d="M372.253 108.078h54.499l.316.261-.795.083c-.658 2.957-.574 6.173 0 9.563h-54.02c2.937 0 2.937-9.905 0-9.905v-.002Z" class="Vector"/>
                <g class="Group">
                  <path fill="#E6E6E6" d="M374.435 113.741c.005-.095.01-.189.012-.284h51.371c0 .095.005.189.007.284h-51.39Zm-.087-2.336h51.511l-.017.284h-51.46a6.885 6.885 0 0 0-.036-.284h.002Zm.105 1.31c0-.095-.005-.189-.01-.284h51.376v.284h-51.366Zm-.083 1.766h51.494l.017.283h-51.549c.014-.094.026-.189.038-.283Zm51.55-3.816h-51.705c-.022-.097-.043-.191-.068-.283h51.804c-.009.094-.022.188-.031.283Zm.127-1.026H373.91a4.146 4.146 0 0 0-.123-.283h52.306a23.88 23.88 0 0 0-.046.283Zm-52.18 6.892h52.193l.036.283h-52.36c.046-.09.09-.186.131-.283Zm.324-1.024h51.751l.029.283h-51.855c.027-.092.051-.186.073-.283h.002Z" class="Vector"/>
                </g>
              </g>
              <path fill="#000" d="M428.598 113.003c0-2.585-2.127-4.681-4.751-4.681h1.362c2.624 0 4.75 2.096 4.75 4.681 0 2.584-2.126 4.68-4.75 4.68h-1.362c2.624 0 4.751-2.096 4.751-4.68Z" class="Vector" opacity=".1" style="mix-blend-mode:multiply"/>
              <path fill="#FF6C4C" d="M371.664 117.588h53.591c2.551 0 4.627-2.045 4.627-4.556 0-2.512-2.076-4.557-4.627-4.557h-53.591v-.954h53.591c3.088 0 5.594 2.466 5.594 5.511 0 3.044-2.503 5.51-5.594 5.51h-53.591v-.954Z" class="Vector"/>
            </g>
            <path fill="#000" d="m374.443 113.629 49.837-6.108h-52.616v.954h1.519c.234.22.435.52.604.881.044.092.085.186.124.283a6.835 6.835 0 0 1 .304 1.024c.054.239.097.486.133.742l.037.284a12.803 12.803 0 0 1 .065 1.764c0 .058-.005.116-.007.174v.002Z" class="Vector" opacity=".15" style="mix-blend-mode:multiply"/>
            <g class="Group">
              <g class="Group">
                <path fill="#0098FA" d="M397.989 98.4h-31.702v9.121h31.702v-9.12Z" class="Vector"/>
                <path fill="#00A1FD" d="M371.429 98.4h-1.942v9.121h1.942v-9.12Z" class="Vector"/>
                <path fill="#56DCFE" d="M373.371 98.4h-1.942v9.121h1.942v-9.12Zm16.936 2.365h-.07a2.194 2.194 0 0 0-2.194 2.195v.002c0 1.212.982 2.195 2.194 2.195h.07a2.195 2.195 0 0 0 2.194-2.195v-.002a2.195 2.195 0 0 0-2.194-2.195Z" class="Vector"/>
              </g>
              <g class="Group">
                <g class="Group">
                  <path fill="#fff" d="M423.794 98.793H398.54v8.198h25.254v-8.198Z" class="Vector"/>
                  <path fill="#E6E6E6" d="M423.794 99.85H398.54v.235h25.254v-.235Zm0 .85H398.54v.234h25.254v-.234Zm0 .847H398.54v.234h25.254v-.234Zm0 .849H398.54v.235h25.254v-.235Zm0 .847H398.54v.235h25.254v-.235Zm0 .849H398.54v.235h25.254v-.235Zm0 .85H398.54v.235h25.254v-.235Zm0 .847H398.54v.235h25.254v-.235Z" class="Vector"/>
                </g>
                <path fill="#000" d="M399.75 98.793h-1.345v8.198h1.345v-8.198Z" class="Vector" opacity=".1" style="mix-blend-mode:multiply"/>
                <path fill="#007CCC" d="M424.28 106.733h-25.491v-7.546h25.491v-.786h-26.291v9.12h26.291v-.788Z" class="Vector"/>
              </g>
            </g>
            <g class="Group">
              <g class="Group">
                <path fill="#4D39AB" d="M428.544 129.896h-51.593a2.05 2.05 0 0 1-2.049-2.05v-7.252a2.05 2.05 0 0 1 2.049-2.05h51.593v11.354-.002Z" class="Vector"/>
                <path fill="#0098FA" d="M391.887 118.542h.853l-.355.484a2.836 2.836 0 0 0-.552 1.677v7.08c0 .664.235 1.307.663 1.818l.244.293h-.853l-.366-.453a2.419 2.419 0 0 1-.542-1.522v-7.364c0-.518.167-1.023.479-1.442l.429-.574v.003Z" class="Vector"/>
                <path fill="#794FE4" d="M380.308 128.635h6.688v-8.69h-6.688v8.69Z" class="Vector"/>
                <path fill="#FFC440" d="M382.586 126.673h2.134v-4.765h-2.134v4.765Z" class="Vector"/>
              </g>
              <path fill="#000" d="M376.965 118.542c-.152 0-.3.017-.443.048l25.67 4.247 5.788-4.293h-31.015v-.002Z" class="Vector" opacity=".15" style="mix-blend-mode:multiply"/>
              <g class="Group">
                <g class="Group">
                  <path fill="#fff" d="M429.507 119.115h-30.42v10.205h30.42v-10.205Z" class="Vector"/>
                  <path fill="#E6E6E6" d="M429.507 120.432h-30.42v.293h30.42v-.293Zm0 1.055h-30.42v.293h30.42v-.293Zm0 1.057h-30.42v.293h30.42v-.293Zm0 1.055h-30.42v.293h30.42v-.293Zm0 1.058h-30.42v.293h30.42v-.293Zm0 1.055h-30.42v.293h30.42v-.293Zm0 1.058h-30.42v.292h30.42v-.292Zm0 1.055h-30.42v.292h30.42v-.292Z" class="Vector"/>
                </g>
                <path fill="#000" d="M400.591 119.115h-1.504v10.205h1.504v-10.205Z" class="Vector" opacity=".1" style="mix-blend-mode:multiply"/>
                <path fill="#7355FF" d="M430.114 128.914h-29.709a1.003 1.003 0 0 1-1.009-.995v-7.405c0-.547.453-.995 1.009-.995h29.709v-.98h-29.709c-1.108 0-2.005.884-2.005 1.975v7.405c0 1.091.897 1.975 2.005 1.975h29.709v-.98Z" class="Vector"/>
              </g>
            </g>
            <g class="Group">
              <g class="Group">
                <path fill="#FF6C4C" d="M418.637 141.17h-42.383v-11.274h42.383a5.636 5.636 0 0 1 5.633 5.636 5.636 5.636 0 0 1-5.633 5.636v.002Z" class="Vector"/>
                <path fill="#fff" d="M409.879 141.17h-.764c3.328-3.615 3.149-7.383 0-11.274h.764c2.873 3.998 3.294 7.79 0 11.274Z" class="Vector"/>
                <path fill="#fff" d="M407.818 141.17h-.764c3.328-3.615 3.149-7.383 0-11.274h.764c2.873 3.998 3.294 7.79 0 11.274Z" class="Vector"/>
                <g class="Group">
                  <path fill="#D13817" d="M419.43 139.322h-5.986c2.416-2.563 2.416-5.201 0-7.763h5.986c2.416 2.562 2.416 5.2 0 7.763Z" class="Vector"/>
                  <path fill="#fff" d="M419.075 136.868h-1.911c.336-1.116.336-1.738 0-2.853h1.911c.336 1.115.336 1.737 0 2.853Z" class="Vector"/>
                </g>
              </g>
              <path fill="#000" d="M424.261 135.208c-.172-2.962-2.663-5.312-5.713-5.312h-41.583l12.208.571s4.344 1.595 4.024 4.743h31.061l.003-.002Z" class="Vector" opacity=".15" style="mix-blend-mode:multiply"/>
              <g class="Group">
                <g class="Group">
                  <path fill="#fff" d="M366.465 140.599h23.583l3.151-3.032v-4.213l-3.509-2.887h-23.225v10.132Z" class="Vector"/>
                  <path fill="#E6E6E6" d="M366.466 132.062h25.096v-.29h-25.096v.29Zm-.001 1.05h26.415v-.29h-26.415v.29Zm0 1.048h26.734v-.29h-26.734v.29Zm0 1.048h26.734v-.291h-26.734v.291Zm0 1.048h26.734v-.291h-26.734v.291Zm0 1.05h26.734v-.291h-26.734v.291Zm0 1.05h26.415v-.29h-26.415v.29Zm0 1.048h25.559v-.29h-25.559v.29Z" class="Vector"/>
                </g>
                <path fill="#000" d="M391.577 135.503c0-2.643-2.174-4.787-4.859-4.787h1.393c2.682 0 4.859 2.144 4.859 4.787s-2.174 4.787-4.859 4.787h-1.393c2.682 0 4.859-2.144 4.859-4.787Z" class="Vector" opacity=".1" style="mix-blend-mode:multiply"/>
                <path fill="#BF5139" d="M365.861 140.195h22.295c2.61 0 4.734-2.091 4.734-4.663s-2.124-4.663-4.734-4.663h-22.295v-.975h22.295c3.162 0 5.723 2.524 5.723 5.636s-2.561 5.636-5.723 5.636h-22.295v-.976.005Z" class="Vector"/>
              </g>
            </g>
            <g class="Group">
              <path fill="#000" d="M417.411 122.544v3.48l1.083-.769 1.084.769v-3.48h-2.167Z" class="Vector" opacity=".15" style="mix-blend-mode:multiply"/>
              <path fill="#FF6C4C" d="M417.113 122.544v2.989l1.081-.772 1.084.772v-2.989h-2.165Z" class="Vector"/>
              <path fill="#000" d="M419.28 122.544h-2.167v.412h2.167v-.412Z" class="Vector" opacity=".15" style="mix-blend-mode:multiply"/>
            </g>
            <g class="Group">
              <path fill="#000" d="M387.912 110.379v4.276l1.098-.781 1.098.781v-4.276h-2.196Z" class="Vector" opacity=".15" style="mix-blend-mode:multiply"/>
              <path fill="#794FE4" d="M387.61 110.379v3.775l1.098-.779 1.096.779v-3.775h-2.194Z" class="Vector"/>
              <path fill="#000" d="M389.806 110.379h-2.196v.419h2.196v-.419Z" class="Vector" opacity=".15" style="mix-blend-mode:multiply"/>
            </g>
            <g class="Group">
              <path fill="#000" d="M419.759 110.089a1.187 1.187 0 0 1-.302-.787v-4.029a1.65 1.65 0 0 0-.499-1.181h-1.049a1.2 1.2 0 0 1 1.064 1.181v4.029c0 .407.15.799.423 1.104l.859.961.014-.325.351.008-.859-.961h-.002Z" class="Vector" opacity=".15" style="mix-blend-mode:multiply"/>
              <path fill="#4A3195" d="M419.549 110.089a1.182 1.182 0 0 1-.303-.786v-4.03c0-.462-.191-.878-.498-1.181h-1.05a1.2 1.2 0 0 1 1.064 1.181v4.03c0 .406.15.798.424 1.103l.858.961.015-.325.351.008-.859-.961h-.002Z" class="Vector"/>
            </g>
            <path fill="#fff" d="M389.177 88.852a.37.37 0 0 1-.372.368.37.37 0 0 1-.373-.368.37.37 0 0 1 .373-.368.37.37 0 0 1 .372.368Zm7.955.23a.37.37 0 0 1-.372.368.37.37 0 0 1-.373-.368.37.37 0 0 1 .373-.368.37.37 0 0 1 .372.368Z" class="Vector"/>
          </g>
          <g class="Group">
            <g class="Group">
              <path fill="#E6E7E8" d="M85.514 155.518h-6.322v176.325h6.322V155.518Z" class="Vector"/>
              <path fill="#BCBEC0" d="M85.514 156.472v-.954h-6.322v5.876l6.322-4.922Z" class="Vector" opacity=".25"/>
            </g>
            <g class="Group">
              <path fill="#E6E7E8" d="M444.51 155.518h-6.323v176.325h6.323V155.518Z" class="Vector"/>
              <path fill="#BCBEC0" d="M444.51 156.472v-.954h-6.323v5.876l6.323-4.922Z" class="Vector" opacity=".25"/>
            </g>
            <path fill="#fff" d="M457.718 150.318H67.804v5.2h389.914v-5.2Z" class="Vector"/>
          </g>
          <g class="Group">
            <g class="Group">
              <g class="Group">
                <g class="Group">
                  <g class="Group">
                    <g class="Group">
                      <path fill="#808285" d="m345.558 119.667-.217-.101c.176-.874-.632-1.109-.951-1.164-.317-.071-1.151-.17-1.328.706l-.239.01-5.558 27.609c-.17.84-.085 1.713.244 2.504l.089.216a.535.535 0 0 0 .835.205l.135-.111c.76-.629 1.28-1.5 1.473-2.466l5.517-27.403v-.005Z" class="Vector"/>
                      <path fill="#414042" d="M344.39 118.399c-.316-.07-1.151-.169-1.327.707l-.24.009-.109.545 2.736.552.109-.545-.218-.102c.177-.873-.631-1.108-.951-1.164v-.002Z" class="Vector"/>
                    </g>
                    <path fill="#E6E6E6" d="M338.687 146.816a.574.574 0 0 1-.45-.677l.438-2.174a.574.574 0 1 1 1.127.228l-.438 2.173a.574.574 0 0 1-.677.45Z" class="Vector"/>
                    <path fill="#8CC63F" d="M339.141 144.556a.43.43 0 1 1 .172-.843.43.43 0 0 1-.172.843Z" class="Vector"/>
                  </g>
                  <path fill="#333" d="M328.691 147.196h22.138a2.277 2.277 0 0 1 2.276 2.277v.845h-26.693v-.845a2.277 2.277 0 0 1 2.276-2.277h.003Z" class="Vector"/>
                  <path fill="#F2AD96" d="m336.585 127.984 4.685-1.086-.365 1.812 7.179.058a1.652 1.652 0 0 1 1.637 1.653v.249c0 .913-.74 1.653-1.652 1.653v4.92c0 2.224-.043 4.491-.44 6.497-.721 3.635-3.955 6.229-7.658 6.229h-4.818l-3.65-15.7c.204-1.808 3.604-5.227 5.082-6.285Z" class="Vector"/>
                </g>
                <path fill="#20448A" d="m331.136 134.269 5.42 1.628a7.4 7.4 0 0 1-2.126 14.486h-15.751l12.457-16.114Z" class="Vector"/>
              </g>
              <path fill="#20448A" d="m283.373 79.477 23.21 6.35a14.514 14.514 0 0 1 9.76 8.91l14.792 39.532c2.92 7.799-2.844 16.114-11.167 16.114h-59.306V77.551l22.711 1.926Z" class="Vector"/>
              <path fill="#132445" d="M319.969 150.383h14.461c.336 0 .668-.022.994-.068-21.889.458-25.268-11.291-25.469-17.793l-1.245 17.164-.046.629.026.068h11.279Z" class="Vector"/>
              <path fill="#20448A" d="m216.612 138.211 3.834 51.368h83.641l6.17-57.29-93.645 5.922Z" class="Vector"/>
              <path fill="#20448A" d="m242.147 79.477-23.21 6.35a14.514 14.514 0 0 0-9.76 8.91l-14.797 39.544c-2.917 7.792 2.842 16.102 11.16 16.102h59.318V77.551l-22.711 1.926Z" class="Vector"/>
              <path fill="#132445" d="m217.162 150.318-1.348-33.315s-.449 23.274-7.812 33.315c-.017.022-.031.043-.048.068h9.174l.034-.068Z" class="Vector"/>
            </g>
            <path fill="#F2AD96" d="M270.192 56.22h-14.82l-7.411 21.33h29.642l-7.411-21.33Z" class="Vector"/>
            <path fill="#2E1708" d="M262.524 63.99c7.268 0 14.041-3.73 17.891-9.898 1.945-3.117 3.527-6.805 3.849-10.824.94-11.773 0-29.669 0-29.669s-14.592 4.71-23.063 4.238c-7.07-.392-24.954 6.427-19.197 30.038 2.307 9.46 10.787 16.112 20.52 16.112v.002Z" class="Vector"/>
            <path fill="#3462BA" d="M242.146 79.477h41.273s-6.465-6.824-20.636-6.824-20.637 6.824-20.637 6.824Z" class="Vector"/>
            <path fill="#1C0E05" d="M280.416 54.092c1.717-2.751 3.149-5.948 3.683-9.423-.612-16.335-10.642-16.335-20.684-16.335-11.378 0-24.548 1.491-21.241 20.178a21.12 21.12 0 0 0 20.351 15.477c7.268 0 14.04-3.729 17.891-9.897Z" class="Vector"/>
            <g class="Group">
              <g class="Group">
                <path fill="#000" d="m218.518 300.67-3.173 14.65-.888 3.347c-1.2 4.523 2.208 8.954 6.884 8.954h10.913c4.061 0 7.3-3.391 7.116-7.449l-.806-17.777-18.222-1.728h-1.824v.003Z" class="Vector"/>
                <path fill="#414042" d="M232.254 325.106h-10.913c-3.585 0-6.419-2.604-7.012-5.856-.774 4.312 2.535 8.373 7.012 8.373h10.913c4.061 0 7.3-3.39 7.116-7.449l-.058-1.285c-.445 3.49-3.415 6.217-7.058 6.217Z" class="Vector"/>
              </g>
              <path fill="#1F120A" d="m217.662 205.398.856 95.272c0 6.977 21.757 6.977 21.757 0l7.802-93.712-30.415-1.558v-.002Z" class="Vector"/>
            </g>
            <g class="Group">
              <g class="Group">
                <path fill="#000" d="m307.824 300.67 3.173 14.65.888 3.347c1.2 4.523-2.208 8.954-6.884 8.954h-10.913a7.125 7.125 0 0 1-7.116-7.449l.806-17.777L306 300.667h1.824v.003Z" class="Vector"/>
                <path fill="#414042" d="M294.091 325.106h10.913c3.584 0 6.419-2.604 7.012-5.856.774 4.312-2.535 8.373-7.012 8.373h-10.913c-4.061 0-7.3-3.39-7.116-7.449l.058-1.285c.445 3.49 3.415 6.217 7.058 6.217Z" class="Vector"/>
              </g>
              <path fill="#1F120A" d="m308.683 205.398-.856 95.272c0 6.977-21.757 6.977-21.757 0l-7.802-93.712 30.415-1.558v-.002Z" class="Vector"/>
            </g>
            <path fill="#232324" d="M302.242 227.687h-80.011a8.018 8.018 0 0 0-8.016 8.02v.003a8.017 8.017 0 0 0 8.016 8.019h80.011a8.017 8.017 0 0 0 8.015-8.019v-.003c0-4.429-3.589-8.02-8.015-8.02Z" class="Vector"/>
            <path fill="#000" d="M304.624 229.706c-.65-.963-2.102-1.087-3.34-1.104a2257.299 2257.299 0 0 0-46.55-.176c-7.723.048-15.446.137-23.167.266-3.1.051-15.008-.968-9.904 4.828 2 2.272 6.017 2.049 8.903 2.09 4.051.058 8.093-.329 12.135-.513 19.516-.893 39.57 3.536 58.365-1.345 1.062-.276 2.155-.603 2.949-1.302.793-.699 1.185-1.883.607-2.742l.002-.002Z" class="Vector" opacity=".15" style="mix-blend-mode:multiply"/>
            <g class="Group">
              <path fill="#1B1B1C" d="M266.162 242.272h-6.475v61.687h6.475v-61.687Z" class="Vector"/>
              <path fill="#000" d="M266.796 267.967h-7.742v16.235h7.742v-16.235Z" class="Vector"/>
              <path fill="#1B1B1C" d="M273.982 306.725a3.278 3.278 0 0 0-3.277-3.279h-15.879a3.28 3.28 0 0 0-3.278 3.279 3.796 3.796 0 0 1-3.795 3.796h-6.612a4.777 4.777 0 0 0-4.775 4.777h51.927a4.777 4.777 0 0 0-4.774-4.777h-5.74a3.796 3.796 0 0 1-3.795-3.796h-.002Z" class="Vector"/>
              <g class="Group">
                <path fill="#1B1B1C" d="M247.896 323.675a6.828 6.828 0 1 0-13.3-3.102 6.828 6.828 0 1 0 13.3 3.102Z" class="Vector"/>
                <path fill="#000" d="M241.25 325.145a3.014 3.014 0 0 0 3.013-3.015 3.013 3.013 0 1 0-6.027 0 3.014 3.014 0 0 0 3.014 3.015Z" class="Vector"/>
              </g>
              <g class="Group">
                <path fill="#1B1B1C" d="M268.842 322.955a6.83 6.83 0 0 0-5.949-7.61 6.83 6.83 0 0 0-7.606 5.952 6.828 6.828 0 1 0 13.555 1.658Z" class="Vector"/>
                <path fill="#000" d="M262.067 325.145a3.015 3.015 0 1 0-.002-6.03 3.015 3.015 0 0 0 .002 6.03Z" class="Vector"/>
              </g>
              <g class="Group">
                <path fill="#1B1B1C" d="M289.635 323.246a6.83 6.83 0 1 0-13.483-2.17 6.83 6.83 0 1 0 13.483 2.17Z" class="Vector"/>
                <path fill="#000" d="M282.882 325.145a3.014 3.014 0 1 0 0-6.029 3.014 3.014 0 0 0 0 6.029Z" class="Vector"/>
              </g>
            </g>
            <path fill="#29180E" d="m220.446 189.579-2.948 10.243s-7.958 32.083 18.651 32.083h58.455s19.158-.082 14.06-27.405c-2.421-12.969-4.577-14.924-4.577-14.924h-83.641v.003Z" class="Vector"/>
            <g class="Group">
              <path fill="#232324" d="M282.752 118.542h-39.984c-6.03 0-11.126 5.164-11.907 12.07l-9.196 69.268c-.938 8.303 4.656 15.664 11.907 15.664h58.376c7.248 0 12.845-7.363 11.907-15.664l-9.196-69.268c-.781-6.904-5.877-12.07-11.907-12.07Z" class="Vector"/>
              <path fill="#1B1B1C" d="M263.245 177.81c8.589 0 15.552-6.966 15.552-15.56 0-8.593-6.963-15.56-15.552-15.56-8.589 0-15.552 6.967-15.552 15.56 0 8.594 6.963 15.56 15.552 15.56Z" class="Vector"/>
              <path fill="#000" d="m276.287 170.723-13.042-8.473-1.371 13.068.827 2.48c.181.008.363.015.544.015 5.466 0 10.27-2.824 13.042-7.088v-.002Z" class="Vector" opacity=".2"/>
              <path fill="#000" d="M263.245 240.736a4.15 4.15 0 0 1-4.148-4.15v-70.188a4.149 4.149 0 1 1 8.296 0v70.188a4.15 4.15 0 0 1-4.148 4.15Z" class="Vector"/>
              <path fill="#000" d="M310.027 233.829c-.846 3.521-4.007 6.142-7.785 6.142h-18.946a22.495 22.495 0 0 1-15.903-6.589h-8.294a22.483 22.483 0 0 1-15.903 6.589h-20.965c-3.778 0-6.939-2.621-7.786-6.142a8.046 8.046 0 0 0-.23 1.881c0 4.43 3.59 8.019 8.016 8.019 30.575 1.646 59.036 2.401 80.008 0a8.017 8.017 0 0 0 8.016-8.019c0-.649-.085-1.276-.23-1.881h.002Z" class="Vector"/>
            </g>
          </g>
          <g class="Group">
            <g class="Group">
              <path fill="#BCBEC0" d="m151.164 136.68-1.784.198.122 1.108 1.784-.197-.122-1.109Z" class="Vector"/>
              <path fill="#F1F2F2" d="m148.676 112.709-2.062.228 2.725 24.661 2.063-.228-2.726-24.661Z" class="Vector"/>
              <path fill="#D1D3D4" d="m147.587 112.826-.658.073 2.725 24.661.659-.072-2.726-24.662Z" class="Vector"/>
              <path fill="#231F20" d="m148.628 112.226-2.315.256.88 7.962 2.581-.286-.624-5.641.324-.036.532 4.809.279-.032s.524-7.274-1.655-7.035l-.002.003Z" class="Vector"/>
              <path fill="#414042" d="m148.715 112.398.179 1.623s.781-.36.904.738l.477 4.303s-.128-2.926-.266-4.293c-.138-1.365-.711-2.34-1.294-2.371Zm-.38.041-.524.058.849 7.68.524-.058-.849-7.68Z" class="Vector"/>
            </g>
            <g class="Group">
              <path fill="#C2B59B" d="m155.177 115.131-2.67.127 1.014 21.428 2.669-.126-1.013-21.429Z" class="Vector"/>
              <path fill="#948A76" d="m154.348 115.166-1 .047 1.013 21.429 1.001-.047-1.014-21.429Z" class="Vector"/>
              <path fill="#231F20" d="M152.157 112.306c1.1-.054 3.004-.143 3.004-.143l.336 7.105-3.389-.92-.232-4.924-.254.012.242 5.13-.348.017-.235-4.963s-.227-1.261.876-1.314Z" class="Vector"/>
              <path fill="#414042" d="m155.497 119.268-.846-.23-.324-6.834.834-.039.336 7.105v-.002Zm-.438 21.356-1.553-3.926 2.779-.133-1.226 4.059Z" class="Vector"/>
              <path fill="#231F20" d="m155.059 140.624-1.12-3.947.958-.044.162 3.991Z" class="Vector"/>
            </g>
            <g class="Group">
              <g class="Group">
                <path fill="#4781F5" d="m157.506 114.218-3.013 22.327 2.169.293 3.014-22.327-2.17-.293Z" class="Vector"/>
                <path fill="#231F20" d="m158.59 114.364-3.013 22.326.647.088 3.013-22.327-.647-.087Zm-1.083-.146-3.013 22.327.465.063 3.013-22.327-.465-.063Z" class="Vector"/>
              </g>
              <path fill="#E6E7E8" d="m160.095 112.061-.394 2.919-2.325-.315.395-2.918a1.175 1.175 0 0 1 1.318-1.007 1.174 1.174 0 0 1 1.006 1.319v.002Z" class="Vector"/>
              <path fill="#C4C5C6" d="m157.434 114.198-.061.458 2.325.314.061-.458-2.325-.314Zm.073-.429-.027.197 2.325.314.027-.197-2.325-.314Z" class="Vector"/>
              <path fill="#C49A6C" d="m156.66 136.834-.007.017-1.321 2.526-.841-2.836s.101-.264.338-.174c.237.089.211.278.457.152.245-.125.462-.118.632.078.169.198.213-.005.367-.087.155-.083.429.007.375.322v.002Z" class="Vector"/>
              <path fill="#231F20" d="m155.332 139.377-.324-1.093c.404-.085.67-.017.844.099l-.52.994Z" class="Vector"/>
            </g>
            <path fill="#F1F2F2" d="M145.029 124.763h16.706v22.922a2.634 2.634 0 0 1-2.632 2.633h-11.445a2.634 2.634 0 0 1-2.632-2.633v-22.922h.003Z" class="Vector"/>
            <path fill="#D1D3D4" d="M161.734 131.576h-6.112c-.815 0-1.477.66-1.477 1.478v6.304c0 .815.66 1.479 1.477 1.479h6.112v-9.261Z" class="Vector"/>
          </g>
        </g>
      </g>
    </g>
  </g>
</svg>
