<svg xmlns="http://www.w3.org/2000/svg" width="1008" height="811" fill="none" viewBox="0 0 1008 811">
  <path fill="url(#a)" d="M321 6c63.383-12.204 135.379-2.668 217.248 25.791 82.217 27.998 158.749 18.479 239.49 35.972 81.087 17.032 167.305 61.773 204.653 131.098 37.809 69.672 26.399 164.39 12.226 257.024-14.06 93.442-30.999 183.993-82.726 246.884-51.266 63.238-136.164 98.243-217.885 106.02-81.374 7.316-158.762-12.709-246.24-10.715-88.286 2.108-185.854 26.12-257.566-3.354-71.712-29.475-117.108-112.089-150.262-198.484-33.041-85.586-53.033-175.067-30.01-251.64 22.676-76.113 88.714-139.779 141.395-216.401C203.196 51.687 257.965 17.743 321 6Z"/>
  <defs>
    <linearGradient id="a" x1="986.832" x2="20.211" y1="339.449" y2="523.854" gradientUnits="userSpaceOnUse">
      <stop stop-color="#2D46A0"/>
      <stop offset="1" stop-color="#6F8EFF"/>
    </linearGradient>
  </defs>
</svg>
