<svg xmlns="http://www.w3.org/2000/svg" width="965" height="976" fill="none" viewBox="0 0 965 976">
  <path fill="url(#a)" d="M25.6 226.191C68.875 178.3 179.082 178.3 261.593 151.758c82.511-27.119 137.903-80.78 212.913-115.4 75.01-35.197 170.792-51.353 242.34-18.464 72.125 32.889 120.016 115.4 164.445 197.911 45.006 83.088 85.973 165.599 82.511 246.956-2.885 81.357-49.622 160.406-110.207 215.798-60.585 54.815-134.441 85.396-203.104 139.634-69.24 54.815-132.71 132.71-207.72 152.328-75.01 19.618-160.983-19.041-239.455-68.086-77.895-48.468-147.712-107.899-175.408-182.909-27.696-74.433-13.271-165.022-17.31-257.919-4.616-92.32-28.273-188.102 15.002-235.416Z"/>
  <defs>
    <linearGradient id="a" x1="805" x2="144" y1="127.5" y2="856.5" gradientUnits="userSpaceOnUse">
      <stop stop-color="#2D46A0"/>
      <stop offset="1" stop-color="#6F8EFF"/>
    </linearGradient>
  </defs>
</svg>
