<svg width="164" height="42" viewBox="0 0 164 42" fill="none" xmlns="http://www.w3.org/2000/svg">
<path d="M1.938 33V9.2H13.668C16.32 9.2 18.6547 9.68733 20.672 10.662C22.6893 11.614 24.2647 12.974 25.398 14.742C26.5313 16.51 27.098 18.618 27.098 21.066C27.098 23.5367 26.5313 25.6673 25.398 27.458C24.2647 29.226 22.6893 30.5973 20.672 31.572C18.6547 32.524 16.32 33 13.668 33H1.938ZM9.962 26.744H13.328C14.4613 26.744 15.4473 26.5287 16.286 26.098C17.1473 25.6673 17.816 25.0327 18.292 24.194C18.768 23.3327 19.006 22.29 19.006 21.066C19.006 19.8647 18.768 18.8447 18.292 18.006C17.816 17.1673 17.1473 16.5327 16.286 16.102C15.4473 15.6713 14.4613 15.456 13.328 15.456H9.962V26.744ZM84.4693 33V15.422H77.4993V9.2H99.4633V15.422H92.4933V33H84.4693Z" fill="#D68814"/>
<path d="M37.3718 18.04H47.9798V23.82H37.3718V18.04ZM37.9158 26.948H49.8158V33H30.0278V9.2H49.3738V15.252H37.9158V26.948ZM60.0528 33L49.9888 9.2H58.6248L66.8188 29.294H61.6848L70.1168 9.2H78.0048L67.9408 33H60.0528ZM114.059 33.544C112.11 33.544 110.308 33.238 108.653 32.626C107.021 32.014 105.605 31.1527 104.403 30.042C103.202 28.9087 102.261 27.5827 101.581 26.064C100.924 24.5453 100.595 22.8907 100.595 21.1C100.595 19.2867 100.924 17.632 101.581 16.136C102.261 14.6173 103.202 13.3027 104.403 12.192C105.605 11.0587 107.021 10.186 108.653 9.574C110.308 8.962 112.099 8.656 114.025 8.656C115.975 8.656 117.765 8.962 119.397 9.574C121.029 10.186 122.446 11.0587 123.647 12.192C124.849 13.3027 125.778 14.6173 126.435 16.136C127.115 17.632 127.455 19.2867 127.455 21.1C127.455 22.8907 127.115 24.5453 126.435 26.064C125.778 27.5827 124.849 28.9087 123.647 30.042C122.446 31.1527 121.029 32.014 119.397 32.626C117.765 33.238 115.986 33.544 114.059 33.544ZM114.025 27.05C114.773 27.05 115.465 26.914 116.099 26.642C116.757 26.37 117.323 25.9847 117.799 25.486C118.298 24.9647 118.683 24.3413 118.955 23.616C119.227 22.868 119.363 22.0293 119.363 21.1C119.363 20.1707 119.227 19.3433 118.955 18.618C118.683 17.87 118.298 17.2467 117.799 16.748C117.323 16.2267 116.757 15.83 116.099 15.558C115.465 15.286 114.773 15.15 114.025 15.15C113.277 15.15 112.575 15.286 111.917 15.558C111.283 15.83 110.716 16.2267 110.217 16.748C109.741 17.2467 109.367 17.87 109.095 18.618C108.823 19.3433 108.687 20.1707 108.687 21.1C108.687 22.0293 108.823 22.868 109.095 23.616C109.367 24.3413 109.741 24.9647 110.217 25.486C110.716 25.9847 111.283 26.37 111.917 26.642C112.575 26.914 113.277 27.05 114.025 27.05ZM130.368 33V9.2H136.964L146.484 24.738H143.016L152.264 9.2H158.86L158.928 33H151.618L151.55 20.216H152.706L146.382 30.858H142.846L136.25 20.216H137.678V33H130.368Z" fill="#231F20"/>
</svg>
