<svg viewBox="0 0 808 848" fill="none" xmlns="http://www.w3.org/2000/svg">
<path d="M25.5997 98.1907C68.8747 50.2997 179.082 50.2996 261.593 23.7576C344.104 -3.36135 399.496 -57.0223 474.506 -91.6423C549.516 -126.839 645.298 -142.995 716.846 -110.106C788.971 -77.2173 836.862 5.29368 881.291 87.8047C926.297 170.893 967.264 253.404 963.802 334.761C960.917 416.118 914.18 495.167 853.595 550.559C793.01 605.374 719.154 635.955 650.491 690.193C581.251 745.008 517.781 822.903 442.771 842.521C367.761 862.139 281.788 823.48 203.316 774.435C125.421 725.967 55.6037 666.536 27.9077 591.526C0.211672 517.093 14.6367 426.504 10.5977 333.607C5.98167 241.287 -17.6753 145.505 25.5997 98.1907Z" fill="url(#paint0_linear_18_2794)"/>
<defs>
<linearGradient id="paint0_linear_18_2794" x1="805" y1="-0.499948" x2="144" y2="728.5" gradientUnits="userSpaceOnUse">
<stop stop-color="#2D46A0"/>
<stop offset="1" stop-color="#6F8EFF"/>
</linearGradient>
</defs>
</svg>
